<svg width="24" height="24" viewBox="0 0 24 24" fill="none" xmlns="http://www.w3.org/2000/svg">
<path d="M14.25 7.5C14.45 7.5 14.625 7.425 14.775 7.275C14.925 7.125 15 6.95 15 6.75C15 6.55 14.925 6.375 14.775 6.225C14.625 6.075 14.45 6 14.25 6C14.05 6 13.875 6.075 13.725 6.225C13.575 6.375 13.5 6.55 13.5 6.75C13.5 6.95 13.575 7.125 13.725 7.275C13.875 7.425 14.05 7.5 14.25 7.5ZM14.25 9C13.6167 9 13.0833 8.78333 12.65 8.35C12.2167 7.91667 12 7.38333 12 6.75C12 6.11667 12.2167 5.58333 12.65 5.15C13.0833 4.71667 13.6167 4.5 14.25 4.5C14.8833 4.5 15.4167 4.71667 15.85 5.15C16.2833 5.58333 16.5 6.11667 16.5 6.75C16.5 7.38333 16.2833 7.91667 15.85 8.35C15.4167 8.78333 14.8833 9 14.25 9ZM20 6.5C20.1333 6.5 20.25 6.45 20.35 6.35C20.45 6.25 20.5 6.13333 20.5 6C20.5 5.86667 20.45 5.75 20.35 5.65C20.25 5.55 20.1333 5.5 20 5.5C19.8667 5.5 19.75 5.55 19.65 5.65C19.55 5.75 19.5 5.86667 19.5 6C19.5 6.13333 19.55 6.25 19.65 6.35C19.75 6.45 19.8667 6.5 20 6.5ZM20 8C19.45 8 18.979 7.804 18.587 7.412C18.1957 7.02067 18 6.55 18 6C18 5.45 18.1957 4.97933 18.587 4.588C18.979 4.196 19.45 4 20 4C20.55 4 21.021 4.196 21.413 4.588C21.8043 4.97933 22 5.45 22 6C22 6.55 21.8043 7.02067 21.413 7.412C21.021 7.804 20.55 8 20 8ZM16.5 4C16.0833 4 15.7293 3.854 15.438 3.562C15.146 3.27067 15 2.91667 15 2.5C15 2.08333 15.146 1.72933 15.438 1.438C15.7293 1.146 16.0833 1 16.5 1C16.9167 1 17.2707 1.146 17.562 1.438C17.854 1.72933 18 2.08333 18 2.5C18 2.91667 17.854 3.27067 17.562 3.562C17.2707 3.854 16.9167 4 16.5 4ZM4 23C3.16667 23 2.45833 22.7083 1.875 22.125C1.29167 21.5417 1 20.8333 1 20V13.975C1 13.5583 1.08333 13.1623 1.25 12.787C1.41667 12.4123 1.65 12.0833 1.95 11.8L9.125 5L10.225 6.15C10.3917 6.33333 10.4833 6.53733 10.5 6.762C10.5167 6.98733 10.4667 7.2 10.35 7.4L8.875 10H18.825C19.1583 10 19.4377 10.125 19.663 10.375C19.8877 10.625 20 10.9167 20 11.25C20 11.6 19.8793 11.8957 19.638 12.137C19.396 12.379 19.1 12.5 18.75 12.5H12V13.5H20.75C21.1 13.5 21.396 13.621 21.638 13.863C21.8793 14.1043 22 14.4 22 14.75C22 15.1 21.8793 15.3957 21.638 15.637C21.396 15.879 21.1 16 20.75 16H12V17H19.75C20.1 17 20.396 17.121 20.638 17.363C20.8793 17.6043 21 17.9 21 18.25C21 18.6 20.8793 18.8957 20.638 19.137C20.396 19.379 20.1 19.5 19.75 19.5H12V20.5H17.75C18.1 20.5 18.396 20.621 18.638 20.863C18.8793 21.1043 19 21.4 19 21.75C19 22.1 18.8793 22.3957 18.638 22.637C18.396 22.879 18.1 23 17.75 23H4ZM4 21H10V12H7V9.775L3.35 13.2C3.28333 13.25 3.20833 13.3457 3.125 13.487C3.04167 13.629 3 13.8 3 14V20C3 20.2833 3.096 20.5207 3.288 20.712C3.47933 20.904 3.71667 21 4 21Z" fill="#0B2545"/>
</svg>
