<svg width="23" height="23" viewBox="0 0 23 23" fill="none" xmlns="http://www.w3.org/2000/svg">
<path d="M21.418 6.33902L23 4.76829L18.2317 0L16.661 1.58195L18.2317 3.17512L16.661 4.76829L14.2712 2.37854L12.6893 0.785366L11.1073 2.37854L11.8927 3.17512L1.40244 13.6541C1.04692 14.0086 0.820545 14.4721 0.759526 14.9704C0.698506 15.4687 0.806366 15.9731 1.06585 16.4029L2.52439 18.86L0 21.418L1.58195 23L4.14 20.4756L6.59707 21.9454C6.93687 22.147 7.3239 22.2554 7.71902 22.2595C8.02077 22.2642 8.32037 22.2081 8.59989 22.0943C8.87942 21.9806 9.13313 21.8116 9.34585 21.5976L19.8249 11.1185L20.6215 11.9039L22.2146 10.322L20.6215 8.72878L18.2317 6.33902L19.8249 4.76829L21.418 6.33902ZM18.2317 9.51415L7.75268 20.0044L4.76829 18.2317L2.99561 15.2473L3.96049 14.2712L7.13561 17.4463L8.72878 15.8644L5.55366 12.6893L7.13561 11.1073L10.3107 14.2712L11.8927 12.6893L8.71756 9.51415L10.3107 7.93219L13.4859 11.1073L15.0678 9.51415L11.8927 6.33902L13.4859 4.76829L18.2317 9.51415Z" fill="#0B2545"/>
</svg>
