<svg width="18" height="23" viewBox="0 0 18 23" fill="none" xmlns="http://www.w3.org/2000/svg">
<path d="M14.625 4.6H12.375V2.3H14.625C14.9234 2.3 15.2095 2.17884 15.4205 1.96317C15.6315 1.74751 15.75 1.455 15.75 1.15C15.75 0.845001 15.6315 0.552494 15.4205 0.336827C15.2095 0.12116 14.9234 0 14.625 0H5.625C4.13316 0 2.70242 0.605802 1.64752 1.68414C0.592632 2.76247 0 4.22501 0 5.75V21.85C0 22.155 0.118527 22.4475 0.329505 22.6632C0.540484 22.8788 0.826631 23 1.125 23C1.42337 23 1.70952 22.8788 1.92049 22.6632C2.13147 22.4475 2.25 22.155 2.25 21.85V5.75C2.25 4.835 2.60558 3.95748 3.23851 3.31048C3.87145 2.66348 4.72989 2.3 5.625 2.3H10.125V4.6H7.875C6.97989 4.6 6.12145 4.96348 5.48851 5.61048C4.85558 6.25748 4.5 7.135 4.5 8.05V13.7195C4.49979 14.2886 4.63733 14.849 4.90036 15.3506C5.16339 15.8523 5.54373 16.2796 6.0075 16.5945L7.875 17.871V18.4C7.875 19.01 8.11205 19.595 8.53401 20.0263C8.95597 20.4577 9.52826 20.7 10.125 20.7V21.85C10.125 22.155 10.2435 22.4475 10.4545 22.6632C10.6655 22.8788 10.9516 23 11.25 23C11.5484 23 11.8345 22.8788 12.0455 22.6632C12.2565 22.4475 12.375 22.155 12.375 21.85V20.7C12.9717 20.7 13.544 20.4577 13.966 20.0263C14.3879 19.595 14.625 19.01 14.625 18.4V17.871L16.4925 16.5945C16.9563 16.2796 17.3366 15.8523 17.5996 15.3506C17.8627 14.849 18.0002 14.2886 18 13.7195V8.05C18 7.135 17.6444 6.25748 17.0115 5.61048C16.3786 4.96348 15.5201 4.6 14.625 4.6ZM13.5 10.35H15.75V11.5H14.625C14.3266 11.5 14.0405 11.6212 13.8295 11.8368C13.6185 12.0525 13.5 12.345 13.5 12.65C13.5 12.955 13.6185 13.2475 13.8295 13.4632C14.0405 13.6788 14.3266 13.8 14.625 13.8H15.75C15.738 13.9746 15.6872 14.1441 15.6014 14.2955C15.5156 14.447 15.3971 14.5764 15.255 14.674L12.8925 16.2955C12.7357 16.3983 12.6063 16.5394 12.5159 16.706C12.4256 16.8726 12.3772 17.0595 12.375 17.25V18.4H10.125V17.25C10.124 17.0606 10.0773 16.8743 9.98901 16.7078C9.90069 16.5413 9.77351 16.3997 9.61875 16.2955L7.25625 14.674C7.10149 14.5698 6.97431 14.4282 6.88599 14.2617C6.79767 14.0952 6.75096 13.9089 6.75 13.7195V8.05C6.75 7.745 6.86853 7.45249 7.0795 7.23683C7.29048 7.02116 7.57663 6.9 7.875 6.9H14.625C14.9234 6.9 15.2095 7.02116 15.4205 7.23683C15.6315 7.45249 15.75 7.745 15.75 8.05H13.5C13.2016 8.05 12.9155 8.17116 12.7045 8.38683C12.4935 8.60249 12.375 8.895 12.375 9.2C12.375 9.505 12.4935 9.79751 12.7045 10.0132C12.9155 10.2288 13.2016 10.35 13.5 10.35Z" fill="#0B2545"/>
</svg>
