<svg width="23" height="23" viewBox="0 0 23 23" fill="none" xmlns="http://www.w3.org/2000/svg">
<path d="M22.9996 4.19102C22.9952 3.61749 22.8743 3.05088 22.6442 2.52584C22.4142 2.0008 22.0799 1.52836 21.6617 1.13739C20.0042 -0.431014 17.3167 -0.371605 15.671 1.27997L13.0782 3.8821C12.5358 3.38908 11.8255 3.12402 11.0939 3.14171C10.3624 3.1594 9.66557 3.45849 9.14752 3.97715L8.31876 4.80888C7.96736 5.16679 7.77038 5.64907 7.77038 6.15153C7.77038 6.65399 7.96736 7.13627 8.31876 7.49418L8.56739 7.7437L2.60034 13.7203C2.05642 14.2706 1.65375 14.9451 1.4269 15.6861C1.20006 16.427 1.15583 17.2121 1.29801 17.974L0.137749 20.6355C0.00528808 20.9359 -0.0328107 21.2696 0.0285298 21.5923C0.0898703 21.915 0.247737 22.2112 0.481091 22.4415C0.655878 22.6192 0.86423 22.7602 1.09395 22.856C1.32367 22.9519 1.57014 23.0009 1.81894 23C2.07931 23.0003 2.33706 22.9478 2.57666 22.8455L5.06293 21.7524C5.82207 21.8951 6.60438 21.8507 7.34265 21.623C8.08093 21.3954 8.7531 20.9913 9.30143 20.4454L15.2566 14.4569L15.5053 14.7065C15.6803 14.8839 15.8887 15.0248 16.1183 15.121C16.3479 15.2171 16.5943 15.2666 16.8431 15.2666C17.0919 15.2666 17.3383 15.2171 17.5679 15.121C17.7976 15.0248 18.0059 14.8839 18.181 14.7065L19.0097 13.8747C19.5265 13.3548 19.8245 12.6555 19.8422 11.9213C19.8598 11.1872 19.5957 10.4742 19.1044 9.92996L21.7565 7.2803C22.158 6.87421 22.4747 6.39182 22.6882 5.86137C22.9016 5.33091 23.0075 4.76305 22.9996 4.19102ZM7.96358 19.1027C7.60854 19.4538 7.16873 19.7062 6.68722 19.8354C6.20572 19.9645 5.69904 19.9659 5.21684 19.8394C5.0084 19.783 4.78701 19.7998 4.58935 19.8869L2.04389 21.0038L3.15679 18.4492C3.24363 18.2509 3.26034 18.0287 3.20415 17.8195C3.05528 17.263 3.08007 16.6742 3.27518 16.1323H10.9116L7.96358 19.1027ZM12.8059 14.2312H4.77878L9.90524 9.08634L13.9188 13.1143L12.8059 14.2312ZM20.4068 5.92577L17.0917 9.25269C16.9139 9.43291 16.8141 9.67631 16.8141 9.92996C16.8141 10.1836 16.9139 10.427 17.0917 10.6072L17.6719 11.1776C17.8497 11.3578 17.9495 11.6012 17.9495 11.8548C17.9495 12.1085 17.8497 12.3519 17.6719 12.5321L16.8431 13.3638L9.65661 6.15153L10.4854 5.3198C10.5735 5.22999 10.6785 5.15866 10.7944 5.10998C10.9103 5.0613 11.0346 5.03622 11.1602 5.03622C11.2858 5.03622 11.4102 5.0613 11.526 5.10998C11.6419 5.15866 11.7469 5.22999 11.8351 5.3198L12.4033 5.90201C12.5829 6.08051 12.8254 6.18064 13.0782 6.18064C13.3309 6.18064 13.5735 6.08051 13.753 5.90201L17.0089 2.62262C17.9442 1.69584 19.4478 1.64831 20.3594 2.52757C20.5912 2.74338 20.7768 3.00423 20.9051 3.29428C21.0333 3.58432 21.1014 3.8975 21.1053 4.21479C21.1128 4.53292 21.0547 4.84918 20.9345 5.14365C20.8142 5.43812 20.6346 5.70442 20.4068 5.92577Z" fill="#0B2545"/>
</svg>
