<svg width="23" height="23" viewBox="0 0 23 23" fill="none" xmlns="http://www.w3.org/2000/svg">
<path d="M22.523 11.3154L12.7203 0.941554L12.0632 0.245848C11.9135 0.0883782 11.7111 0 11.5 0C11.289 0 11.0866 0.0883782 10.9368 0.245848L0.477049 11.3154C0.323644 11.4772 0.202404 11.6699 0.120488 11.8821C0.0385721 12.0943 -0.00236095 12.3217 0.000105155 12.551C0.0102529 13.4965 0.753576 14.2513 1.64658 14.2513H2.72478V23H20.2753V14.2513H21.3763C21.8102 14.2513 22.2186 14.0713 22.5256 13.7463C22.6767 13.5868 22.7965 13.3971 22.8779 13.1882C22.9594 12.9794 23.0008 12.7555 23 12.5295C23 12.0729 22.83 11.6404 22.523 11.3154ZM12.9207 21.066H10.0794V15.5863H12.9207V21.066ZM18.4487 12.3173V21.066H14.5444V14.9416C14.5444 14.348 14.0903 13.8672 13.5296 13.8672H9.4705C8.90983 13.8672 8.45572 14.348 8.45572 14.9416V21.066H4.55137V12.3173H2.11591L11.5026 2.38669L12.0886 3.00718L20.8867 12.3173H18.4487Z" fill="#0B2545"/>
</svg>
