<svg width="30" height="30" viewBox="0 0 30 30" fill="none" xmlns="http://www.w3.org/2000/svg">
<path d="M16.875 8.125V6.875H15.625V5.625H14.375V6.875H13.125V8.125H14.375V9.375H15.625V8.125H16.875Z" fill="#0B2545"/>
<path fill-rule="evenodd" clip-rule="evenodd" d="M19.5751 10.4794L20.8113 6.97563C21.1463 6.02563 20.6688 4.95063 19.6682 4.63375C18.5063 4.265 16.6063 3.75 15.0001 3.75C13.3938 3.75 11.4938 4.265 10.3313 4.63375C9.3313 4.95125 8.8538 6.02625 9.1888 6.97563L10.4257 10.4794C10.0899 11.2405 9.9494 12.0733 10.0168 12.9025C10.0842 13.7316 10.3574 14.5309 10.8117 15.2277C11.266 15.9246 11.8869 16.4972 12.6183 16.8935C13.3498 17.2898 14.1685 17.4974 15.0004 17.4974C15.8322 17.4974 16.651 17.2898 17.3824 16.8935C18.1138 16.4972 18.7348 15.9246 19.189 15.2277C19.6433 14.5309 19.9165 13.7316 19.9839 12.9025C20.0513 12.0733 19.9108 11.2405 19.5751 10.4794V10.4794ZM15.0001 5C13.6001 5 11.8569 5.46125 10.7094 5.825C10.4219 5.91625 10.2532 6.23625 10.3676 6.56L11.6326 10.1437C13.8744 9.43125 16.1257 9.43125 18.3676 10.1437L19.6326 6.56C19.7469 6.23625 19.5782 5.91625 19.2907 5.82563C18.1432 5.46125 16.3994 5 15.0001 5ZM18.6288 11.5506H18.6282C18.595 11.5439 18.5624 11.5345 18.5307 11.5225C16.1719 10.6381 13.8282 10.6381 11.4694 11.5225C11.4375 11.5345 11.4047 11.5439 11.3713 11.5506C11.227 12.1051 11.2116 12.6853 11.3264 13.2466C11.4412 13.8079 11.6831 14.3355 12.0335 14.7888C12.3839 15.2421 12.8335 15.609 13.3478 15.8615C13.8621 16.114 14.4274 16.2453 15.0004 16.2453C15.5733 16.2453 16.1386 16.114 16.6529 15.8615C17.1672 15.609 17.6169 15.2421 17.9673 14.7888C18.3177 14.3355 18.5596 13.8079 18.6743 13.2466C18.7891 12.6853 18.7738 12.1051 18.6294 11.5506H18.6288Z" fill="#0B2545"/>
<path d="M21.25 21.25H22.5V22.5H21.25V23.75H20V22.5H18.75V21.25H20V20H21.25V21.25Z" fill="#0B2545"/>
<path fill-rule="evenodd" clip-rule="evenodd" d="M10.5494 17.5C10.5494 17.5 3.75 19.6206 3.75 22.1669V26.25H26.25V22.1669C26.25 19.6206 19.4506 17.5 19.4506 17.5L15.7181 20.1206C15.5078 20.2683 15.257 20.3475 15 20.3475C14.743 20.3475 14.4922 20.2683 14.2819 20.1206L10.5494 17.5ZM19.6506 18.8875L16.4369 21.1438C16.016 21.4393 15.5143 21.5979 15 21.5979C14.4857 21.5979 13.984 21.4393 13.5631 21.1438L10.3494 18.8875C9.4471 19.2037 8.56485 19.5744 7.7075 19.9975C6.8975 20.4013 6.15625 20.8494 5.635 21.305C5.07187 21.7969 5 22.0894 5 22.1669V25H25V22.1669C25 22.0894 24.9281 21.7969 24.365 21.3044C23.8438 20.8494 23.1025 20.4013 22.2919 19.9969C21.5697 19.641 20.8297 19.3222 20.075 19.0419C19.9187 18.9831 19.7762 18.9319 19.6506 18.8869V18.8875Z" fill="#0B2545"/>
</svg>
