<svg width="20" height="25" viewBox="0 0 20 25" fill="none" xmlns="http://www.w3.org/2000/svg">
<path fill-rule="evenodd" clip-rule="evenodd" d="M16.4175 2.49976L3.56958 2.50913L3.58029 13.7555L16.4283 13.7461L16.4175 2.49976ZM10.0014 11.0432C11.6003 11.042 12.8558 9.99357 12.8544 8.6615C12.8529 7.42378 9.99499 4.37915 9.99499 4.37915C9.99499 4.37915 7.14274 7.33256 7.14417 8.66525C7.1456 9.99794 8.40255 11.0445 10.0014 11.0432ZM4.30405 15.4899C4.30405 15.3243 4.37916 15.1655 4.51286 15.0483C4.64657 14.9312 4.82794 14.8653 5.01712 14.8651L7.87222 14.8626C7.96595 14.8626 8.05878 14.8787 8.1454 14.9101C8.23202 14.9414 8.31073 14.9874 8.37704 15.0454C8.44335 15.1034 8.49597 15.1722 8.53188 15.248C8.5678 15.3238 8.58631 15.405 8.58635 15.4871C8.5864 15.5691 8.56798 15.6504 8.53216 15.7262C8.49633 15.802 8.44379 15.8709 8.37754 15.929C8.3113 15.987 8.23264 16.0331 8.14606 16.0645C8.05948 16.096 7.96667 16.1122 7.87293 16.1122L5.01783 16.1141C4.82853 16.1141 4.64697 16.0483 4.51312 15.9311C4.37926 15.8139 4.30405 15.655 4.30405 15.4893V15.4899ZM11.4418 15.4849C11.4417 15.4029 11.4601 15.3216 11.4959 15.2458C11.5317 15.1699 11.5842 15.101 11.6504 15.0429C11.7166 14.9849 11.7952 14.9388 11.8818 14.9073C11.9683 14.8758 12.0611 14.8596 12.1549 14.8595L15.01 14.8576C15.1993 14.8575 15.3809 14.9233 15.5148 15.0404C15.6487 15.1575 15.724 15.3164 15.7241 15.4821C15.7242 15.6478 15.6491 15.8068 15.5153 15.924C15.3815 16.0412 15.2 16.1071 15.0107 16.1072L12.1556 16.1091C11.9663 16.1091 11.7847 16.0433 11.6509 15.9261C11.517 15.8089 11.4418 15.65 11.4418 15.4843V15.4849Z" fill="#0B2545"/>
<path fill-rule="evenodd" clip-rule="evenodd" d="M2.14061 1.26084L17.8437 1.24959C17.9374 1.24951 18.0303 1.26559 18.1169 1.29691C18.2035 1.32824 18.2823 1.37419 18.3486 1.43215C18.415 1.49011 18.4676 1.55894 18.5036 1.63471C18.5395 1.71049 18.5581 1.79172 18.5582 1.87377L18.5724 17.4937C18.5724 17.6593 18.4973 17.8181 18.3636 17.9353C18.2299 18.0524 18.0486 18.1183 17.8594 18.1185L13.5767 18.1216L13.5782 19.3712L17.8608 19.3687C18.142 19.3685 18.4204 19.3197 18.6801 19.2253C18.9398 19.1309 19.1757 18.9926 19.3743 18.8184C19.573 18.6442 19.7305 18.4374 19.8378 18.2099C19.9452 17.9824 20.0003 17.7386 20 17.4924L19.9857 1.87252C19.9852 1.37551 19.7591 0.899039 19.3573 0.547892C18.9555 0.196745 18.4108 -0.000331172 17.843 4.17758e-07L2.1399 0.0112465C1.8587 0.0114106 1.58028 0.0600558 1.32056 0.154404C1.06083 0.248753 0.824879 0.386957 0.626171 0.561127C0.427463 0.735296 0.269892 0.942019 0.162453 1.16949C0.0550147 1.39697 -0.000187055 1.64074 4.76209e-07 1.88689L0.0142763 17.5068C0.0144637 17.753 0.0700594 17.9968 0.177889 18.2242C0.285719 18.4515 0.443669 18.6581 0.642718 18.8321C0.841767 19.006 1.07801 19.1439 1.33797 19.2379C1.59792 19.3319 1.87648 19.3802 2.15774 19.38L6.4404 19.3768L6.43897 18.1272L2.15632 18.1304C1.96701 18.1304 1.78546 18.0645 1.6516 17.9474C1.51774 17.8302 1.44254 17.6713 1.44254 17.5056L1.42827 1.88564C1.42827 1.72015 1.50327 1.56142 1.63682 1.44428C1.77037 1.32714 1.95156 1.26117 2.14061 1.26084Z" fill="#0B2545"/>
<path fill-rule="evenodd" clip-rule="evenodd" d="M12.8631 18.1223L7.15287 18.1267L7.15858 23.7499L12.8688 23.7455L12.8631 18.1223ZM5.72461 16.8777L5.73175 25.0001L14.2971 24.9938L14.2899 16.8715L5.72461 16.8777Z" fill="#0B2545"/>
<path d="M11.4382 21.2474C11.4384 21.4115 11.4016 21.5741 11.33 21.7257C11.2584 21.8774 11.1533 22.0152 11.0209 22.1313C10.8884 22.2474 10.7311 22.3396 10.558 22.4025C10.3848 22.4654 10.1992 22.4978 10.0118 22.498C9.82428 22.4981 9.63862 22.4659 9.46537 22.4032C9.29212 22.3405 9.13467 22.2486 9.00201 22.1326C8.86935 22.0167 8.76408 21.879 8.69221 21.7274C8.62033 21.5759 8.58327 21.4134 8.58313 21.2493C8.58285 20.9179 8.73298 20.6 9.00049 20.3654C9.26801 20.1309 9.631 19.999 10.0096 19.9988C10.3882 19.9985 10.7514 20.1299 11.0194 20.3641C11.2873 20.5983 11.4379 20.916 11.4382 21.2474Z" fill="#0B2545"/>
</svg>
