<svg width="25" height="25" viewBox="0 0 25 25" fill="none" xmlns="http://www.w3.org/2000/svg">
<path d="M15.1175 3.0343C16.9408 1.21184 19.934 1.20934 21.7665 3.03513L21.9665 3.23513C23.789 5.05758 23.7915 8.05084 21.9665 9.88329L21.9648 9.88413L20.0382 11.8116L13.1892 4.96258L15.1175 3.0343ZM12.6008 5.55174L19.449 12.4007L12.4325 19.4164L5.58428 12.5666L12.6008 5.5509V5.55174ZM11.8442 20.0055L9.88421 21.9655C8.06007 23.7888 5.05929 23.7888 3.23599 21.9655L3.03599 21.7647C1.21269 19.9422 1.21102 16.9489 3.03599 15.1165V15.1157L4.99513 13.1574L11.8442 20.0055ZM22.9423 1.85516C20.4607 -0.617276 16.4133 -0.619776 13.9383 1.856L1.85601 13.939H1.85518C-0.617281 16.4215 -0.619781 20.468 1.85601 22.943L2.05601 23.1438C4.53097 25.6187 8.58756 25.6187 11.0617 23.1438L23.144 11.0608H23.1448C25.6173 8.57833 25.6198 4.53176 23.144 2.05682L22.944 1.856L22.9423 1.85516ZM16.6674 5.41674C16.6674 5.52724 16.6235 5.63322 16.5454 5.71136C16.4673 5.7895 16.3613 5.8334 16.2508 5.8334C16.1403 5.8334 16.0343 5.7895 15.9561 5.71136C15.878 5.63322 15.8341 5.52724 15.8341 5.41674C15.8341 5.30623 15.878 5.20026 15.9561 5.12212C16.0343 5.04398 16.1403 5.00008 16.2508 5.00008C16.3613 5.00008 16.4673 5.04398 16.5454 5.12212C16.6235 5.20026 16.6674 5.30623 16.6674 5.41674ZM17.9174 7.50002C18.0279 7.50002 18.1339 7.45612 18.212 7.37798C18.2902 7.29985 18.3341 7.19387 18.3341 7.08336C18.3341 6.97286 18.2902 6.86688 18.212 6.78874C18.1339 6.7106 18.0279 6.66671 17.9174 6.66671C17.8069 6.66671 17.7009 6.7106 17.6228 6.78874C17.5446 6.86688 17.5007 6.97286 17.5007 7.08336C17.5007 7.19387 17.5446 7.29985 17.6228 7.37798C17.7009 7.45612 17.8069 7.50002 17.9174 7.50002ZM20.0007 8.74999C20.0007 8.86049 19.9568 8.96647 19.8787 9.04461C19.8005 9.12275 19.6946 9.16665 19.584 9.16665C19.4735 9.16665 19.3676 9.12275 19.2894 9.04461C19.2113 8.96647 19.1674 8.86049 19.1674 8.74999C19.1674 8.63948 19.2113 8.53351 19.2894 8.45537C19.3676 8.37723 19.4735 8.33333 19.584 8.33333C19.6946 8.33333 19.8005 8.37723 19.8787 8.45537C19.9568 8.53351 20.0007 8.63948 20.0007 8.74999ZM17.9174 4.16677C18.0279 4.16677 18.1339 4.12287 18.212 4.04473C18.2902 3.9666 18.3341 3.86062 18.3341 3.75011C18.3341 3.63961 18.2902 3.53363 18.212 3.45549C18.1339 3.37736 18.0279 3.33346 17.9174 3.33346C17.8069 3.33346 17.7009 3.37736 17.6228 3.45549C17.5446 3.53363 17.5007 3.63961 17.5007 3.75011C17.5007 3.86062 17.5446 3.9666 17.6228 4.04473C17.7009 4.12287 17.8069 4.16677 17.9174 4.16677ZM20.0007 5.41674C20.0007 5.52724 19.9568 5.63322 19.8787 5.71136C19.8005 5.7895 19.6946 5.8334 19.584 5.8334C19.4735 5.8334 19.3676 5.7895 19.2894 5.71136C19.2113 5.63322 19.1674 5.52724 19.1674 5.41674C19.1674 5.30623 19.2113 5.20026 19.2894 5.12212C19.3676 5.04398 19.4735 5.00008 19.584 5.00008C19.6946 5.00008 19.8005 5.04398 19.8787 5.12212C19.9568 5.20026 20.0007 5.30623 20.0007 5.41674ZM21.2507 7.50002C21.3612 7.50002 21.4672 7.45612 21.5453 7.37798C21.6234 7.29985 21.6673 7.19387 21.6673 7.08336C21.6673 6.97286 21.6234 6.86688 21.5453 6.78874C21.4672 6.7106 21.3612 6.66671 21.2507 6.66671C21.1402 6.66671 21.0342 6.7106 20.9561 6.78874C20.8779 6.86688 20.834 6.97286 20.834 7.08336C20.834 7.19387 20.8779 7.29985 20.9561 7.37798C21.0342 7.45612 21.1402 7.50002 21.2507 7.50002ZM4.16764 17.9164C4.16764 18.0269 4.12374 18.1329 4.0456 18.211C3.96746 18.2892 3.86148 18.3331 3.75098 18.3331C3.64047 18.3331 3.5345 18.2892 3.45636 18.211C3.37822 18.1329 3.33432 18.0269 3.33432 17.9164C3.33432 17.8059 3.37822 17.6999 3.45636 17.6218C3.5345 17.5437 3.64047 17.4998 3.75098 17.4998C3.86148 17.4998 3.96746 17.5437 4.0456 17.6218C4.12374 17.6999 4.16764 17.8059 4.16764 17.9164ZM5.41762 19.9997C5.52812 19.9997 5.6341 19.9558 5.71224 19.8777C5.79038 19.7995 5.83428 19.6936 5.83428 19.5831C5.83428 19.4725 5.79038 19.3666 5.71224 19.2884C5.6341 19.2103 5.52812 19.1664 5.41762 19.1664C5.30711 19.1664 5.20113 19.2103 5.123 19.2884C5.04486 19.3666 5.00096 19.4725 5.00096 19.5831C5.00096 19.6936 5.04486 19.7995 5.123 19.8777C5.20113 19.9558 5.30711 19.9997 5.41762 19.9997ZM7.50092 21.2497C7.50092 21.3602 7.45702 21.4662 7.37888 21.5443C7.30074 21.6224 7.19476 21.6663 7.08426 21.6663C6.97375 21.6663 6.86777 21.6224 6.78963 21.5443C6.71149 21.4662 6.6676 21.3602 6.6676 21.2497C6.6676 21.1392 6.71149 21.0332 6.78963 20.9551C6.86777 20.8769 6.97375 20.833 7.08426 20.833C7.19476 20.833 7.30074 20.8769 7.37888 20.9551C7.45702 21.0332 7.50092 21.1392 7.50092 21.2497ZM5.41762 16.6665C5.52812 16.6665 5.6341 16.6226 5.71224 16.5444C5.79038 16.4663 5.83428 16.3603 5.83428 16.2498C5.83428 16.1393 5.79038 16.0333 5.71224 15.9552C5.6341 15.877 5.52812 15.8331 5.41762 15.8331C5.30711 15.8331 5.20113 15.877 5.123 15.9552C5.04486 16.0333 5.00096 16.1393 5.00096 16.2498C5.00096 16.3603 5.04486 16.4663 5.123 16.5444C5.20113 16.6226 5.30711 16.6665 5.41762 16.6665ZM7.50092 17.9164C7.50092 18.0269 7.45702 18.1329 7.37888 18.211C7.30074 18.2892 7.19476 18.3331 7.08426 18.3331C6.97375 18.3331 6.86777 18.2892 6.78963 18.211C6.71149 18.1329 6.6676 18.0269 6.6676 17.9164C6.6676 17.8059 6.71149 17.6999 6.78963 17.6218C6.86777 17.5437 6.97375 17.4998 7.08426 17.4998C7.19476 17.4998 7.30074 17.5437 7.37888 17.6218C7.45702 17.6999 7.50092 17.8059 7.50092 17.9164ZM8.7509 19.9997C8.8614 19.9997 8.96738 19.9558 9.04552 19.8777C9.12366 19.7995 9.16756 19.6936 9.16756 19.5831C9.16756 19.4725 9.12366 19.3666 9.04552 19.2884C8.96738 19.2103 8.8614 19.1664 8.7509 19.1664C8.64039 19.1664 8.53441 19.2103 8.45627 19.2884C8.37813 19.3666 8.33424 19.4725 8.33424 19.5831C8.33424 19.6936 8.37813 19.7995 8.45627 19.8777C8.53441 19.9558 8.64039 19.9997 8.7509 19.9997Z" fill="#0B2545"/>
</svg>
