<?xml version="1.0" encoding="utf-8"?>
<!-- Generator: Adobe Illustrator 23.1.0, SVG Export Plug-In . SVG Version: 6.00 Build 0)  -->
<svg version="1.1" id="Calque_1" xmlns="http://www.w3.org/2000/svg" xmlns:xlink="http://www.w3.org/1999/xlink" x="0px" y="0px"
	 viewBox="0 0 1125 1042" style="enable-background:new 0 0 1125 1042;" xml:space="preserve">
<style type="text/css">
	.st0{fill:#969696;}
	.st1{fill:#FFFFFF;}
</style>
<g>
	<path class="st0" d="M287.29,799.45c-20.43,0-23.84-3.49-23.84-24.13c-0.01-16.72-0.11-33.44,0.03-50.16
		c0.11-12.74,5.15-17.61,18.03-17.79c5.83-0.08,11.67-0.01,18.15-0.01c0-135.15,0-269.33,0-401.46
		c-11.56-1.99-23.03-2.11-32.96-6.08c-17.85-7.14-27.62-21.87-28.8-41.13c-1.26-20.52,7.66-36.3,25.53-46.37
		c48.21-27.15,96.6-54.01,144.91-80.99c42.03-23.46,84.01-46.99,126.08-70.38c44.24-24.6,88.66-24.63,132.95-0.21
		c30.1,16.59,60.04,33.51,90.06,50.25c2.78,1.55,5.66,2.9,9.94,5.08c0-19.86-0.93-38.46,0.34-56.91c0.76-11.12,2.9-23.07,7.99-32.78
		c11.19-21.36,36.69-30.74,59.94-24.45c22.63,6.12,39.19,26.77,39.44,50.64c0.39,38.35,0.29,76.71-0.02,115.06
		c-0.05,6.78,1.94,10.51,8.06,13.7c16.83,8.78,33.24,18.37,49.81,27.64c26.26,14.7,36.78,36.37,29.4,60.56
		c-7.59,24.84-28.65,37.08-59.62,34.06c0,134.77,0,268.69,0,403.78c7.05,0,13.53-0.18,19.99,0.04c10.09,0.33,15.49,5.19,15.62,14.95
		 M872.32,706.79c0.22-3.37,0.56-6.23,0.56-9.09c0.03-133.76-0.01-267.51,0.14-401.27c0.01-5.88-1.47-9.41-6.94-12.45
		c-82.15-45.63-164.19-91.47-246.19-137.39c-12.53-7.02-24.44-7.29-37.16-0.16c-81.7,45.77-163.5,91.36-245.4,136.79
		c-5.96,3.31-7.99,7.12-7.97,13.87c0.19,133.1,0.13,266.2,0.17,399.3c0,3.43,0.43,6.87,0.66,10.2c12.43,0,23.71,0,35.49,0
		c0-4.68,0-8.59,0-12.51c0-81.63,0-163.26,0.01-244.89c0-17.86,3.92-21.73,22.07-21.73c55.07-0.02,110.14-0.03,165.22,0
		c17.41,0.01,21.3,3.94,21.31,21.41c0.01,81.96,0,163.92,0,245.88c0,3.84,0,7.68,0,12.04C674.13,706.79,772.93,706.79,872.32,706.79
		z M544.29,706.84c0-83.5,0-166.5,0-249.83c-49.9,0-99.17,0-148.44,0c0,83.67,0,166.67,0,249.83
		C445.66,706.84,494.67,706.84,544.29,706.84z M600.7,72.1C600.44,71.21,599.77,72.08,600.7,72.1c-16.74-0.26-31.86,3.9-45.19,11.2
		c-92.77,50.8-185.01,102.58-277.15,154.53c-4.96,2.79-10.18,9.75-10.45,15.02c-0.31,6.15,3.18,14.16,7.74,18.49
		c7.22,6.85,16.27,4.1,24.59-0.56c88.59-49.56,177.35-98.83,265.81-148.62c24-13.51,46.72-13.3,70.62,0.23
		c65.26,36.94,130.88,73.25,196.36,109.81c23.72,13.25,47.45,26.5,71.17,39.76c7.46,4.17,15.81,5.49,22-0.45
		c4.44-4.26,7.69-11.3,8.46-17.48c1.02-8.18-5.15-13.56-12.18-17.44c-23.52-12.94-47.03-25.91-70.47-39.01
		c-67.45-37.7-134.83-75.54-202.31-113.19C634.53,75.92,618.15,71.74,600.7,72.1z M908.86,737.31c-205.71,0-410.54,0-615.54,0
		c0,11.17,0,21.53,0,32.17c205.39,0,410.27,0,615.54,0C908.86,758.55,908.86,748.46,908.86,737.31z M845.83,160.24
		c0-36.59,0.14-70.94-0.06-105.29c-0.09-14.84-10.42-25.48-24.1-25.68c-13.56-0.2-24.62,10.4-24.86,25.06
		c-0.41,24.54-0.21,49.1-0.01,73.65c0.02,2.21,1.28,5.44,2.99,6.43C814.39,142.92,829.23,151.01,845.83,160.24z"/>
	<path class="st0" d="M722.12,606.64c-31.45,0-62.91,0.06-94.37-0.03c-15.17-0.04-19.86-4.83-19.88-20.16
		c-0.04-46.54-0.05-93.08,0.01-139.62c0.02-14.5,4.93-19.57,19.52-19.59c63.24-0.1,126.48-0.11,189.72,0.01
		c14.7,0.03,19.09,4.75,19.11,19.74c0.04,46.86,0.05,93.73-0.01,140.59c-0.02,14.27-4.59,18.97-18.75,19.02
		C785.69,606.72,753.91,606.64,722.12,606.64z M637.49,501.78c23.75,0,46.48,0,69.35,0c0-15.41,0-30.17,0-44.69
		c-23.62,0-46.35,0-69.35,0C637.49,472.19,637.49,486.53,637.49,501.78z M707.39,532.04c-23.89,0-46.63,0-69.68,0
		c0,15.2,0,29.76,0,44.65c23.47,0,46.44,0,69.68,0C707.39,561.57,707.39,547.24,707.39,532.04z M737.41,501.85
		c23.47,0,45.94,0,69.08,0c0-15.13,0-29.69,0-44.82c-23.21,0-45.93,0-69.08,0C737.41,472.06,737.41,486.4,737.41,501.85z
		 M737.65,576.82c23.57,0,46.03,0,68.77,0c0-15.24,0-29.8,0-44.5c-23.4,0-46.06,0-69.44,0c0,13-0.03,25.09,0.03,37.19
		C737.02,571.75,737.39,573.99,737.65,576.82z"/>
	<path class="st0" d="M526.3,259.83c0.09-41.41,34.05-75.25,75.16-74.9c41.21,0.34,75.15,34.75,74.67,75.68
		c-0.48,40.98-33.99,74.15-74.96,74.21C559.64,334.88,526.2,301.39,526.3,259.83z M646.83,260.39c0.21-24.92-20.18-45.8-45.13-46.21
		c-25.18-0.41-46.48,20.64-46.43,45.9c0.06,24.91,20.74,45.63,45.63,45.73C625.75,305.91,646.63,285.25,646.83,260.39z"/>
	<path class="st0" d="M526.54,582.39c0,6.2,0.35,12.43-0.08,18.6c-0.64,9.35-6.57,14.93-14.93,14.77
		c-8.41-0.16-13.94-5.88-14.13-15.39c-0.24-12.39-0.26-24.81,0.01-37.2c0.19-9.46,5.8-15.15,14.25-15.24
		c8.37-0.09,13.98,5.51,14.89,14.88c0.06,0.65,0.06,1.31,0.06,1.96c0.01,5.87,0.01,11.75,0.01,17.62H526.54z"/>
	<path class="st1" d="M1001.14,626.04c-10.2-18.4-27.87-18.7-43.47-11.71c-19.58-11.32-51.38,11.36-73.63,32.48
		c-6.72-3.67-15.37-3.77-22.68,2.94c-15.12,13.89-30.24,27.92-44.81,42.46c-18.32-7.61-37.12,7.31-52.73,21.83
		c-11.13,10.35-21.58,21.64-29.8,34.22c-5.73-0.28-11.46-0.56-17.17-0.95c2.94-9.36-0.48-20.48-13.06-24.07
		c-4.28-1.22-8.57-2.28-12.87-3.23c-1.79-5.23-5.92-9.68-12.88-11.61c-73.64-20.34-147.05-42.47-221.18-60.91
		c-31.42-7.82-65.3-13.02-96.92-3.24c-24.84,7.68-55.53,26.73-62.41,53.9c-32.18,16.09-56.08,41.84-71.45,73.68
		c-6.72,3.81-13.38,7.54-19.69,11.39c-33.68,20.53-68.64,42.68-108.97,45.78c-14.69,1.13-24.81,15.92-17.01,29.66
		c19.07,33.59,40.74,65.43,64.94,95.53c12.27,15.27,25.22,29.99,38.78,44.12c10.38,10.8,22.02,25.2,38.37,25.67
		c16.66,0.48,28.96-12.49,40.98-22.12c16.46-13.18,33.46-25.68,50.83-37.65c34.57-23.81,70.71-45.14,108.04-64.3
		c4.07-2.09,6.73-5.55,8.18-9.51c20.53-0.1,40.78-1.28,59.21-1.61c20.29-0.36,40.58-1.04,60.85-2.01
		c15.81-0.76,35.02,0.9,50.35-4.03c24.42,6.12,48.79,12.41,72.76,19.97c4.13,1.3,8.09,1.06,11.6-0.25
		c18.84,1.16,38.72-3.8,55.27-12.82c31.5-17.17,59.18-42.85,83.41-70.47c10.32-9.55,19.51-20.28,26.94-32.84
		c2.4,0.26,4.91,0.01,7.44-0.94c51.84-19.4,64.86-77.73,108.55-107.47C984.8,665.75,1016.78,654.26,1001.14,626.04z"/>
	<path class="st0" d="M728.83,709.36c33.11-25.3,65.49-50.05,97.9-74.78c19.24-14.68,37.95-30.13,57.9-43.77
		c40.78-27.86,83.66-29.61,126.65-5.52c38.32,21.48,42.8,65.48,10.25,94.97c-68.8,62.34-137.82,124.43-206.76,186.62
		c-8.58,7.74-17.23,15.42-25.75,23.23c-26.55,24.32-57.79,35.62-93.81,35.47c-80.94-0.36-161.89-0.21-242.83,0.06
		c-7,0.03-14.33,1.61-20.94,4.02c-16.93,6.18-33.9,12.49-50.19,20.14c-16.86,7.92-33.64,16.41-49.23,26.54
		c-29.96,19.47-59.05,40.29-88.53,60.51c-8.83,6.05-18.1,7.14-27.37,1.19c-8.45-5.42-12.48-13.73-10-23.25
		c1.51-5.81,5.21-12.43,9.97-15.79c37.74-26.67,75.22-53.85,114.38-78.31c18.39-11.49,40.69-16.55,60.54-25.95
		c27.05-12.8,54.93-17,84.86-16.48c73.33,1.3,146.71,0.33,220.06,0.48c23.89,0.05,44.34-7.81,62.07-23.86
		c76.05-68.86,152.27-137.54,228.39-206.33c13.43-12.13,12.63-17.86-4.05-25.47c-24.24-11.06-48.57-10.27-69.88,5.67
		c-63.32,47.39-125.9,95.77-188.72,143.83c-2.25,1.73-4.11,4.04-5.92,6.27c-14.12,17.32-32.5,26.33-54.66,26.42
		c-67.21,0.29-134.43,0.21-201.64,0.08c-15.57-0.03-25.68-9.43-25.89-23.16c-0.22-14.23,9.96-23.98,26.15-24.02
		c66.13-0.17,132.25-0.02,198.38-0.13c17.3-0.03,27.56-10.89,25.15-26.17c-1.51-9.62-7.69-15.94-16.58-18.12
		c-27.25-6.67-54.44-14.16-82.11-18.37c-42-6.38-83.96-9.86-124.7-25.06c-43.72-16.31-87.03-11-126.06,18.52
		c-35.58,26.91-68.14,56.89-99.14,88.82c-6.32,6.51-14.44,12.1-22.79,15.65c-37.49,15.97-75.28,31.24-113.12,46.38
		c-13.58,5.43-26.45,0-31.57-12.27c-5.19-12.4,0.19-24.74,13.55-31.02c1.63-0.76,3.32-1.4,4.99-2.08
		c33.04-13.55,66.22-26.78,99.03-40.87c7.99-3.43,15.8-8.64,21.92-14.8c34.7-34.9,70.57-68.22,111.66-95.75
		c48.31-32.37,100.98-36.17,153.46-17.99c41.34,14.33,83.55,18.33,125.89,24.66c24.19,3.61,48.34,8.58,71.85,15.24
		C702.74,673.67,711.15,681.36,728.83,709.36z"/>
</g>
</svg>
