<?xml version="1.0" encoding="utf-8"?>
<!-- Generator: Adobe Illustrator 23.1.0, SVG Export Plug-In . SVG Version: 6.00 Build 0)  -->
<svg version="1.1" id="Calque_1" xmlns="http://www.w3.org/2000/svg" xmlns:xlink="http://www.w3.org/1999/xlink" x="0px" y="0px"
	 viewBox="0 0 1125 1042" style="enable-background:new 0 0 1125 1042;" xml:space="preserve">
<style type="text/css">
	.st0{fill:#FFFFFF;}
</style>
<g>
	<g>
		<path class="st0" d="M32.8,807.1c15.5-21.6,41.3-28.7,65.3-34.2c76.6-17.7,121.8-75.4,180.3-116.2c5.3-3.7,7.4-8.8,7.4-14.9
			c-0.1-111.1,0-222.1,0-334.1c-9.9-1.9-17.9-3.1-25.6-5.1c-22.5-6-38.7-17.7-41.2-40.9c-2.5-23.4,8-40.7,29.8-52
			c59.3-30.7,118.7-61.1,178.1-91.5c38.7-19.8,77.3-39.8,116.2-59.3c46.6-23.4,92.9-20.7,138.6,2.4c33.2,16.8,66.4,33.7,106.4,54
			c0-22.4-0.7-39.8,0.2-57.1C790.1,22.3,813,1,847.5,1.7C882.1,2.5,904,24,905.1,59.5c0.8,28.5,2.1,57.1,0,85.5
			c-1.6,21.8,4,36.5,27.1,45c13.3,4.9,25.5,12.4,37.6,19.6c21.2,12.6,35.6,28.7,29.8,54.3c-5.6,24.7-22.2,37.5-48.9,40.4
			c-3.9,0.4-7.8,1.4-13.1,2.4c0,87.7,0,174.9,0,264.8c58.5-18.8,106.9-3.7,147.7,35.8c14.5,14.2,6.4,39.3,0,45.7
			c-15.7,14.7-30.8,30.1-47.4,43.9c-73.2,61.2-147.4,121.4-220.2,182.9c-32.2,27.2-68.8,40.2-112,40.1c-79.3-0.3-158.6,0.1-238-0.2
			c-21-0.1-40.4,4.1-60.1,10.7C337.1,954,279,996.5,218.5,1035.5c-6.8,3.5-14.1,3.9-18.6,0c-22.2-24-21.5-34.1,6.4-52.5
			c33.5-22.1,66.3-45.7,102.1-64.2c55.8-28.9,113.9-51.5,181.1-48.9c71,2.8,142.3,0,213.4,0.9c31.8,0.4,57.8-9.1,81.2-28.7
			c77-64.6,154.6-128.5,231.8-192.7c6.6-5.5,6.1-11.3,7.3-20c-2-20.3-50.1-23.5-78.3-3.6c-73.6,51.8-150.1,100.4-219.3,157.4
			c-11.3,9.3-24.5,16.2-38.6,16.4c-76.3,1.1-152.6,1.1-228.8,0.6c-14.8-0.1-25.9-9.2-26.6-23.3c-0.8-15.9,11.4-23.5,27.2-25.9
			c7-1.1,14.4-0.4,21.6-0.4c61.9,0,123.7-0.1,185.6,0c15.4,0,31.1-1.2,32.9-18.3c1.7-16.3-12.5-22.3-27.6-25.3
			c-6-1.2-12.1-2.3-18.1-3.8c-72.4-18.3-148.5-19.6-220.1-43c-27.3-8.9-57.3-2-83.7,11.3s-52.1,29-71,49.9
			C227.3,778.2,157.5,804.5,86.2,830c-22.3,8-39.3,6.7-53.4-11.5C32.8,814.8,32.8,810.9,32.8,807.1z M318.4,625.9
			c30.2-1.3,38.7-14,37.6-38.8c-2.1-44.6,0-89.4-0.9-134.1c-0.4-20.5,7.3-29.2,30.5-28.7c55.7,1,111.4,1.1,167.1,0
			c23.3-0.4,31.4,8.1,30.6,28.6c-1,24.7-0.2,49.5-0.2,74.2c0,37.7,0,75.4,0,111.3c61,15.5,126,9,165.9,62.7
			c47.9-33.8,93.5-66.2,139.5-98.2c9.4-6.5,11.8-14.5,11.8-24.6c-0.2-90.4-0.4-180.7,0.2-271.1c0.1-14.3-5.6-22.4-18.9-29.2
			c-81.2-41.3-162.1-83.2-242.8-125.3c-19.8-10.3-37.3-10.5-57.8,0.4c-78.7,41.6-157.9,82.4-237.8,122
			c-19.5,9.7-25.4,21.6-25.1,40.8c1,58,0.4,116,0.4,174.1C318.4,535.2,318.4,580.4,318.4,625.9z M612.1,75.3
			c-13.3,0.5-27-0.4-39.2,5.8C471,132.9,369.1,184.8,267.4,236.8c-11.5,5.9-16.4,15.1-9.6,26.2c7.2,11.8,18.8,9.9,29.7,4.9
			c12.9-5.9,25.4-12.6,38-19.1c80-41.2,160.1-82.2,239.9-123.9c30.5-15.9,58.9-16.6,90,0.4c53.1,29.1,107.7,55.9,161.6,83.7
			c37.8,19.4,75.4,39.1,113.4,58.1c11.1,5.6,23.3,9.1,32.4-4.2c9.5-14.1-1.4-20.7-11.8-27.4c-3.4-2.2-7.1-3.9-10.7-5.7
			c-89-45.8-178.1-91.5-267-137.5C654.2,82.6,634.9,73.8,612.1,75.3z M393.3,455.4c0,52,0,101.1,0,152.2
			c53.8-2.8,99.9,24,151.9,26.1c0-60.1,0-118.5,0-178.3C494,455.4,445,455.4,393.3,455.4z M873,158.3c0-30.9,0-56.2,0-81.5
			c0-5.7,0.3-11.4-0.6-17c-2-12.7-6.7-24.7-22.4-27.2c-12.5-2-23.3,3.9-26.4,14.9c-7.5,26.8-7.4,55-0.8,81.1
			C826.8,144.6,851.2,147.4,873,158.3z"/>
		<path class="st0" d="M738.4,602.4c-32,0-64-0.6-95.9,0.2c-20.3,0.5-27.5-7.6-27.3-25.6c0.6-41.8,0.4-83.7,0.1-125.5
			c-0.2-18.8,7.6-27.5,29.4-27.2c62.9,0.8,125.8,0.8,188.7,0c20.8-0.3,30,5.5,29.4,26c-1.2,42.8-0.8,85.6-0.1,128.3
			c0.3,17-6.6,24.3-25.3,23.9C804.5,601.9,771.4,602.4,738.4,602.4z M653,497.9c24.1,0,49.5-1.1,71.6-1.1c0-14,0-25.3,0-39.8
			c-22.3,0-49.4,0-71.1,0C653.6,470.6,653,482,653,497.9z M831.7,496.7c0-16.6-0.8-25-0.8-40.4c-22.4,0.2-43.9,0-72.4,1.1
			c-0.5,14.1-0.1,25-0.1,39.3C780.5,496.7,805.3,496.7,831.7,496.7z M653,569.5c21.8,0,49.5,0,71.6,0c0-14.7,0-26,0-40.4
			c-22.2,0-47.3,0.6-71.6,0.8C653,544.3,653,553.6,653,569.5z M757.9,529.2c0,16.3,0.4,25.9,0.4,40.4c22.4-0.4,49.7-0.7,73.4-0.7
			c0.1-12.8,0-26.9,0-38.9c-6.6-0.4-18-0.5-24.9-0.6C791.7,529,776.6,529.2,757.9,529.2z"/>
		<path class="st0" d="M611.2,184.9c45.6,0.3,78.7,31.6,78.6,74.4c0,44-34.3,75.3-81.6,74.5c-45-0.8-79.9-33.2-79.9-74.5
			C528.3,216.8,564.2,184.6,611.2,184.9z M658,260.4c0.7-23.6-23.3-46.1-49-45.9c-23.3,0.1-44.2,19.7-45.2,42.3
			c-1.2,25.6,19.9,47.2,45.9,47.1C633.9,303.8,657.3,282.7,658,260.4z"/>
		<path class="st0" d="M496.7,578.1c2.6-12.7-6.1-33,17.8-32.7c22.3,0.2,17.9,19.7,17.8,33.1c0,13.3,4.3,32.9-18.1,32.9
			C490.7,611.2,499.3,591,496.7,578.1z"/>
	</g>
</g>
</svg>
