<?xml version="1.0" encoding="utf-8"?>
<!-- Generator: Adobe Illustrator 23.1.0, SVG Export Plug-In . SVG Version: 6.00 Build 0)  -->
<svg version="1.1" id="Calque_1" xmlns="http://www.w3.org/2000/svg" xmlns:xlink="http://www.w3.org/1999/xlink" x="0px" y="0px"
	 viewBox="0 0 1125 1042" style="enable-background:new 0 0 1125 1042;" xml:space="preserve">
<style type="text/css">
	.st0{fill:#FFFFFF;}
</style>
<g>
	<g>
		<path class="st0" d="M319.4,1041.9c-28.5,0.9-53.9-7.8-76.7-24.6c-7.4-5.5-14.3-11.6-20.8-18.1C179.5,956.9,137,914.5,94.6,872
			c-4.2-4.2-8.3-8.4-12.5-12.6c-15-15.5-26.8-33.1-34-53.6c-5.4-15.3-7.9-31.1-7.1-47.4c1.1-19.6,6.5-38,16-55.3
			c7.1-12.9,16-24.4,26.3-34.8c0.5-0.5,0.9-0.9,1.4-1.4c139.8-139.9,279.6-279.7,419.4-419.6c34.1-34.1,68.2-68.1,102.3-102.2
			c27.1-27.1,54.2-54.3,81.3-81.5c7.3-7.3,14.6-14.6,22-21.8c15.2-14.9,32.4-26.7,52.4-34c35.1-12.7,69.2-10,102.3,7
			c14.6,7.5,27.3,17.5,38.9,29c12.5,12.5,25.1,25,37.6,37.5c14.7,14.7,29.5,29.4,44.2,44.1c19.2,19.3,38.4,38.6,57.6,57.9
			c15.5,15.7,27.5,33.8,34.6,54.8c5.3,15.7,7.6,31.9,6.1,48.5c-2.4,28.1-12.6,53.1-30.7,74.8c-4.4,5.3-9.2,10.2-14,15.1
			c-5.9,6.1-12,12.1-18.1,18.1C952.8,462.9,884.7,531,816.7,599c-133,133-265.9,266-398.9,399c-8.7,8.7-17.9,16.8-28.2,23.7
			c-13.8,9.2-28.8,15.5-45.2,18.4c-7.1,1.3-14.3,1.7-21.5,1.7C321.7,1041.9,320.5,1041.9,319.4,1041.9z M204.2,614.8
			c-1.6,1.6-3,2.8-4.2,4c-16.1,16.1-32.2,32.3-48.3,48.4c-10.3,10.3-20.7,20.6-30.9,31c-2.4,2.4-4.8,4.9-7.1,7.5
			c-8.1,9.2-14.7,19.3-19.2,30.7c-4.9,12.6-6.7,25.6-4.7,39.1c1.7,11.4,5.8,21.8,11.8,31.6c5.1,8.5,11.4,16,18.4,23
			c44.3,44.3,88.6,88.6,132.9,132.9c2,2,4,3.9,6.1,5.8c9.4,8.4,19.6,15.4,31.2,20.2c15.7,6.4,31.8,7.6,48.2,3.3
			c10.1-2.6,19.3-7.3,27.9-13.1c7.5-5.1,14.3-11,20.7-17.4c204-204,407.9-407.9,611.9-611.9c3.2-3.2,6.6-6.4,9.8-9.7
			c7.7-7.7,14.1-16.4,18.8-26.3c8.3-17.5,10.7-35.7,6.2-54.6c-3.6-15.2-11.1-28.3-22-39.4c-19.8-20.1-39.5-40.3-59.3-60.3
			c-17.3-17.5-34.8-34.8-52.3-52.1c-12-11.9-24.1-23.7-36.2-35.5c-6.5-6.3-13.8-11.7-21.9-15.7c-19.2-9.5-39-11.9-59.6-5.4
			c-10.7,3.3-19.9,9.1-28.1,16.6c-15.2,13.8-29.5,28.5-43.4,43.6c-17.6,19-35.1,38.1-52.7,57.1c-0.6,0.7-1.2,1.5-2.1,2.5
			c4.2,2.9,8.2,5.7,12.5,8c3.4,1.8,6.3,4.1,9,6.8c14.1,14.4,28.3,28.7,42.4,43.1c9.4,9.6,18.7,19.3,28,29c3.2,3.3,6.3,6.7,8.6,10.7
			c2.1,3.5,3.2,7.2,2.7,11.3c-0.9,6.8-3.8,12.5-9.4,16.6c-3.1,2.2-6.5,3.7-10.1,4.9c-3.5,1.1-6.9,0.9-10.1-0.6
			c-2.4-1.1-4.6-2.5-6.7-4.1c-2.5-1.9-4.8-4-7-6.1c-19.3-18.7-38.6-37.5-57.8-56.2c-10.5-10.2-20.7-20.6-31.8-30.1
			c-1.2-1-2.2-2.4-3.8-2.8c-3.4,2.6-99.7,98.1-103.2,102.3c0.7,0.8,1.3,1.8,2.1,2.6c4.2,4.6,8.4,9.2,12.8,13.6
			c18.4,18.9,36.9,37.7,55.4,56.6c7,7.2,13.9,14.4,20.8,21.6c2.9,3.1,5.7,6.3,7.8,10.1c1.9,3.4,2.8,7,2.3,10.9
			c-1.4,11-10.8,20.3-21.8,21.6c-2.8,0.3-5.6,0.1-8.2-1.2c-2-1.1-4.1-2.2-5.9-3.6c-2.7-2.1-5.3-4.4-7.8-6.8
			c-17.9-17.3-35.8-34.7-53.6-52.1c-12.2-11.9-24.5-23.7-36.8-35.5c-0.8-0.7-1.7-1.3-2.8-2.1c-34.4,34.2-68.5,68.2-102.7,102.2
			c-0.3,0.3-0.4,0.8-0.8,1.5c1.3,1.4,2.6,2.9,3.9,4.3c21,21.5,41.9,42.9,62.9,64.4c7.3,7.5,14.7,15,21.8,22.7
			c3.4,3.7,6.5,7.8,9.3,12c3.1,4.5,3.8,9.6,2.7,15.1c-2,9.7-14.6,18.3-22.2,18.3c-3.5,0-6.8-1.1-9.8-2.8c-4.1-2.4-7.7-5.5-11-9
			c-11.6-12.2-23.3-24.4-34.8-36.8c-16.7-17.9-33.2-35.9-49.8-53.8c-1.2-1.3-2.1-2.9-4-3.6c-1,1-2,1.8-2.9,2.7
			c-7.8,7.7-15.6,15.5-23.4,23.2c-10.3,10.3-20.6,20.6-31,30.9c-16.3,16.2-32.5,32.4-48.8,48.6c-0.7,0.7-1.1,1.5-1.8,2.4
			c4.9,5.3,9.6,10.6,14.5,15.6c19.8,20.3,39.6,40.6,59.5,60.9c5.8,6,11.6,12,17.4,18.1c2.9,3.1,5.7,6.3,7.7,10.2
			c1.5,2.8,2.4,5.8,2.1,9c-0.6,6-2.8,11.4-6.9,15.9c-6.3,6.8-15.5,8.7-23.8,4.7c-2.3-1.1-4.6-2.6-6.6-4.3
			c-6.4-5.4-12.8-10.8-18.8-16.6c-22.9-22.3-45.7-44.7-68.6-67C213.4,623.7,209.1,619.5,204.2,614.8z"/>
	</g>
</g>
</svg>
