<?xml version="1.0" encoding="utf-8"?>
<!-- Generator: Adobe Illustrator 23.1.0, SVG Export Plug-In . SVG Version: 6.00 Build 0)  -->
<svg version="1.1" id="Calque_1" xmlns="http://www.w3.org/2000/svg" xmlns:xlink="http://www.w3.org/1999/xlink" x="0px" y="0px"
	 viewBox="0 0 1125 1042" style="enable-background:new 0 0 1125 1042;" xml:space="preserve">
<style type="text/css">
	.st0{fill:#969696;stroke:#969696;stroke-width:0.6;stroke-miterlimit:10;}
</style>
<g>
	<g>
		<path class="st0" d="M-1408.6,489c62.6-62.6,124.3-124.2,185.9-185.8c62.6-62.5,125-125.2,187.7-187.6
			c20.6-20.5,49.2-20.7,70.8-1.5c2.5,2.2,5,4.5,9.5,8.6c5.9-6.8,11.3-13.9,17.6-20.1c25.7-25,55.4-31.6,88.4-16.9
			c7.9,3.5,11.4,0.2,16-4.5c57.7-57.9,115.5-115.6,173.2-173.4c3-3,5.8-6.3,9.2-8.7c8.3-6,16.9-5.6,24.2,1.5
			c7.4,7.1,8,15.7,2.2,24.2c-2.3,3.5-5.6,6.3-8.6,9.3C-689.7-8.4-747.1,49.2-804.8,106.5c-6.5,6.4-8.5,11.1-4.5,20.4
			c12.7,29.7,6.9,57.3-14.3,81.2c-7,7.8-15.8,14.1-23.8,21.1c2.9,3.7,3.8,5,4.9,6.2c24.6,26.5,24,53.3-1.8,79.2
			c-116.4,116.5-232.8,233-349.2,349.4c-6.6,6.6-13.5,12.7-18.8,17.7c4.3,12,9.2,21.6,11,31.8c4.8,28.5-9,54.9-33.9,67.9
			c-24.4,12.7-52.9,8.7-74.1-10.8c-8.1-7.5-15.7-15.4-23.4-23.2c-7.4-7.5-14.7-15.1-20.9-21.5c-28.6,28.7-56.5,56.7-85.3,85.6
			c1.8,1.9,5.8,6,9.7,10.3c23.6,25.8,23.4,63.5-0.4,88.5c-24.2,25.3-63.6,28.2-89.1,3.8c-40.7-38.9-80.5-78.8-119.5-119.4
			c-24.4-25.4-21.8-64.6,3.7-89.1c24.9-24,62.9-24.4,88.4-0.7c4,3.7,6.8,8.6,9.8,12.5c29.7-30.2,57.5-58.3,87-88.3
			c-14-13.5-30.3-28.2-45.3-44.1c-33.9-35.8-18.2-93.5,28.9-106.8C-1445.5,472.5-1426.5,476.7-1408.6,489z M-1036.8,168.4
			c12.3,11.5,23,21.1,33.2,31.2c10.4,10.3,11.1,22,2.7,30c-8.5,8.1-18.6,7.2-29-3.1c-10.2-10.1-19.9-20.7-29.1-30.3
			c-17.1,17.3-33.1,33.3-49.5,49.9c19,19,39.3,38.8,59.2,59c10.5,10.7,10.6,23.4,0.3,30.6c-10.1,7.2-19,4-27.1-4.2
			c-20-20.1-40-40.1-58.9-59c-13.5,13.5-26.5,26.5-40.9,40.7c9.6,9.1,20.3,18.8,30.4,29c9.9,9.9,10.7,21.1,2.9,29.1
			c-8.5,8.7-19.1,7.9-29.9-2.9c-10.1-10.1-19.7-20.6-28.2-29.4c-17.5,17.5-33.4,33.5-49.8,49.9c19.1,18.9,39.4,38.7,59.2,58.9
			c12,12.3,8.8,30.3-6.3,32.8c-6.6,1.1-15.9-2.7-21-7.4c-20.7-19.2-40.2-39.6-59.8-59.2c-13.6,13.6-26.5,26.4-40.5,40.4
			c10.1,9.8,20.5,19.6,30.6,29.8c10.4,10.5,11.3,21.9,2.9,30c-8.7,8.4-19,7.4-29.9-3.8c-9.9-10.2-19.1-21-27.1-29.9
			c-14.2,13.6-25.7,24.7-35.6,34.2c46.3,46.3,92.8,92.8,141.8,141.8c2.1-3,4.4-7.7,8-11.2c109.7-110,219.6-219.8,329.4-329.7
			c9.9-9.9,19.6-19.9,29.7-29.6c8.4-8.2,8.3-15.9-0.1-23.9c-7.3-7-14.5-14.2-21.6-21.4c-32-32-64.1-64-96-96.2
			c-8.3-8.3-15.7-8.1-23.9,0.2C-1018.6,152.4-1027,159.4-1036.8,168.4z M-1444.7,513.1c-15.4,1.4-23.9,6.9-28.5,17.6
			c-5,11.6-1.4,21.6,7,30c60.3,60.4,120.7,120.9,181.2,181c12.6,12.5,28.2,12.2,39.3,0.5c10.9-11.5,9.9-27-2.5-39.4
			c-59.8-59.8-119.5-119.7-179.6-179.2C-1433,518.4-1440.8,515.5-1444.7,513.1z M-1585.9,725.5c-16.3,0-24.5,6.2-29.1,16.6
			c-5.1,11.4-1.7,21.6,6.8,30.1c37.1,37.2,74.1,74.4,111.4,111.3c12.6,12.5,28.2,12.4,39.4,0.9c10.6-10.9,10.4-26.7-1.3-38.5
			c-37-37.3-74-74.4-111.5-111.1C-1575.2,729.7-1582.8,727.2-1585.9,725.5z M-1419.5,662.1c-28.2,28.2-56.4,56.3-82.7,82.7
			c10.8,11,22.8,23.2,33.5,34.2c27.3-27.3,55.3-55.2,82.5-82.2C-1397.4,685-1409.4,672.6-1419.5,662.1z M-927.6,146.1
			c19.6,19.6,37.9,37.9,56.7,56.7c6-6.1,13.5-13,20.1-20.6c14.6-16.8,13.3-38.9-2.6-54.5c-15.3-14.9-37.4-15.7-53.6-1.4
			C-914.7,132.9-921.6,140.2-927.6,146.1z"/>
		<path class="st0" d="M-639.4,240.3c-52.4-0.4-92.3-51.8-73.6-100.7c15.4-40.3,37.9-78,58.5-116.2c7.1-13.1,23.5-12.8,31.5-0.1
			c23.3,37.3,46.6,74.7,59.5,117.1C-548.4,190.5-587,240.7-639.4,240.3z M-636.1,71c-1.7-0.1-3.4-0.2-5.1-0.3
			c-12,25.6-24.3,51-35.6,76.8c-2.7,6.2-3.4,14.2-2.3,20.9c4,23.8,27.4,38.6,50,32.8c23.5-6.1,37.5-29.2,28.6-52
			C-610.8,122.6-624.1,97-636.1,71z"/>
	</g>
</g>
<g>
	<g>
		<path class="st0" d="M429.4,567c-12.6-17.5-24.3-33.7-36-49.9C374.2,490.4,356,463.3,347,431c-10.2-36.9-10.6-74.5,1.5-110.1
			c13.9-40.8,10.3-80.3,2.2-120.7c-6.1-30-11.7-60.1-18.7-89.9c-4.5-19.4,1.5-33.2,17.3-44.3c34.4-24.3,72.4-40.7,113.2-50.2
			C552.6-5,640.7,0.4,725.6,38.4c16.2,7.2,31.1,17.4,46.4,26.5c18.3,10.8,22.8,27.4,19.1,47.1c-6.4,33.7-12.8,67.3-19.3,101
			c-2.5,12.9-5.3,25.7-7.7,38.6c-2.6,13.8-1.8,27.1,3.2,40.8c21.4,58.8,24,117.5-3.6,175.4c-15.6,32.8-38.6,60-64.9,84.6
			c-2.6,2.4-5.7,4.3-10,7.5c16,8.3,29.3,15.8,43,22.2c87.5,41,131.8,111.1,141.3,205.8c3.5,34.8,10.4,69.3,14,104.1
			c2.2,22,3.5,44.7,0.9,66.6c-2.3,18.5-16.3,32.1-31.6,42.9c-20.3,14.2-44,19-67.8,22.6c-86.4,12.8-173.2,20.1-260.6,17.4
			c-75.2-2.3-149.8-10.4-223.8-24.3c-5-0.9-9.9-2.4-14.8-3.9c-36.9-11.8-56.4-39-53.4-77.8c2.9-37.1,7-74.1,11.8-111
			c4-30.7,8.7-61.4,15.2-91.7c15.7-73.3,62.3-121,129.4-150.6C403.9,577.1,415.8,572.6,429.4,567z M560.2,1002
			c47.3-2.9,94.7-5.1,141.9-9c36.3-3,72.5-8.1,108.6-12.7c29.6-3.8,43.1-18.9,39.7-46.8c-7.2-59.7-13.9-119.6-23.8-178.9
			c-13.4-80-78.8-141.8-159.3-151.1c-67.9-7.9-136.2-9.3-204.2-1.8C388.9,609.8,334.8,648.3,308,719c-10.8,28.6-15.7,59.8-20.4,90.2
			c-6.4,41-11.2,82.4-14.4,123.8c-2.3,29.6,10.2,43.1,39.6,47.2C394.8,991.7,477.1,1000.6,560.2,1002z M552.3,259.5
			c-35.6-1.6-77.4,10.4-119.2,22.2c-22.2,6.2-36.4,20.7-44.2,41.8c-10.4,28.4-11.7,57.7-6.7,87.3c16.1,94.6,110.8,162.7,205,147.5
			c102.2-16.5,167-101.7,157.1-206.7c-4-42.4-20.6-63-61.6-74.8C643,265.4,602.3,260,552.3,259.5z M725.6,249.8
			c8.4-43.5,16.9-85.2,24.3-127.2c2.5-14.6-2.9-28.1-16.1-35.8C718.1,77.7,702,68.6,685,62.6c-67-23.4-135.7-25.1-205-11.9
			c-30.6,5.9-59.8,15.9-86.3,32.9c-18.9,12.1-22.8,21.2-18.7,43c3.1,16.5,6.1,33,9.5,49.4c4.9,24.2,10.1,48.3,15.3,73.5
			C508.5,212.6,616.2,212.6,725.6,249.8z"/>
		<path class="st0" d="M577.6,121.3c5.4,0,9.7-0.1,14.1,0c9.1,0.3,14.3,4.6,14.5,14.1c0.2,9.6-4.6,16-14.3,15.2
			c-12.8-1-15.7,4.6-15.5,15.9c0.1,9.8-6,14.6-15.5,14.3c-9.4-0.3-14.4-5.8-13.9-14.7c0.7-12.4-4.8-16.1-16.3-15.6
			c-9.4,0.4-14-5.9-14-14.7c0-8.8,4.7-15,14.2-14.5c11.6,0.6,17-3.3,16.1-15.7c-0.6-8.4,4.5-13.7,13-14.6c9.1-1,14.7,3.7,16.3,12.5
			C577.1,109,577.1,114.5,577.6,121.3z"/>
	</g>
</g>
</svg>
