<?xml version="1.0" encoding="utf-8"?>
<!-- Generator: Adobe Illustrator 23.1.0, SVG Export Plug-In . SVG Version: 6.00 Build 0)  -->
<svg version="1.1" id="Calque_1" xmlns="http://www.w3.org/2000/svg" xmlns:xlink="http://www.w3.org/1999/xlink" x="0px" y="0px"
	 viewBox="0 0 1125 1042" style="enable-background:new 0 0 1125 1042;" xml:space="preserve">
<style type="text/css">
	.st0{fill:#969696;}
</style>
<g>
	<g>
		<path class="st0" d="M424.03,558.95c-2.73-2.36-5.2-4.65-7.83-6.75c-80.28-64.34-106.64-173.22-65.15-267.4
			c2.57-5.84,3.45-13.49,2.26-19.76c-10.46-54.89-21.54-109.66-32.49-164.45c-2.45-12.24,1.37-21.39,11.36-29.23
			C378.24,35.17,431.08,15.12,488.26,6C572.16-7.37,653.65,0.95,731,37.52c18.67,8.83,35.78,21.1,53.19,32.43
			c11.14,7.25,14.58,17.82,11.83,31.22c-11.23,54.74-22.08,109.55-32.69,164.41c-0.95,4.92-0.44,10.91,1.51,15.51
			c42.67,100.29,18.1,202.77-65.57,272.28c-2.01,1.67-3.9,3.46-4.52,4.01c22.97,11.3,47.3,20.44,68.6,34.26
			C831.73,636,866.38,700.68,873.61,781.39c3.92,43.77,8.8,87.52,15.32,130.97c8.78,58.59-27.96,97.3-73.79,105.66
			c-134.95,24.63-270.3,31.26-406.56,15.33c-36.71-4.29-73.21-10.54-109.68-16.69c-49.06-8.28-78.17-48.22-72-97.65
			c7.02-56.24,11.53-112.94,21.61-168.62c17.35-95.83,75.1-157.98,167.58-187.99c1.83-0.59,3.67-1.18,5.47-1.87
			C422.21,560.29,422.76,559.78,424.03,558.95z M557.82,604.08c0-0.17,0-0.34,0-0.51c-25.07,0-50.14-0.24-75.2,0.04
			c-91.58,1.02-167.8,63.3-183.62,153.54c-9.51,54.21-14.16,109.28-20.97,163.96c-3.52,28.28,6.75,41.71,34.51,46.98
			c66.41,12.6,133.39,19.81,200.91,22.08c99.4,3.34,197.99-4.13,295.63-23.19c22.15-4.32,31.67-18,28.94-39.69
			c-6.7-53.15-13.54-106.29-19.91-159.48c-10.65-88.9-84.21-158.9-173.55-163.51C615.72,602.82,586.74,604.08,557.82,604.08z
			 M557.75,550.84c126.47,0.02,211.8-129.39,160.5-243.86c-2.35-5.24-7.79-10.49-13.07-12.78c-31.33-13.59-64.42-20.81-98.26-24.39
			c-66.93-7.09-132.34-0.9-195.14,24.54c-5.27,2.14-10.66,7.59-13,12.84C347.65,421.92,431.91,550.83,557.75,550.84z M715.4,241.93
			c8.86-44.7,17.61-88.11,25.79-131.62c0.56-3-2.16-8.29-4.91-9.94c-12.85-7.72-25.81-15.55-39.52-21.5
			C638.71,53.7,577.77,47.65,515.43,54.21c-45.72,4.81-89.01,17.78-128.71,41.81c-9.13,5.53-13.03,10.93-9.75,22.1
			c3.89,13.25,5.51,27.17,8.22,40.77c5.48,27.46,11.03,54.9,16.7,83.07C506.62,206.49,610.3,206.46,715.4,241.93z"/>
		<path class="st0" d="M540.83,150.6c-9.59,0-17.63-0.27-25.64,0.07c-8.54,0.37-11.5-3.65-11.79-11.8
			c-0.84-23.04-0.77-23.32,21.99-23.33c4.55,0,9.11,0,15.45,0c0-8.92,0.23-16.87-0.06-24.81c-0.32-8.52,2.62-12.57,11.95-12.7
			c23.58-0.33,23.57-0.68,23.61,23c0.01,4.21,0,8.42,0,14.52c9.14,0,17.45,0.33,25.73-0.09c8.62-0.44,11.44,3.55,11.71,11.71
			c0.74,22.96,0.53,23.42-22.11,23.43c-4.57,0-9.14,0-15.34,0c0,8.8-0.2,16.76,0.05,24.7c0.27,8.51-2.7,12.55-12.06,12.61
			c-23.46,0.13-23.46,0.5-23.5-22.92C540.83,160.76,540.83,156.54,540.83,150.6z"/>
	</g>
</g>
</svg>
