<?xml version="1.0" encoding="utf-8"?>
<!-- Generator: Adobe Illustrator 23.1.0, SVG Export Plug-In . SVG Version: 6.00 Build 0)  -->
<svg version="1.1" id="Calque_1" xmlns="http://www.w3.org/2000/svg" xmlns:xlink="http://www.w3.org/1999/xlink" x="0px" y="0px"
	 viewBox="0 0 1125 1042" style="enable-background:new 0 0 1125 1042;" xml:space="preserve">
<style type="text/css">
	.st0{fill:#969696;stroke:#FFFFFF;stroke-width:0.5;stroke-miterlimit:10;}
</style>
<g>
	<path class="st0" d="M600.38,794.91c-0.53,10.14-0.13,19.69-1.66,28.91c-8.41,50.74-49.16,81.41-104.6,76.13
		c-40.21-3.83-80.05-11.52-120.13-16.89c-25.15-3.38-49.65-8.02-71.51-22.04c-3.09-1.98-7.92-1.44-11.97-1.72
		c-19.35-1.36-38.96-1.06-58.01-4.2c-47.52-7.83-81.83-37.08-111.69-72.59c-4.24-5.05-9.19-9.96-11.82-15.83
		c-7.31-16.35-19.4-20.87-36.49-19.12c-14.31,1.47-28.89,0.47-43.35,0.24c-13.95-0.22-22.76-8.32-22.99-20.6
		c-0.24-12.68,8.91-21.38,23.4-21.51c25.62-0.22,51.24,0.22,76.85-0.2c11.81-0.19,19.32,4.88,24.74,14.99
		c15.22,28.4,35.46,52.65,61.45,71.91c21.85,16.18,46.04,25.19,74.32,24.04c-4.36-26.62-3.7-52.13,10.08-75.73
		c14.18-24.26,37.04-35.38,63.84-41.11c-2.77-26.32-0.1-51.36,13.45-74.23c13.91-23.51,36.05-35.4,61.59-41.76
		c-18.73-70.98,7.53-124.82,82.7-139.5c-3.55-8.84-7.03-17.53-11.1-27.7c-25.69,28.56-57.23,45.67-92,57.36
		c-18.36,6.17-32.8-4.16-31.47-22.22c0.73-9.93,7.04-14.75,15.51-18.81c18.9-9.06,38.29-17.6,55.74-29.01
		c17.11-11.19,30.3-26.41,31.38-49.18c0.48-10.03,8.05-16.27,18.08-17.59c9.94-1.3,18.17,2.83,22.57,11.85
		c4.51,9.23,7.81,19.06,11.59,28.65c16.32,41.41,32.75,82.79,48.86,124.28c11.56,29.76,34.18,43.54,64.95,44.73
		c11.86,0.46,23.91-1.06,35.72-2.73c12.7-1.79,15.29-6.02,12.7-18.75c-8.39-41.21-17.11-82.35-25.4-123.58
		c-5.85-29.1-11.48-58.25-16.7-87.46c-11.31-63.3-54.73-104.63-120.47-113.63c-77.83-10.64-152.06,4.64-224.16,32.78
		c-47.76,18.64-94.29,39.93-134.23,73.06c-22.71,18.83-40.85,40.57-46.72,70.79c-2.12,10.88-10.4,16.53-21.76,16.57
		c-20.66,0.09-41.32,0.25-61.97-0.05c-13.69-0.2-22.55-8.92-22.46-21.19c0.09-12.16,9.03-20.63,22.79-20.96
		c12.39-0.3,24.8,0.27,37.18-0.31c3.3-0.16,8.37-2.35,9.42-4.91c19.13-46.89,55.75-77.37,97.64-101.87
		c78.41-45.85,161.91-78.36,252.98-87.71c47.97-4.93,95.86-3.45,141.71,14.17c62.01,23.83,97.06,70.13,110.28,134.18
		c1.16,5.64,2.2,11.31,3.59,18.48c4.8,0,9.64,0,14.48,0c107.83,0,215.67-0.13,323.5,0.06c46.63,0.08,85.22,26.85,99.29,68.05
		c20.14,58.99-24.19,124.25-87.24,125.74c-65.24,1.55-130.55,0.52-195.83,0.61c-4.85,0.01-9.71,0-14.55,0
		c-0.21,74.78-16.18,96.9-84.64,118.92c4.43,11.69,10.26,23.08,13,35.17c6.33,27.95,1.35,55.25-10.4,80.84
		c-14.67,31.96-42.23,45.48-75.89,46.47c-18.04,0.53-36.17-2.24-54.26-3.53C607.13,795.47,603.98,795.19,600.38,794.91z
		 M690.9,366.43c5.41,25.97,10.66,51.17,15.96,76.56c3.34,0.37,5.74,0.79,8.16,0.88c30.18,1.25,57.68,9.4,80.41,30.46
		c2.14,1.99,5.81,3.29,8.77,3.3c75.18,0.12,150.37,0.64,225.55-0.34c28.34-0.37,49.37-25.5,48.46-53.84
		c-1.13-35.54-23.25-57.66-58.91-57.74c-105.76-0.22-211.51-0.09-317.27-0.06C698.81,365.66,695.59,366.09,690.9,366.43z
		 M449.03,626.55c-47.85-0.94-71.09,21.88-67.32,62.95c0.67,7.25,2.45,12.26,11.16,13.37c23.32,2.99,46.58,6.61,69.8,10.31
		c36.53,5.84,74.36,7.74,104.61,33.36c1.16,0.98,3.01,1.36,4.6,1.58c28.14,3.86,56.22,8.55,84.48,11.07
		c14.58,1.3,30.29-2.07,38.06-16.16c21.84-39.59,20.16-78.7-30.37-94.65c-3.91-1.23-7.97-2.26-12.04-2.7
		c-18.88-2.03-37.78-3.9-56.68-5.67C545.59,635.39,495.84,630.85,449.03,626.55z M368.09,742.53c-8.42,0.83-13.78,1.12-19.06,1.93
		c-27.39,4.18-39.26,15.81-42.64,41.58c-2.99,22.77,6.76,38.54,31.1,48.65c7.9,3.28,16.43,5.52,24.89,6.93
		c25.61,4.27,51.29,8.14,77.01,11.7c22.01,3.05,44.07,7.22,66.18,7.7c26.44,0.57,42.22-12.07,47.36-33.18
		c6.58-26.97-2.7-47.82-28.6-58.01c-14.34-5.63-30.11-8.08-45.47-10.57C441.05,753.11,403.1,747.76,368.09,742.53z M716.78,487.86
		c2.28,11.25,4.58,21.69,6.49,32.2c5.51,30.3-10.59,57.66-39.35,63.27c-19.28,3.76-39.31,5.98-58.89,5.39
		c-47.49-1.44-83.83-29.54-99.5-74.23c-2.32-6.61-5.1-13.09-6.85-19.84c-1.74-6.7-5.52-7.8-11.84-7.24
		c-40.36,3.57-61.19,33.66-51.32,74.6c4.19,17.35,8.32,20.52,25.82,22.1c50.14,4.53,100.18,10.73,150.41,13.59
		c33.62,1.91,67.8,1.86,101.16-2.08c33.08-3.91,49.89-31.25,44.96-64.02C773.72,504.1,749.24,486.05,716.78,487.86z"/>
	<path class="st0" d="M963.06,672.64c5.72-35.96,17.56-74.95,38.34-110.54c12.14-20.77,33.09-20.74,45.17,0.13
		c20.64,35.65,34.25,74.38,38.15,115.42c3.14,33.13-26.29,61.85-60.23,62.24C990.13,740.29,961.77,711.54,963.06,672.64z"/>
	<path class="st0" d="M1023.68,445.24c-11.92-0.15-22.02-10.35-22.04-22.27c-0.04-12.48,10.6-22.66,23.19-22.2
		c12.08,0.44,21.62,10.61,21.32,22.72C1045.83,435.53,1035.65,445.39,1023.68,445.24z"/>
</g>
</svg>
