<?xml version="1.0" encoding="utf-8"?>
<!-- Generator: Adobe Illustrator 23.1.0, SVG Export Plug-In . SVG Version: 6.00 Build 0)  -->
<svg version="1.1" id="Calque_1" xmlns="http://www.w3.org/2000/svg" xmlns:xlink="http://www.w3.org/1999/xlink" x="0px" y="0px"
	 viewBox="0 0 1125 1042" style="enable-background:new 0 0 1125 1042;" xml:space="preserve">
<style type="text/css">
	.st0{fill:#969696;stroke:#969696;stroke-width:0.6;stroke-miterlimit:10;}
	.st1{fill:#FFFFFF;stroke:#FFFFFF;stroke-width:0.15;stroke-miterlimit:10;}
</style>
<g>
	<g>
		<path class="st0" d="M-1408.6,489c62.6-62.6,124.3-124.2,185.9-185.8c62.6-62.5,125-125.2,187.7-187.6
			c20.6-20.5,49.2-20.7,70.8-1.5c2.5,2.2,5,4.5,9.5,8.6c5.9-6.8,11.3-13.9,17.6-20.1c25.7-25,55.4-31.6,88.4-16.9
			c7.9,3.5,11.4,0.2,16-4.5C-775,23.3-717.2-34.4-659.5-92.2c3-3,5.8-6.3,9.2-8.7c8.3-6,16.9-5.6,24.2,1.5c7.4,7.1,8,15.7,2.2,24.2
			c-2.3,3.5-5.6,6.3-8.6,9.3C-689.7-8.4-747.1,49.2-804.8,106.5c-6.5,6.4-8.5,11.1-4.5,20.4c12.7,29.7,6.9,57.3-14.3,81.2
			c-7,7.8-15.8,14.1-23.8,21.1c2.9,3.7,3.8,5,4.9,6.2c24.6,26.5,24,53.3-1.8,79.2c-116.4,116.5-232.8,233-349.2,349.4
			c-6.6,6.6-13.5,12.7-18.8,17.7c4.3,12,9.2,21.6,11,31.8c4.8,28.5-9,54.9-33.9,67.9c-24.4,12.7-52.9,8.7-74.1-10.8
			c-8.1-7.5-15.7-15.4-23.4-23.2c-7.4-7.5-14.7-15.1-20.9-21.5c-28.6,28.7-56.5,56.7-85.3,85.6c1.8,1.9,5.8,6,9.7,10.3
			c23.6,25.8,23.4,63.5-0.4,88.5c-24.2,25.3-63.6,28.2-89.1,3.8c-40.7-38.9-80.5-78.8-119.5-119.4c-24.4-25.4-21.8-64.6,3.7-89.1
			c24.9-24,62.9-24.4,88.4-0.7c4,3.7,6.8,8.6,9.8,12.5c29.7-30.2,57.5-58.3,87-88.3c-14-13.5-30.3-28.2-45.3-44.1
			c-33.9-35.8-18.2-93.5,28.9-106.8C-1445.5,472.5-1426.5,476.7-1408.6,489z M-1036.8,168.4c12.3,11.5,23,21.1,33.2,31.2
			c10.4,10.3,11.1,22,2.7,30c-8.5,8.1-18.6,7.2-29-3.1c-10.2-10.1-19.9-20.7-29.1-30.3c-17.1,17.3-33.1,33.3-49.5,49.9
			c19,19,39.3,38.8,59.2,59c10.5,10.7,10.6,23.4,0.3,30.6c-10.1,7.2-19,4-27.1-4.2c-20-20.1-40-40.1-58.9-59
			c-13.5,13.5-26.5,26.5-40.9,40.7c9.6,9.1,20.3,18.8,30.4,29c9.9,9.9,10.7,21.1,2.9,29.1c-8.5,8.7-19.1,7.9-29.9-2.9
			c-10.1-10.1-19.7-20.6-28.2-29.4c-17.5,17.5-33.4,33.5-49.8,49.9c19.1,18.9,39.4,38.7,59.2,58.9c12,12.3,8.8,30.3-6.3,32.8
			c-6.6,1.1-15.9-2.7-21-7.4c-20.7-19.2-40.2-39.6-59.8-59.2c-13.6,13.6-26.5,26.4-40.5,40.4c10.1,9.8,20.5,19.6,30.6,29.8
			c10.4,10.5,11.3,21.9,2.9,30c-8.7,8.4-19,7.4-29.9-3.8c-9.9-10.2-19.1-21-27.1-29.9c-14.2,13.6-25.7,24.7-35.6,34.2
			c46.3,46.3,92.8,92.8,141.8,141.8c2.1-3,4.4-7.7,8-11.2c109.7-110,219.6-219.8,329.4-329.7c9.9-9.9,19.6-19.9,29.7-29.6
			c8.4-8.2,8.3-15.9-0.1-23.9c-7.3-7-14.5-14.2-21.6-21.4c-32-32-64.1-64-96-96.2c-8.3-8.3-15.7-8.1-23.9,0.2
			C-1018.6,152.4-1027,159.4-1036.8,168.4z M-1444.7,513.1c-15.4,1.4-23.9,6.9-28.5,17.6c-5,11.6-1.4,21.6,7,30
			c60.3,60.4,120.7,120.9,181.2,181c12.6,12.5,28.2,12.2,39.3,0.5c10.9-11.5,9.9-27-2.5-39.4c-59.8-59.8-119.5-119.7-179.6-179.2
			C-1433,518.4-1440.8,515.5-1444.7,513.1z M-1585.9,725.5c-16.3,0-24.5,6.2-29.1,16.6c-5.1,11.4-1.7,21.6,6.8,30.1
			c37.1,37.2,74.1,74.4,111.4,111.3c12.6,12.5,28.2,12.4,39.4,0.9c10.6-10.9,10.4-26.7-1.3-38.5c-37-37.3-74-74.4-111.5-111.1
			C-1575.2,729.7-1582.8,727.2-1585.9,725.5z M-1419.5,662.1c-28.2,28.2-56.4,56.3-82.7,82.7c10.8,11,22.8,23.2,33.5,34.2
			c27.3-27.3,55.3-55.2,82.5-82.2C-1397.4,685-1409.4,672.6-1419.5,662.1z M-927.6,146.1c19.6,19.6,37.9,37.9,56.7,56.7
			c6-6.1,13.5-13,20.1-20.6c14.6-16.8,13.3-38.9-2.6-54.5c-15.3-14.9-37.4-15.7-53.6-1.4C-914.7,132.9-921.6,140.2-927.6,146.1z"/>
		<path class="st0" d="M-639.4,240.3c-52.4-0.4-92.3-51.8-73.6-100.7c15.4-40.3,37.9-78,58.5-116.2c7.1-13.1,23.5-12.8,31.5-0.1
			c23.3,37.3,46.6,74.7,59.5,117.1C-548.4,190.5-587,240.7-639.4,240.3z M-636.1,71c-1.7-0.1-3.4-0.2-5.1-0.3
			c-12,25.6-24.3,51-35.6,76.8c-2.7,6.2-3.4,14.2-2.3,20.9c4,23.8,27.4,38.6,50,32.8c23.5-6.1,37.5-29.2,28.6-52
			C-610.8,122.6-624.1,97-636.1,71z"/>
	</g>
</g>
<g>
	<path class="st1" d="M598,795.3c-0.5,10.2-0.1,19.8-1.7,29c-8.4,51-49.4,81.8-105.1,76.5c-40.4-3.8-80.4-11.6-120.7-17
		c-25.3-3.4-49.9-8.1-71.8-22.1c-3.1-2-8-1.4-12-1.7c-19.4-1.4-39.1-1.1-58.3-4.2c-47.7-7.9-82.2-37.2-112.2-72.9
		c-4.3-5.1-9.2-10-11.9-15.9c-7.3-16.4-19.5-21-36.7-19.2c-14.4,1.5-29,0.5-43.5,0.2c-14-0.2-22.9-8.4-23.1-20.7
		c-0.2-12.7,8.9-21.5,23.5-21.6c25.7-0.2,51.5,0.2,77.2-0.2c11.9-0.2,19.4,4.9,24.9,15.1c15.3,28.5,35.6,52.9,61.7,72.2
		c21.9,16.3,46.2,25.3,74.7,24.1c-4.4-26.7-3.7-52.4,10.1-76.1c14.2-24.4,37.2-35.5,64.1-41.3c-2.8-26.4-0.1-51.6,13.5-74.6
		c14-23.6,36.2-35.6,61.9-41.9c-18.8-71.3,7.6-125.4,83.1-140.1c-3.6-8.9-7.1-17.6-11.2-27.8c-25.8,28.7-57.5,45.9-92.4,57.6
		c-18.4,6.2-33-4.2-31.6-22.3c0.7-10,7.1-14.8,15.6-18.9c19-9.1,38.5-17.7,56-29.1c17.2-11.2,30.4-26.5,31.5-49.4
		c0.5-10.1,8.1-16.3,18.2-17.7c10-1.3,18.2,2.8,22.7,11.9c4.5,9.3,7.8,19.1,11.6,28.8c16.4,41.6,32.9,83.2,49.1,124.8
		c11.6,29.9,34.3,43.7,65.2,44.9c11.9,0.5,24-1.1,35.9-2.7c12.8-1.8,15.4-6,12.8-18.8c-8.4-41.4-17.2-82.7-25.5-124.1
		c-5.9-29.2-11.5-58.5-16.8-87.9c-11.4-63.6-55-105.1-121-114.1c-78.2-10.7-152.7,4.7-225.2,32.9c-48,18.7-94.7,40.1-134.8,73.4
		c-22.8,18.9-41,40.8-46.9,71.1c-2.1,10.9-10.4,16.6-21.9,16.6c-20.8,0.1-41.5,0.2-62.2-0.1c-13.8-0.2-22.7-9-22.6-21.3
		c0.1-12.2,9.1-20.7,22.9-21.1c12.4-0.3,24.9,0.3,37.3-0.3c3.3-0.2,8.4-2.4,9.5-4.9c19.2-47.1,56-77.7,98.1-102.3
		c78.8-46.1,162.6-78.7,254.1-88.1c48.2-4.9,96.3-3.5,142.3,14.2c62.3,23.9,97.5,70.4,110.8,134.8c1.2,5.7,2.2,11.4,3.6,18.6
		c4.8,0,9.7,0,14.5,0c108.3,0,216.6-0.1,325,0.1c46.8,0.1,85.6,27,99.7,68.4c20.2,59.3-24.3,124.8-87.6,126.3
		c-65.5,1.6-131.1,0.5-196.7,0.6c-4.9,0-9.8,0-14.6,0c-0.2,75.1-16.3,97.3-85,119.4c4.4,11.7,10.3,23.2,13.1,35.3
		c6.4,28.1,1.4,55.5-10.4,81.2c-14.7,32.1-42.4,45.7-76.2,46.7c-18.1,0.5-36.3-2.2-54.5-3.5C604.8,795.9,601.6,795.6,598,795.3z
		 M689,364.9c5.4,26.1,10.7,51.4,16,76.9c3.4,0.4,5.8,0.8,8.2,0.9c30.3,1.3,57.9,9.4,80.8,30.6c2.2,2,5.8,3.3,8.8,3.3
		c75.5,0.1,151,0.6,226.6-0.3c28.5-0.4,49.6-25.6,48.7-54.1c-1.1-35.7-23.4-57.9-59.2-58c-106.2-0.2-212.5-0.1-318.7-0.1
		C696.9,364.1,693.7,364.6,689,364.9z M446,626.2c-48.1-0.9-71.4,22-67.6,63.2c0.7,7.3,2.5,12.3,11.2,13.4
		c23.4,3,46.8,6.6,70.1,10.4c36.7,5.9,74.7,7.8,105.1,33.5c1.2,1,3,1.4,4.6,1.6c28.3,3.9,56.5,8.6,84.9,11.1
		c14.6,1.3,30.4-2.1,38.2-16.2c21.9-39.8,20.2-79.1-30.5-95.1c-3.9-1.2-8-2.3-12.1-2.7c-19-2-37.9-3.9-56.9-5.7
		C543,635.1,493,630.5,446,626.2z M364.7,742.7c-8.5,0.8-13.8,1.1-19.1,1.9c-27.5,4.2-39.4,15.9-42.8,41.8
		c-3,22.9,6.8,38.7,31.2,48.9c7.9,3.3,16.5,5.5,25,7c25.7,4.3,51.5,8.2,77.4,11.8c22.1,3.1,44.3,7.3,66.5,7.7
		c26.6,0.6,42.4-12.1,47.6-33.3c6.6-27.1-2.7-48-28.7-58.3c-14.4-5.7-30.2-8.1-45.7-10.6C438,753.3,399.9,747.9,364.7,742.7z
		 M714.9,486.9c2.3,11.3,4.6,21.8,6.5,32.3c5.5,30.4-10.6,57.9-39.5,63.6c-19.4,3.8-39.5,6-59.2,5.4c-47.7-1.4-84.2-29.7-99.9-74.6
		c-2.3-6.6-5.1-13.2-6.9-19.9c-1.7-6.7-5.5-7.8-11.9-7.3c-40.5,3.6-61.5,33.8-51.5,74.9c4.2,17.4,8.4,20.6,25.9,22.2
		c50.4,4.6,100.6,10.8,151.1,13.7c33.8,1.9,68.1,1.9,101.6-2.1c33.2-3.9,50.1-31.4,45.2-64.3C772.1,503.2,747.6,485.1,714.9,486.9z"
		/>
	<path class="st1" d="M962.3,672.5c5.7-36.1,17.6-75.3,38.5-111c12.2-20.9,33.2-20.8,45.4,0.1c20.7,35.8,34.4,74.7,38.3,115.9
		c3.2,33.3-26.4,62.1-60.5,62.5C989.5,740.4,961,711.6,962.3,672.5z"/>
	<path class="st1" d="M1023.2,444.1c-12-0.2-22.1-10.4-22.1-22.4c0-12.5,10.6-22.8,23.3-22.3c12.1,0.4,21.7,10.7,21.4,22.8
		C1045.5,434.3,1035.3,444.2,1023.2,444.1z"/>
</g>
</svg>
