<?xml version="1.0" encoding="utf-8"?>
<!-- Generator: Adobe Illustrator 23.1.0, SVG Export Plug-In . SVG Version: 6.00 Build 0)  -->
<svg version="1.1" xmlns="http://www.w3.org/2000/svg" xmlns:xlink="http://www.w3.org/1999/xlink" x="0px" y="0px"
	 viewBox="0 0 1125 1042" style="enable-background:new 0 0 1125 1042;" xml:space="preserve">
<style type="text/css">
	.st0{fill:#FFFFFF;}
	.st1{display:none;fill:#FFFFFF;}
</style>
<g id="Calque_2">
</g>
<g id="Calque_1">
	<g>
		<path class="st0" d="M145.1,661c2.8-21.7,9.8-37.1,15.9-55.3c17.3-52,50.1-94.5,84.4-136c28.2-34.2,56.4-68.4,84.7-102.4
			c25.8-30.9,60.3-38.8,93.1-21.6c30.8,16.2,43.7,51,32.8,88.4c-0.5,1.6-0.7,3.2-1.1,4.7c10.2,5.8,20.2,11.4,29.4,16.6
			c8.6-4.5,16.7-10.1,25.7-13.2c59.6-20.5,119.3-40.7,179.1-60.4c10.9-3.6,22.5-6,34-6.9c22.2-1.8,29.6,4.1,35.8,26.8
			c39.4-1.2,69.1,14.3,83,54.4c37.6-17.7,72.1-18.5,100.1,15.1c21.4,25.6,21,55.5,0.7,91c45.9,50.4,33.8,103.7-33.1,137.2
			c6.6,15.5,16.3,30.4,19,46.4c5.6,33.8-10.6,58.5-39.4,75.7c-80.8,48.1-161.5,96.4-242.2,144.7c-19.5,11.7-39.3,22.7-58,35.5
			c-86.4,59.1-186,43.5-258.1-29.1c-23.4-23.6-41.1-52.8-62.1-80.4c-24.8,9.7-27.4,9.2-49.8-14c-40-41.1-64.8-87.2-73-144.2
			c-0.5-3.5-0.9-6.8-1-9.8C145.1,703.1,143.2,681.6,145.1,661z M308.5,790.6c-2.2,77.5,32.8,130.2,91,169.6
			c47.1,31.9,96.6,34.1,145.4,5.2C650.7,902.9,755.7,839.3,861,776c15.5-9.3,19.5-20,12-31c-9.1-13.4-20.4-10.1-32-3.4
			c-28.7,16.6-57.5,33.2-86.2,49.9c-24.9,14.4-49.4,29.5-74.6,43.3c-19.7,10.8-39,2.3-41.9-18c-2.2-15.2,7.8-23.1,19.3-29.9
			c60.7-36.4,121.5-72.8,182.2-109.2c22.3-13.4,44.6-26.8,66.7-40.4c9.9-6.1,13.2-15.4,7.5-25.6c-5.9-10.7-15.4-13.8-26.8-8.1
			c-4.9,2.5-9.8,5.1-14.6,7.9c-75.7,44.8-151.4,89.6-227.1,134.4c-23.6,13.9-38.4,12.8-47.7-3c-9.4-16-3.3-28.4,20.9-42.9
			c90.1-54.1,180.3-108.1,270.4-162.2c15.8-9.5,20-19.4,13.6-30.7s-17.8-12.7-33.3-4.2c-2.4,1.3-4.7,2.8-7.1,4.2
			C774.1,559.1,686,611,597.8,662.9c-6.2,3.6-12.5,7.3-19.2,9.7c-13.2,4.6-24.2,0.8-31-11.7c-6.7-12.3-4.5-23.7,6.4-32.7
			c5.1-4.2,11-7.4,16.7-10.8c65.5-39.3,131-78.5,196.5-117.8c5.2-3.1,12.6-5.4,14.8-10.1c3.6-7.5,7.1-17.7,4.7-24.8
			c-3.2-9.5-13.4-12.6-23.7-7.7c-5,2.4-9.8,5.2-14.5,8c-91,54.7-182.1,109.4-273,164.3c-13,7.9-25.9,13.8-39.7,2.8
			c-13.3-10.6-10-24.1-5.6-38c8.1-25.3,16.1-50.6,23.1-76.2c4.5-16.5-7.5-31-21.2-25.7c-6.4,2.5-12.4,9.4-15.7,15.8
			c-25.7,49.6-50.6,99.6-76.1,149.3C318,700.7,309,747,308.5,790.6z M402.9,440.5c0.3-4.3-0.2-12.7,1.9-20.4
			c2.9-11,4.6-21.2-7.3-27.4c-11.9-6.2-19.9,0.8-26.9,9.4c-38.5,47.2-77.8,93.7-115.2,141.6c-40.5,51.9-60.8,111-56.6,177.6
			c2.9,47.7,24.6,85.6,58.5,119.2c0.8-2.9,1.3-3.9,1.2-4.9c-0.1-3.3-0.4-6.6-0.8-9.9c-7.6-66.7,4.9-130,34.2-189.9
			c25.5-52.1,51.8-103.9,79.1-155C378.2,467,390.3,456,402.9,440.5z M509.3,498.1c-2.9,17.5-5.7,34.7-8.9,53.8
			c61.2-36.5,121.1-72.2,181.1-108c-0.5-1-0.9-2.1-1.4-3.1C622.9,459.9,565.6,479.2,509.3,498.1z"/>
		<path class="st0" d="M986.1,291.9c-1.7,6.8-3.4,13.7-5.2,20.5c-15.4,58.6-70.3,93.4-129.2,82c-57.2-11.2-94.8-66.8-87-128.2
			c3.8-30.2,13.7-58.2,31.2-82.9c17.9-25.2,36.5-50,55.6-74.3c15.1-19.1,30.1-18.7,47.1-0.8c44.2,46.6,75.6,100,87.5,163.8
			C986.1,278.6,986.1,285.3,986.1,291.9z M872.8,159.5c-15.2,25.3-31.3,47.8-42.8,72.5c-7.8,16.5-12.2,35.9-12.8,54.2
			c-1.2,34.5,27.7,59.7,61.3,57.1c33.9-2.7,57.3-33.1,52.8-67.4C925.4,231.7,902.7,196.4,872.8,159.5z"/>
		<path class="st0" d="M779.4,111.8c0.3,39.6-34.2,72.2-73.2,69c-41.4-3.3-69.8-38.8-64-78.8c5.3-36.3,23.9-65,49.8-89.6
			c11.3-10.7,27.2-9.7,40.5,1.2C755.5,32.7,779.1,82.1,779.4,111.8z M712.7,75.2c-1.7-0.3-3.5-0.5-5.2-0.8
			c-4.2,11-9.8,21.7-11.9,33.1c-1,5.4,3.4,13.7,7.9,17.6c3.1,2.6,13.1,2,15.8-1c4-4.4,7-12.8,5.7-18.4
			C722.7,95.2,717,85.4,712.7,75.2z"/>
		<path class="st1" d="M712.7,75.2c4.3,10.1,10,19.9,12.3,30.5c1.3,5.7-1.7,14-5.7,18.4c-2.8,3-12.8,3.7-15.8,1
			c-4.6-3.9-8.9-12.2-7.9-17.6c2.1-11.4,7.7-22.1,11.9-33.1C709.2,74.7,710.9,75,712.7,75.2z"/>
		<path class="st0" d="M923.9,285.9c-0.3,26.6-24.9,52.2-46.4,51.3c-5.8-0.3-14.8,0-16.9-11.7c0-6.3,7.9-13.6,13.4-15.1
			c13.3-3.7,20.5-10.5,24.4-23.7c1.7-5.5,6.9-13.7,14.4-13.7C920.8,273,923.9,279.9,923.9,285.9z"/>
	</g>
</g>
</svg>
