<?xml version="1.0" encoding="utf-8"?>
<!-- Generator: Adobe Illustrator 23.1.0, SVG Export Plug-In . SVG Version: 6.00 Build 0)  -->
<svg version="1.1" id="Calque_1" xmlns="http://www.w3.org/2000/svg" xmlns:xlink="http://www.w3.org/1999/xlink" x="0px" y="0px"
	 viewBox="0 0 1125 1042" style="enable-background:new 0 0 1125 1042;" xml:space="preserve">
<style type="text/css">
	.st0{fill:#969696;}
</style>
<g>
	<g>
		<g>
			<path class="st0" d="M476.28,584.51c44.3-26.97,85.24-51.89,126.19-76.81c46.33-28.19,93.56-55.01,138.76-84.91
				c48.98-32.4,102.55,2.86,100.99,48.82c-0.02,0.66,0.73,1.35,1.75,3.12c7.08-4.05,14.18-8.1,21.26-12.18
				c29.8-17.16,63.67-11.47,83.1,13.98c20.09,26.31,16.69,60.01-8.55,84.67c-0.89,0.87-1.69,1.83-0.94,1.01
				c9.61,11.09,21.13,20.67,27.85,32.89c15.25,27.76,5.23,61.18-21.9,78.89c-15.67,10.23-31.88,19.66-48.74,30
				c16.02,8.76,27.69,20,33.58,36.54c10.28,28.88-0.42,58.11-28.44,75.28c-50.51,30.96-101.18,61.63-151.82,92.37
				c-57.06,34.64-114.92,68.01-171.02,104.12c-66.68,42.92-146.92,39.43-214.94-11.21c-72.88-54.27-103.4-127.16-99.73-216.38
				c2.11-51.28,15.3-99.44,38.46-145.16c26.39-52.07,51.78-104.64,78.46-156.56c21.78-42.39,79.65-45.4,105.08-5.99
				c9.5,14.71,12.57,30.84,7.85,47.91C488.34,543.68,482.72,562.33,476.28,584.51z M291.75,808.5
				c-2.49,65.67,28.7,126.73,91.65,172.31c57.78,41.84,119.15,44.66,179.93,7.46c9.61-5.88,19.25-11.7,28.88-17.54
				c96.28-58.45,192.58-116.87,288.81-175.42c5.65-3.44,11.47-7.17,15.87-11.99c11.09-12.14,10.98-31.05,0.59-43.68
				c-10.61-12.91-28.36-16.21-44.18-7.11c-34.71,19.97-69.16,40.4-103.66,60.72c-21.92,12.91-43.8,25.91-65.61,39.01
				c-8.53,5.12-17.06,6.8-22.79-2.92c-5.82-9.86,0.14-16.44,8.7-21.23c1.09-0.61,2.13-1.32,3.2-1.97
				c56.33-34.21,112.67-68.43,169-102.64c28.88-17.54,57.89-34.88,86.58-52.73c15.22-9.47,20.55-25.5,14.81-41.17
				c-5.44-14.84-20.86-24.37-36.9-21.42c-6.74,1.24-13.38,4.63-19.37,8.21c-83.09,49.63-166.07,99.43-249.02,149.27
				c-8.42,5.06-16.8,7.31-22.86-2.36c-6.1-9.74-0.42-16.25,8.03-21.4c43.08-26.26,86.02-52.77,129.16-78.94
				c53.5-32.46,107.14-64.68,160.7-97.03c2.85-1.72,5.7-3.54,8.22-5.7c12.8-10.94,15.77-28.74,7.35-43.1
				c-8.57-14.61-26.56-20.72-42.38-14.04c-4.97,2.1-9.62,5-14.27,7.77C777.24,547.48,682.33,604.15,587.4,660.8
				c-12.06,7.2-20.36,6.68-24.77-2.09c-5.71-11.33,1.98-16.75,10.33-21.76c14.3-8.6,28.52-17.34,42.78-26
				c59.19-35.95,118.34-71.96,177.62-107.77c10.49-6.34,18.71-14.03,20.36-26.8c1.75-13.57-2.49-24.92-13.96-32.67
				c-13.31-9-26.51-7.23-39.85,0.92c-97.21,59.33-194.52,118.52-291.84,177.68c-7.36,4.48-14.85,10.87-23.96,4.14
				c-9.24-6.82-5.09-15.6-2.58-23.95c7.81-25.95,15.74-51.85,23.42-77.84c6.33-21.44-0.21-37.75-17.65-44.89
				c-17.24-7.06-34.25,0.46-44.02,19.94c-26.74,53.3-53.54,106.56-79.86,160.07C302.28,702.73,291.34,748.23,291.75,808.5z"/>
			<path class="st0" d="M148.96,689.09c0.73-47.6,23.5-113.82,68.23-171.67c39.06-50.52,80.02-99.57,120.47-149.01
				c15.5-18.95,35.78-27.08,60.15-21.9c23.68,5.04,39.19,19.73,46.06,42.88c4.29,14.48,3.15,28.91-3.49,42.68
				c-3.88,8.05-9.81,13.19-18.94,9.24c-8.73-3.77-10.27-10.81-6.93-19.79c7.25-19.46,2.72-34.95-12.08-43.74
				c-15.31-9.08-31.83-5.32-45.12,11.03c-40.01,49.25-81.18,97.64-119.36,148.28c-47.59,63.11-69.61,134.73-57.86,214.03
				c6.94,46.86,34.29,83.44,66.58,116.52c2.33,2.39,5.05,4.41,7.26,6.89c5.79,6.49,6.87,13.8,0.61,20.15
				c-6.24,6.34-13.73,5.71-20.1-0.32C182.85,845.54,147.62,788.86,148.96,689.09z"/>
			<path class="st0" d="M987.17,271.77c0.53,59.28-44.75,105.55-101.23,105.19c-56.22-0.36-100.55-45.95-100.28-103.2
				c0.16-33.49,10.37-64.59,27.84-92.25c17.94-28.4,39.16-54.79,59.83-81.37c8.16-10.5,16.24-10.78,24.41-2.11
				c41.07,43.66,75.22,91.43,87.28,151.83c0.57,2.86,1.13,5.74,1.37,8.64C986.81,263.49,986.98,268.49,987.17,271.77z M886.6,126.42
				c-34.94,40.71-65.09,82.35-72.38,135.77c-6.37,46.71,25.19,85.31,70.14,86.63c43.38,1.27,79.3-35.33,74.67-81.3
				C953.38,211.53,921.94,168.96,886.6,126.42z"/>
			<path class="st0" d="M773.86,96.84c0.09,34.68-27.6,60.44-62.53,58.18c-32.91-2.13-57.27-32.38-52.54-66.48
				c4.8-34.63,23.91-61.9,47.9-85.82c3.23-3.23,13.49-3.62,17.71-0.94C747.84,16.61,773.78,68.02,773.86,96.84z M720.53,33.52
				c-1.73,0.3-3.46,0.6-5.19,0.9c-12.65,15.45-23.2,31.99-27.68,52.03c-3.21,14.36-0.51,26.56,11.75,35.51
				c9.94,7.25,23.9,7.13,33.98-0.12c12.52-9.01,15.98-22.25,11.18-35.56C738.03,68.16,728.68,51.06,720.53,33.52z"/>
			<path class="st0" d="M730.33,409.2c-3.07,0.74-9.65,1.79-15.86,3.92c-63.76,21.86-127.45,43.91-191.18,65.85
				c-3.91,1.35-8.78,4.09-11.83,2.84c-5.13-2.1-11.27-6.03-13.17-10.74c-3.03-7.52,1.7-13.53,9.5-16.24
				c23.98-8.33,47.97-16.61,71.96-24.89c42.09-14.53,84.1-29.27,126.33-43.36c8.93-2.98,18.61-4.46,28.04-4.99
				c9.61-0.55,19.46,1.85,19.22,14.29C753.1,408.01,744.28,410.44,730.33,409.2z"/>
			<path class="st0" d="M939.11,273.34c0.01,31.06-24.72,55.71-50.76,55.49c-7.9-0.06-14.03-3.18-15.19-11.72
				c-1.2-8.91,3.1-14.63,12.03-15.76c15.74-1.98,24.95-9.74,26.48-26.24c0.8-8.61,6.81-14.81,15.23-12.38
				C932.58,264.38,936.77,271.17,939.11,273.34z"/>
		</g>
	</g>
</g>
</svg>
