<?xml version="1.0" encoding="utf-8"?>
<!-- Generator: Adobe Illustrator 23.1.0, SVG Export Plug-In . SVG Version: 6.00 Build 0)  -->
<svg version="1.1" id="Calque_1" xmlns="http://www.w3.org/2000/svg" xmlns:xlink="http://www.w3.org/1999/xlink" x="0px" y="0px"
	 viewBox="0 0 1125 1042" style="enable-background:new 0 0 1125 1042;" xml:space="preserve">
<style type="text/css">
	.st0{fill:#FFFFFF;stroke:#FFFFFF;stroke-width:0.6;stroke-miterlimit:10;}
</style>
<g>
	<g>
		<path class="st0" d="M271.5,596.7c62.6-62.6,124.3-124.2,185.9-185.8c62.6-62.5,125-125.2,187.7-187.6
			c20.6-20.5,49.2-20.7,70.8-1.5c2.5,2.2,5,4.5,9.5,8.6c5.9-6.8,11.3-13.9,17.6-20.1c25.7-25,55.4-31.6,88.4-16.9
			c7.9,3.5,11.4,0.2,16-4.5C905.2,131,963,73.3,1020.7,15.5c3-3,5.8-6.3,9.2-8.7c8.3-6,16.9-5.6,24.2,1.5c7.4,7.1,8,15.7,2.2,24.2
			c-2.3,3.5-5.6,6.3-8.6,9.3C990.4,99.3,933,156.9,875.3,214.1c-6.5,6.4-8.5,11.1-4.5,20.4c12.7,29.7,6.9,57.3-14.3,81.2
			c-7,7.8-15.8,14.1-23.8,21.1c2.9,3.7,3.8,5,4.9,6.2c24.6,26.5,24,53.3-1.8,79.2C719.4,538.7,603,655.2,486.6,771.6
			c-6.6,6.6-13.5,12.7-18.8,17.7c4.3,12,9.2,21.6,11,31.8c4.8,28.5-9,54.9-33.9,67.9c-24.4,12.7-52.9,8.7-74.1-10.8
			c-8.1-7.5-15.7-15.4-23.4-23.2c-7.4-7.5-14.7-15.1-20.9-21.5c-28.6,28.7-56.5,56.7-85.3,85.6c1.8,1.9,5.8,6,9.7,10.3
			c23.6,25.8,23.4,63.5-0.4,88.5c-24.2,25.3-63.6,28.2-89.1,3.8c-40.7-38.9-80.5-78.8-119.5-119.4c-24.4-25.4-21.8-64.6,3.7-89.1
			c24.9-24,62.9-24.4,88.4-0.7c4,3.7,6.8,8.6,9.8,12.5c29.7-30.2,57.5-58.3,87-88.3c-14-13.5-30.3-28.2-45.3-44.1
			c-33.9-35.8-18.2-93.5,28.9-106.8C234.6,580.2,253.6,584.3,271.5,596.7z M643.3,276c12.3,11.5,23,21.1,33.2,31.2
			c10.4,10.3,11.1,22,2.7,30c-8.5,8.1-18.6,7.2-29-3.1c-10.2-10.1-19.9-20.7-29.1-30.3c-17.1,17.3-33.1,33.3-49.5,49.9
			c19,19,39.3,38.8,59.2,59c10.5,10.7,10.6,23.4,0.3,30.6c-10.1,7.2-19,4-27.1-4.2c-20-20.1-40-40.1-58.9-59
			c-13.5,13.5-26.5,26.5-40.9,40.7c9.6,9.1,20.3,18.8,30.4,29c9.9,9.9,10.7,21.1,2.9,29.1c-8.5,8.7-19.1,7.9-29.9-2.9
			c-10.1-10.1-19.7-20.6-28.2-29.4c-17.5,17.5-33.4,33.5-49.8,49.9c19.1,18.9,39.4,38.7,59.2,58.9c12,12.3,8.8,30.3-6.3,32.8
			c-6.6,1.1-15.9-2.7-21-7.4c-20.7-19.2-40.2-39.6-59.8-59.2c-13.6,13.6-26.5,26.4-40.5,40.4c10.1,9.8,20.5,19.6,30.6,29.8
			c10.4,10.5,11.3,21.9,2.9,30c-8.7,8.4-19,7.4-29.9-3.8c-9.9-10.2-19.1-21-27.1-29.9c-14.2,13.6-25.7,24.7-35.6,34.2
			c46.3,46.3,92.8,92.8,141.8,141.8c2.1-3,4.4-7.7,8-11.2c109.7-110,219.6-219.8,329.4-329.7c9.9-9.9,19.6-19.9,29.7-29.6
			c8.4-8.2,8.3-15.9-0.1-23.9c-7.3-7-14.5-14.2-21.6-21.4c-32-32-64.1-64-96-96.2c-8.3-8.3-15.7-8.1-23.9,0.2
			C661.5,260,653.1,267.1,643.3,276z M235.4,620.7c-15.4,1.4-23.9,6.9-28.5,17.6c-5,11.6-1.4,21.6,7,30
			c60.3,60.4,120.7,120.9,181.2,181c12.6,12.5,28.2,12.2,39.3,0.5c10.9-11.5,9.9-27-2.5-39.4c-59.8-59.8-119.5-119.7-179.6-179.2
			C247.1,626,239.3,623.1,235.4,620.7z M94.2,833.1c-16.3,0-24.5,6.2-29.1,16.6c-5.1,11.4-1.7,21.6,6.8,30.1
			C109,917,146,954.2,183.3,991.1c12.6,12.5,28.2,12.4,39.4,0.9c10.6-10.9,10.4-26.7-1.3-38.5c-37-37.3-74-74.4-111.5-111.1
			C104.9,837.3,97.3,834.9,94.2,833.1z M260.6,769.7c-28.2,28.2-56.4,56.3-82.7,82.7c10.8,11,22.8,23.2,33.5,34.2
			c27.3-27.3,55.3-55.2,82.5-82.2C282.7,792.6,270.7,780.2,260.6,769.7z M752.5,253.7c19.6,19.6,37.9,37.9,56.7,56.7
			c6-6.1,13.5-13,20.1-20.6c14.6-16.8,13.3-38.9-2.6-54.5c-15.3-14.9-37.4-15.7-53.6-1.4C765.4,240.5,758.5,247.9,752.5,253.7z"/>
		<path class="st0" d="M1040.7,348c-52.4-0.4-92.3-51.8-73.6-100.7c15.4-40.3,37.9-78,58.5-116.2c7.1-13.1,23.5-12.8,31.5-0.1
			c23.3,37.3,46.6,74.7,59.5,117.1C1131.7,298.1,1093.1,348.4,1040.7,348z M1044,178.7c-1.7-0.1-3.4-0.2-5.1-0.3
			c-12,25.6-24.3,51-35.6,76.8c-2.7,6.2-3.4,14.2-2.3,20.9c4,23.8,27.4,38.6,50,32.8c23.5-6.1,37.5-29.2,28.6-52
			C1069.3,230.2,1056,204.7,1044,178.7z"/>
	</g>
</g>
</svg>
