<?xml version="1.0" encoding="utf-8"?>
<!-- Generator: Adobe Illustrator 23.1.0, SVG Export Plug-In . SVG Version: 6.00 Build 0)  -->
<svg version="1.1" id="Calque_1" xmlns="http://www.w3.org/2000/svg" xmlns:xlink="http://www.w3.org/1999/xlink" x="0px" y="0px"
	 viewBox="0 0 1125 1042" style="enable-background:new 0 0 1125 1042;" xml:space="preserve">
<style type="text/css">
	.st0{fill:#969696;stroke:#969696;stroke-width:0.5;stroke-miterlimit:10;}
</style>
<g>
	<g>
		<path class="st0" d="M263.96,596.6c62.92-62.84,124.9-124.71,186.86-186.61c62.87-62.81,125.6-125.76,188.64-188.4
			c20.72-20.59,49.44-20.8,71.15-1.51c2.53,2.25,5.01,4.55,9.5,8.64c5.96-6.83,11.37-13.99,17.73-20.17
			c25.8-25.06,55.62-31.76,88.83-16.96c7.96,3.55,11.41,0.22,16.09-4.47c57.97-58.11,116.03-116.13,174.07-174.17
			c3-3,5.83-6.3,9.25-8.76c8.37-6.02,16.97-5.62,24.34,1.52c7.39,7.15,7.98,15.76,2.24,24.29c-2.34,3.48-5.62,6.36-8.62,9.36
			c-57.72,57.76-115.37,115.59-173.35,173.08c-6.53,6.48-8.55,11.16-4.57,20.5c12.72,29.87,6.94,57.54-14.44,81.58
			c-7,7.88-15.83,14.13-23.87,21.16c2.87,3.68,3.78,5.03,4.87,6.21c24.68,26.66,24.15,53.54-1.82,79.52
			C713.9,538.45,596.91,655.42,479.89,772.37c-6.6,6.59-13.59,12.8-18.91,17.8c4.27,12.05,9.28,21.7,11,31.91
			c4.83,28.59-9.01,55.11-34.08,68.19c-24.52,12.8-53.16,8.76-74.4-10.83c-8.12-7.49-15.77-15.5-23.54-23.36
			c-7.46-7.54-14.8-15.2-20.99-21.56c-28.75,28.82-56.78,56.94-85.75,85.99c1.82,1.92,5.87,6.08,9.79,10.37
			c23.69,25.92,23.47,63.83-0.47,88.9c-24.3,25.43-63.9,28.29-89.54,3.81c-40.9-39.05-80.85-79.14-120-119.95
			c-24.53-25.57-21.85-64.9,3.73-89.49c25.05-24.08,63.17-24.48,88.78-0.64c3.99,3.72,6.84,8.66,9.84,12.54
			c29.89-30.3,57.76-58.56,87.43-88.64c-14.02-13.58-30.39-28.33-45.48-44.3c-34.04-36.02-18.21-93.94,29.11-107.29
			C226.87,580.04,245.97,584.21,263.96,596.6z M637.57,274.59c12.37,11.6,23.14,21.22,33.35,31.39
			c10.42,10.39,11.17,22.09,2.68,30.14c-8.56,8.12-18.7,7.25-29.1-3.13c-10.2-10.18-19.97-20.77-29.22-30.44
			c-17.22,17.33-33.27,33.49-49.78,50.1c19.13,19.05,39.42,39.03,59.43,59.29c10.58,10.71,10.62,23.47,0.27,30.79
			c-10.18,7.19-19.12,4.02-27.26-4.19c-20.05-20.22-40.21-40.33-59.12-59.29c-13.57,13.52-26.68,26.58-41.07,40.92
			c9.67,9.19,20.34,18.91,30.52,29.12c9.9,9.94,10.76,21.17,2.95,29.22c-8.51,8.78-19.17,7.96-30.03-2.91
			c-10.13-10.14-19.83-20.71-28.27-29.57c-17.57,17.59-33.57,33.6-50.03,50.07c19.15,19.02,39.56,38.89,59.5,59.22
			c12.1,12.33,8.87,30.45-6.37,32.91c-6.58,1.06-15.97-2.71-21.11-7.49c-20.77-19.26-40.38-39.76-60.08-59.47
			c-13.7,13.65-26.6,26.51-40.66,40.53c10.13,9.84,20.62,19.72,30.75,29.96c10.41,10.53,11.32,22.03,2.91,30.14
			c-8.74,8.43-19.11,7.44-30.01-3.8c-9.93-10.23-19.19-21.11-27.24-30.04c-14.29,13.7-25.84,24.78-35.82,34.35
			c46.48,46.5,93.23,93.26,142.43,142.48c2.08-2.98,4.45-7.72,8.01-11.28c110.26-110.46,220.64-220.8,331-331.16
			c9.92-9.92,19.73-19.97,29.8-29.74c8.46-8.21,8.32-15.96-0.13-24.04c-7.37-7.05-14.53-14.32-21.74-21.53
			c-32.16-32.19-64.35-64.34-96.4-96.62c-8.3-8.36-15.78-8.17-24.06,0.15C655.91,258.5,647.47,265.6,637.57,274.59z M227.65,620.74
			c-15.44,1.43-23.96,6.92-28.6,17.67c-5.04,11.68-1.4,21.69,7.05,30.16c60.6,60.72,121.18,121.45,182.02,181.93
			c12.66,12.59,28.37,12.28,39.53,0.52c10.98-11.57,9.98-27.1-2.51-39.58c-60.07-60.06-120.02-120.24-180.35-180.04
			C239.41,626.07,231.63,623.16,227.65,620.74z M85.79,834.1c-16.4,0-24.57,6.19-29.23,16.71c-5.09,11.49-1.7,21.67,6.84,30.23
			c37.24,37.33,74.43,74.72,111.91,111.81c12.69,12.56,28.28,12.49,39.58,0.87c10.63-10.93,10.46-26.81-1.33-38.7
			c-37.12-37.44-74.36-74.77-111.99-111.69C96.49,838.34,88.93,835.88,85.79,834.1z M252.99,770.43
			c-28.33,28.3-56.63,56.58-83.1,83.03c10.86,11.08,22.88,23.34,33.64,34.32c27.47-27.37,55.6-55.4,82.88-82.57
			C275.12,793.46,263.14,781,252.99,770.43z M747.28,252.2c19.66,19.66,38.09,38.1,56.96,56.96c6.05-6.17,13.52-13.09,20.17-20.74
			c14.64-16.85,13.39-39.07-2.61-54.73c-15.33-15.01-37.56-15.78-53.88-1.45C760.3,238.93,753.3,246.33,747.28,252.2z"/>
		<path class="st0" d="M1036.82,346.99c-52.65-0.42-92.72-52.02-73.95-101.22c15.45-40.5,38.11-78.35,58.83-116.69
			c7.09-13.12,23.66-12.84,31.6-0.11c23.36,37.44,46.81,75.06,59.73,117.7C1128.24,296.9,1089.43,347.41,1036.82,346.99z
			 M1040.17,176.9c-1.7-0.11-3.41-0.22-5.11-0.34c-12.01,25.68-24.43,51.19-35.75,77.17c-2.71,6.22-3.42,14.28-2.29,21.02
			c4.03,23.88,27.55,38.84,50.19,32.95c23.59-6.13,37.69-29.37,28.79-52.25C1065.59,228.67,1052.24,203.03,1040.17,176.9z"/>
	</g>
</g>
</svg>
