<?xml version="1.0" encoding="utf-8"?>
<!-- Generator: Adobe Illustrator 23.1.0, SVG Export Plug-In . SVG Version: 6.00 Build 0)  -->
<svg version="1.1" id="Calque_1" xmlns="http://www.w3.org/2000/svg" xmlns:xlink="http://www.w3.org/1999/xlink" x="0px" y="0px"
	 viewBox="0 0 1125 1042" style="enable-background:new 0 0 1125 1042;" xml:space="preserve">
<style type="text/css">
	.st0{fill:#FFFFFF;}
</style>
<g>
	<g>
		<g>
			<path class="st0" d="M733.2,1038.1c-39,0-78.7-0.3-118-0.8c-38.1-0.5-67.4-19.9-84.7-56.1c-5.2-10.9-10.6-14.4-22.1-14.4h-0.2
				c-63.5,0.2-131.4,0.3-220,0.3c-37.6,0-75.2,0-112.7,0h-51.8c-32.7,0-59.9-9.8-78.5-28.3c-18.7-18.5-28.5-45.5-28.5-78
				c0-39.3,0-78.7,0-118c0.1-88.9,0.1-180.8-0.3-271.3c-0.2-33,11.2-60.1,34.6-82.9c12.8-12.5,25.5-25.5,37.8-38.2
				c17-17.5,34.6-35.6,52.8-52.5c21.6-19.9,28.6-43.6,23.5-79.1c-1.7,0.1-3.5,0.1-5.3,0.1s-3.6,0.1-5.4,0.1c-2.4,0-4.4-0.1-6.2-0.2
				c-32.3-1.9-53.4-24-53.8-56.1c-0.4-33-0.4-67,0-100.9c0.4-33.5,22.6-56,55.2-56.1C215.4,5.4,282,5.3,347.4,5.3
				c66.4,0,133.6,0.1,199.5,0.4c16.3,0.1,30,5.4,39.7,15.5c9.6,10,14.8,24.1,15,40.8c0.4,32.9,0.3,66.3,0.1,97.7
				c-0.1,19.1-5.3,33.9-15.3,43.9s-25,15.2-44.4,15.6c-2.1,0-4.2,0.2-6.7,0.3c-1.2,0.1-2.5,0.1-4,0.2c-2.9,25.5-3.9,52.3,19.9,74.6
				c19.3,18.2,38.1,37.5,56.4,56.1c12.6,12.9,25.6,26.2,38.7,39.1c23.1,22.8,34.3,50,34.2,83.3c-0.3,84.1-0.3,169.6-0.2,252.2
				c0,31.8,0,63.6,0,95.4v20.8c18,0,36-0.1,53.4-0.1c16.9-0.1,34.4-0.1,51.4-0.1c24.8,0,45.2,0.1,64.3,0.5
				c33.1,0.5,63.4,17.7,81,45.8s19.9,62.8,6,92.7c-17.1,37-46.8,56.8-85.7,57.3C811.9,1037.8,772.3,1038.1,733.2,1038.1z
				 M756.8,991.3c1.2,0.1,2.2,0.2,3.1,0.3c1.7,0.2,3.1,0.4,4.5,0.4c7.8,0,15.5,0.1,23.3,0.1c9.1,0,18.5,0.1,27.7,0.1
				c12.3,0,22.5-0.1,32.1-0.3c28.5-0.5,50.6-22.3,51.3-50.5c0.7-29.7-20.5-53-49.3-54.1c-10.5-0.4-21.9-0.6-35.7-0.6
				c-9.2,0-18.7,0.1-27.9,0.2c-9.5,0.1-19.3,0.2-29.1,0.2L756.8,991.3L756.8,991.3z M650.1,886.7c-14.7,0-26.7,0.3-37.8,1
				c-25.2,1.6-45.5,23.9-46.1,50.9c-0.6,23.2,15.8,49.4,41.2,51.6c11.9,1,24.8,1.5,40.5,1.5c10.1,0,20.5-0.2,30.5-0.4
				c10.1-0.2,20.5-0.4,30.8-0.4V887.3c-10.1,0-20.2-0.1-30-0.3C669.5,886.9,659.7,886.7,650.1,886.7z M62.1,839.2c0,3.7,0,7,0,10.2
				c0,6.5-0.1,12.1,0.1,17.8c0.6,32.4,22.6,54.1,54.8,54.2c59.3,0.1,119.6,0.1,178,0.1c70.4,0,143.1,0,214.7,0.2
				c8.9,0,12.3-2.6,15.2-11.5c13.6-42,48.8-67.8,94-69c3.1-0.1,6.3-0.4,9.4-0.6c1.4-0.1,2.8-0.2,4.3-0.3c0.1-1.2,0.2-2.3,0.3-3.3
				c0.2-1.8,0.4-3.1,0.4-4.5c0-40.4,0-80.9,0-121.3c0-80.5,0-163.7,0.1-245.6c0-15.5-5.9-29-18-41.2c-13-13-26-26.3-38.6-39.2
				c-19.4-19.7-39.4-40.2-59.5-59.8c-23.6-23.1-34.6-49.9-33.6-81.8c0.2-5.3,0.1-10.4,0.1-15.9c0-2.5,0-4.9,0-7.5H213
				c-0.1,1.8-0.2,3.5-0.3,5.1c-0.2,3.4-0.5,6.6-0.3,9.7c2.5,37.1-10.4,68.4-39.3,95.7c-14,13.2-27.5,27.2-40.7,40.8
				c-15,15.5-30.5,31.5-46.6,46.3c-25.9,23.8-25.8,52.3-22.2,77l17.4-0.1c17.3,0,86.7,0,104.1,0c22.5,0,44.9,0,67.4,0
				c27.6,0,50.6,8.4,66.4,24.3s24.3,39,24.3,66.7c0.1,53,0.1,106,0,160.2c0,29.6-8.2,52.8-24.4,68.8c-16.1,16.1-39.4,24.2-69.3,24.3
				c-19.8,0-41,0.1-66.8,0.1c-17,0-34.1,0-51.1,0s-34.1,0-51.1,0L62.1,839.2L62.1,839.2z M174.1,793.3c26.5,0,52.8,0,79.2,0
				c14.8,0,25.4-3.5,32.6-10.5c7.2-7.1,10.7-17.6,10.8-32.3c0.2-51.5,0.2-106,0-166.5c-0.1-29.8-14.1-43.7-44.2-43.8
				c-24.2,0-48.3,0-72.5,0c-34.5,0-69.1,0-103.6,0.1c-3.1,0-6.3,0.3-9.4,0.5c-1.4,0.1-2.9,0.3-4.3,0.4v252.1
				C81.7,793.3,155.9,793.3,174.1,793.3z M155.6,51.6c-5.6,0-9.2,1.1-11.5,3.4c-2.3,2.3-3.3,6-3.2,11.7c0.5,33.5,0.5,63.4,0,91.3
				c-0.1,5.8,0.9,9.6,3.2,11.9c2.3,2.4,6.1,3.4,12.3,3.4h0.4c27.2-0.2,56.1-0.3,93.8-0.3c16.4,0,32.8,0,49.2,0c16.4,0,32.7,0,49.1,0
				v-0.3h0.1c16.4,0,32.8,0,49.2,0c16.4,0,32.8,0,49.2,0c36.3,0,64.2,0.1,90.5,0.2h0.4c7.1,0,11.3-1.2,13.9-3.9
				c2.5-2.6,3.6-6.9,3.4-13.3c-1-31.2-0.6-62-0.1-88.1c0.1-6.2-0.9-10-3.3-12.5c-2.4-2.4-6.2-3.5-12.1-3.5
				c-63.1,0.1-127.7,0.2-192.2,0.2C284.9,51.7,220.2,51.7,155.6,51.6L155.6,51.6L155.6,51.6z"/>
			<path class="st0" d="M347.3,5.4c66.5,0,133.1,0.1,199.6,0.4c33.4,0.1,54.2,22.4,54.6,56.2c0.4,32.6,0.3,65.1,0.1,97.7
				c-0.2,38.4-20.7,58.6-59.6,59.4c-3.2,0.1-6.4,0.3-10.6,0.5c-3.3,27.7-3.1,53.1,19.8,74.8c32.6,30.7,63.1,63.8,95.1,95.2
				c23.4,23.1,34.3,50.4,34.2,83.2c-0.4,115.9-0.2,231.8-0.2,347.6c0,6.3,0,12.6,0,20.8c35.8,0,70.5-0.3,104.9-0.3
				c21.5,0,42.9,0.1,64.2,0.5c70.3,1.1,116.5,74.7,87,138.5c-16.6,35.9-45.7,56.8-85.6,57.3c-39.2,0.5-78.4,0.8-117.5,0.8
				c-39.3,0-78.7-0.3-118-0.8s-67.9-20.9-84.6-56c-5.1-10.8-10.5-14.4-22.2-14.4c-0.1,0-0.1,0-0.2,0c-73.3,0.3-146.7,0.3-220,0.3
				c-54.8,0-109.7,0-164.5-0.1c-66.7,0-107-40.1-107-106.3c0-129.8,0.3-259.5-0.3-389.3c-0.2-33.1,11-59.9,34.6-82.9
				c30.6-29.8,59.2-61.7,90.6-90.6c23.7-21.9,28.1-47.5,23.5-79.2c-3.6,0-7.1,0.1-10.7,0.1c-2.1,0-4.2,0-6.2-0.2
				c-32.3-1.9-53.3-23.6-53.7-56c-0.4-33.6-0.4-67.3,0-100.9c0.4-33.1,22-56,55.1-56.1C215.5,5.5,281.4,5.4,347.3,5.4 M347.8,51.7
				c-64.1,0-128.1-0.1-192.2-0.2h-0.1c-11.1,0-14.9,4.2-14.7,15.1c0.5,30.4,0.6,60.8,0,91.3c-0.2,11.9,4,15.4,15.5,15.4
				c0.1,0,0.3,0,0.4,0c31.2-0.2,62.5-0.3,93.7-0.3c32.8,0,65.6,0.1,98.4,0.1c0-0.1,0-0.2,0-0.3c32.8,0,65.7-0.1,98.5-0.1
				c30.2,0,60.3,0.1,90.5,0.2c0.1,0,0.3,0,0.4,0c12.4,0,17.8-3.5,17.4-17.3c-1-29.3-0.7-58.7-0.1-88c0.2-11.6-3.6-16.1-15.5-16.1
				h-0.1C475.9,51.6,411.8,51.7,347.8,51.7 M63.5,494.7c6,0,11.7,0,17.5,0c34.7,0,69.5,0,104.2,0c22.4,0,44.9,0,67.3,0
				c56.2,0.1,90.5,34.4,90.7,91c0.2,53.4,0.1,106.8,0,160.2c-0.1,59.5-33.7,92.9-93.6,93.1c-22.2,0-44.5,0.1-66.7,0.1
				c-34.1,0-68.2,0-102.4,0c-0.3,0-0.5,0-0.8,0c-5.6,0-11.2,0-17.7,0c0,11.1-0.1,19.6,0,28.1c0.6,32,22.6,54.2,54.9,54.3
				c130.9,0.2,261.7,0,392.6,0.3h0.1c9,0,12.4-2.8,15.2-11.6c13.8-42.5,49-67.8,93.9-69c4.6-0.1,9.1-0.6,13.6-1
				c0.3-3.7,0.7-5.8,0.7-7.9c0-122.3,0-244.6,0.1-366.9c0-16.6-6.6-29.7-18.1-41.2c-32.8-32.9-64.9-66.5-98.1-99
				c-23.2-22.7-34.6-49.4-33.6-81.7c0.2-7.7,0-15.5,0-23.4c-91.6,0-180.6,0-270.5,0c-0.3,5.5-0.9,10.3-0.6,14.9
				c2.6,38.3-11.4,69.3-39.3,95.6c-29.9,28.2-57.1,59.4-87.3,87.1C62.2,439.2,59.1,464.5,63.5,494.7 M174,793.4
				c26.5,0,52.9,0,79.3,0c29.3,0,43.4-13.7,43.5-42.8c0.2-55.5,0.2-111,0-166.5c-0.1-30.1-14.1-43.8-44.3-43.8
				c-24.1,0-48.3,0-72.4,0c-34.6,0-69.1,0-103.7,0.1c-4.6,0-9.2,0.6-13.8,0.9c0,84.4,0,167.4,0,252.2
				C100.3,793.4,137.3,793.4,174,793.4 M815.4,992.2c10.7,0,21.4-0.1,32.1-0.3c28.7-0.5,50.7-22.6,51.4-50.6
				c0.7-29.1-20.1-53.1-49.4-54.2c-11.9-0.5-23.7-0.6-35.7-0.6c-18.6,0-37.5,0.3-57.1,0.3c0,36,0,70.2,0,104.5
				c3.4,0.3,5.5,0.7,7.6,0.7C781.4,992.1,798.4,992.2,815.4,992.2 M647.8,991.7c20.3,0,40.8-0.8,61.4-0.8c0-34.6,0-68.1,0-103.8
				c-20.1,0-39.7-0.6-59.1-0.6c-12.7,0-25.3,0.2-37.8,1c-26.3,1.6-45.6,25-46.2,50.9c-0.6,24.3,16.7,49.6,41.2,51.6
				C620.7,991.4,634.2,991.7,647.8,991.7 M347.3,5.2c-65.4,0-131.9,0.1-197.8,0.3c-16.2,0.1-30,5.5-40,15.7
				c-9.8,10.1-15.1,24.1-15.3,40.5c-0.4,33.9-0.4,67.9,0,100.9c0.2,15.9,5.3,29.6,14.9,39.6c9.6,9.9,23,15.7,38.9,16.6
				c1.9,0.1,3.9,0.2,6.2,0.2c1.8,0,3.6,0,5.4-0.1c1.7,0,3.5-0.1,5.2-0.1c2.5,17.1,2.1,30.8-1.2,43.1c-3.6,13.6-10.9,25.3-22.3,35.8
				c-18.2,16.8-35.8,34.9-52.8,52.5c-12.3,12.6-24.9,25.7-37.8,38.2c-11.9,11.6-20.5,23.9-26.2,37.7c-5.7,13.7-8.5,28.6-8.4,45.3
				c0.4,90.4,0.4,182.4,0.3,271.3c0,38.7-0.1,78.6,0,118c0,32.5,9.9,59.5,28.6,78.1c18.7,18.5,45.9,28.4,78.6,28.4
				c17,0,34.1,0,51.1,0c37.2,0,75.6,0,113.4,0c88.6,0,156.4-0.1,220-0.3h0.2c11.5,0,16.9,3.5,22.1,14.3
				c17.3,36.2,46.6,55.6,84.8,56.1c39.3,0.5,79,0.8,118,0.8c39.1,0,78.6-0.3,117.5-0.8s68.6-20.3,85.8-57.4
				c7.2-15.5,10.1-31.7,8.8-48.4c-1.2-15.6-6.4-30.9-14.8-44.4c-8.4-13.5-20.1-24.8-33.6-32.7c-14.5-8.5-30.5-12.9-47.5-13.2
				c-19-0.3-39.5-0.5-64.2-0.5c-17,0-34.5,0.1-51.4,0.1c-17.4,0.1-35.3,0.1-53.3,0.1V833v-12.7c0-31.9,0-64.3,0-95.6
				c-0.1-82.6-0.1-168,0.2-252.1c0.1-33.3-11.1-60.6-34.2-83.3c-13.1-12.9-26.1-26.2-38.7-39.1c-18.2-18.7-37.1-38-56.4-56.1
				c-23.7-22.3-22.8-49-19.8-74.5c1.4-0.1,2.6-0.1,3.8-0.2c2.4-0.1,4.5-0.3,6.6-0.3c19.4-0.4,34.4-5.7,44.4-15.7
				c10.1-10,15.2-24.8,15.3-43.9c0.2-31.4,0.4-64.9-0.1-97.7c-0.2-16.7-5.4-30.8-15-40.8C577,11,563.2,5.6,546.9,5.6
				C480.9,5.4,413.8,5.2,347.3,5.2L347.3,5.2z M347.8,51.8c64.5,0,129.2-0.1,192.2-0.2l0,0l0,0c5.9,0,9.7,1.1,12,3.5
				c2.4,2.5,3.4,6.3,3.3,12.5c-0.5,26-0.9,56.9,0.1,88.1c0.2,6.4-0.9,10.7-3.4,13.3c-2.6,2.7-6.7,3.8-13.8,3.8h-0.4
				c-26.3-0.2-54.2-0.2-90.5-0.2c-16.4,0-32.8,0-49.2,0c-16.4,0-32.8,0-49.2,0h-0.1v0.1v0.2l0,0c-16.4,0-32.7,0-49.1,0
				s-32.8,0-49.2,0c-37.7,0-66.6,0.1-93.7,0.3h-0.4c-6.1,0-9.9-1-12.2-3.4c-2.3-2.3-3.3-6.1-3.1-11.9c0.5-27.9,0.6-57.8,0-91.3
				c-0.1-5.7,0.9-9.4,3.2-11.6c2.2-2.3,5.9-3.3,11.4-3.3l0,0l0,0C220.2,51.8,284.9,51.8,347.8,51.8L347.8,51.8z M213,220.2h270.2
				c0,2.5,0,5,0,7.4c0,5.5,0.1,10.6-0.1,15.9c-1,31.9,10,58.7,33.7,81.8c20.1,19.7,40.1,40.1,59.5,59.9C589,398,602,411.3,615,424.3
				c12.1,12.2,18,25.6,18,41.1c-0.1,81.7-0.1,164.8-0.1,245.1c0,40.6,0,81.2,0,121.8c0,1.4-0.2,2.7-0.4,4.5c-0.1,0.9-0.2,2-0.4,3.3
				c-1.4,0.1-2.8,0.2-4.1,0.3c-3.1,0.3-6.2,0.5-9.4,0.6c-22.2,0.6-42.5,7.2-58.7,19c-16.4,11.9-28.6,29.3-35.3,50.1
				c-2.9,8.9-6.3,11.5-15.1,11.5h-0.1c-71.6-0.2-144.3-0.2-214.7-0.2c-58.3,0-118.6,0-178-0.1c-15.7,0-29.3-5.2-39.2-15.1
				c-9.8-9.8-15.2-23.3-15.5-39c-0.1-5.7-0.1-11.3-0.1-17.8c0-3.2,0-6.5,0-10.2h17.5h0.8c17.1,0,34.1,0,51.2,0s34.1,0,51.2,0
				c25.8,0,47,0,66.7-0.1c29.8-0.1,53.2-8.2,69.3-24.3s24.4-39.2,24.4-68.9c0.1-54.2,0.1-107.2,0-160.2
				c-0.1-27.8-8.5-50.9-24.4-66.8C303,503,280,494.6,252.4,494.6c-19.9,0-41.3,0-67.3,0c-17.3,0-34.6,0-51.9,0s-34.6,0-51.9,0h-0.4
				H63.6c-2.4-16.8-2.2-30,0.7-41.6c3.3-13.5,10.4-25,21.5-35.2c16.1-14.8,31.6-30.8,46.6-46.3c13.1-13.6,26.7-27.6,40.7-40.8
				c28.9-27.3,41.8-58.6,39.3-95.7c-0.2-3.1,0-6.3,0.3-9.7C212.8,223.6,213,221.9,213,220.2L213,220.2z M62.8,541.3
				c1.4-0.1,2.9-0.2,4.3-0.3c3.1-0.3,6.3-0.5,9.4-0.5c40.8,0,73.7-0.1,103.7-0.1c25.8,0,49.5,0,72.4,0c15.2,0,26.1,3.5,33.3,10.6
				c7.2,7.1,10.8,18,10.8,33.1c0.2,60.5,0.2,115,0,166.5c-0.1,14.6-3.6,25.2-10.8,32.2c-7.2,7-17.8,10.5-32.6,10.5
				c-23.3,0-48.5,0-79.3,0c-18.3,0-36.6,0-55,0c-18.6,0-37.3,0-56.2,0L62.8,541.3L62.8,541.3z M756.9,887c9.8,0,19.6-0.1,29.1-0.2
				c9.2-0.1,18.7-0.2,27.9-0.2c13.8,0,25.2,0.2,35.7,0.6c14,0.6,26.8,6.4,35.9,16.6c9,10,13.7,23.3,13.4,37.5
				c-0.7,28.2-22.7,49.9-51.2,50.5c-9.6,0.2-19.8,0.3-32.1,0.3c-9.2,0-18.7,0-27.8-0.1c-7.6,0-15.5-0.1-23.3-0.1
				c-1.4,0-2.7-0.2-4.5-0.4c-0.9-0.1-1.9-0.2-3-0.3V887H756.9z M647.8,991.6c-15.7,0-28.6-0.5-40.5-1.5
				c-25.3-2.1-41.6-28.4-41.1-51.5c0.3-12.7,5.1-25,13.4-34.5c8.6-9.7,20.2-15.5,32.6-16.3c11.1-0.7,23.2-1,37.8-1
				c9.6,0,19.5,0.1,29,0.3c9.8,0.1,19.9,0.3,30,0.3v103.5c-10.3,0-20.7,0.2-30.7,0.4C668.3,991.4,657.9,991.6,647.8,991.6
				L647.8,991.6z"/>
		</g>
		<g>
			<path class="st0" d="M1022.2,838.9c-26.6,0-49.6-9.6-68.6-28.4L939,796.1c-48.5-48.1-98.6-97.9-147.3-147.5
				c-18.7-19.1-28.9-44-28.6-70.1c0.3-26.2,11-50.8,30.1-69.4c18.4-18,42.6-27.9,68.2-27.9c26.2,0,51.2,10.4,70.3,29.3
				c50.3,49.7,102.9,102.3,160.8,160.8c28.9,29.2,37,70.6,21.1,108c-7.6,18-20.1,33-36.2,43.6c-16,10.6-34.9,16.1-54.6,16.1
				L1022.2,838.9z M925.7,713.1c6.4,6.7,12.9,13.8,19.1,20.7c14.9,16.3,30.4,33.2,47.2,48.4c8.1,7.3,18.5,11.1,30.1,11.1l0,0
				c14.1,0,28.4-6,38.4-16c8.6-8.7,14.2-20.8,15.2-33.1c1.1-13-2.7-25-10.8-33.9c-15.4-17.1-32.4-32.8-48.9-47.9
				c-7.1-6.5-13.8-12.7-20.4-19L925.7,713.1z M861.8,527c-12.9,0-25.4,4.9-35.2,13.7c-10.6,9.5-17.1,23-17.8,37
				c-0.7,12.6,3.5,24.4,11.6,33.4c15.1,16.7,31.9,32.3,48.1,47.3c6.9,6.4,14,13,20.8,19.5l72.7-73.2c-6.3-6.3-12.8-12.8-19.1-19
				c-14.6-14.6-29.7-29.8-45.2-44.3C887.8,532.2,875,527,861.8,527z"/>
			<path class="st0" d="M861.3,481.2c25.2,0,50.5,9.7,70.3,29.3c53.9,53.3,107.5,106.9,160.8,160.8c29.1,29.4,36.8,71.1,21.1,108
				c-15.5,36.6-50.6,59.7-90.7,59.7c0,0,0,0-0.1,0c-0.2,0-0.4,0-0.6,0c-26.7,0-49.7-9.7-68.6-28.4c-54.2-53.8-108.4-107.5-161.8-162
				c-39-39.7-37.7-101.2,1.5-139.5C812.2,490.5,836.7,481.2,861.3,481.2 M889.3,678.1c23.3-23.5,47.2-47.5,72.8-73.3
				c-21-20.8-42.2-42.6-64.3-63.4c-10.3-9.7-23.1-14.5-35.9-14.5c-12.6,0-25.1,4.6-35.2,13.7c-20.3,18.2-24.6,50.1-6.2,70.5
				C842,635.1,866.6,656.3,889.3,678.1 M1022.1,793.4c14,0,28.3-5.8,38.4-16c17.7-17.8,21.5-48.3,4.4-67.2
				c-21.9-24.3-47-45.7-69.3-67c-23.2,23.2-47.3,47.2-70,70c21.4,22.5,42.4,47.5,66.4,69.1C1000.5,789.9,1011.2,793.4,1022.1,793.4
				 M861.3,481L861.3,481c-25.5,0-49.8,9.9-68.2,27.9c-19.1,18.6-29.8,43.3-30.1,69.5c-0.3,26.1,9.9,51.1,28.6,70.2
				c48.7,49.6,98.8,99.4,147.3,147.5l14.6,14.5c19,18.9,42.1,28.4,68.7,28.4h0.6h0.1c19.7,0,38.6-5.6,54.6-16.1
				c16.1-10.6,28.6-25.6,36.2-43.6c7.7-18.2,9.9-37.9,6.2-56.9c-3.7-19.2-13.1-36.9-27.4-51.2c-58-58.6-110.6-111.1-160.8-160.8
				C912.6,491.4,887.6,481,861.3,481L861.3,481z M889.3,677.9c-6.8-6.5-13.9-13.1-20.7-19.5c-16.2-15.1-32.9-30.6-48.1-47.3
				c-8.1-9-12.3-20.8-11.6-33.4c0.7-14,7.2-27.4,17.8-36.9c9.8-8.8,22.3-13.6,35.1-13.6c13.2,0,25.9,5.1,35.8,14.4
				c15.4,14.5,30.5,29.6,45.2,44.3c6.2,6.3,12.7,12.7,19,19l-31.8,32L889.3,677.9L889.3,677.9z M925.8,713.1l11.3-11.3l58.5-58.5
				c6.6,6.3,13.3,12.5,20.3,19c16.4,15.2,33.4,30.9,48.8,47.9c8,8.9,11.9,20.9,10.8,33.9c-1,12.3-6.6,24.4-15.2,33.1
				c-9.9,10-24.2,16-38.3,16c-11.6,0-22-3.8-30-11.1c-16.8-15.2-32.3-32.1-47.2-48.4C938.7,726.9,932.2,719.8,925.8,713.1
				L925.8,713.1z"/>
		</g>
		<g>
			<path class="st0" d="M347.3,153.2c-12.4,0-20.6-7.2-21.8-19.2c-1.5-14.4-1.5-28.9,0-43.1c1.3-12.1,9.4-19.3,21.7-19.3
				c0.6,0,1.1,0,1.7,0c13,0.7,20.4,8.1,21.4,21.5c0.3,4.4,0.2,8.9,0.2,13.2c0,2-0.1,4-0.1,6v0.1h-0.1c0,2.1,0,4.3,0.1,6.4
				c0.1,4.7,0.2,9.6-0.2,14.3c-1.3,12.3-8.8,19.4-21.1,20C348.4,153.2,347.8,153.2,347.3,153.2z"/>
			<path class="st0" d="M347.1,71.7c0.6,0,1.1,0,1.7,0c13.1,0.7,20.3,8.4,21.3,21.4c0.5,6.4,0.1,12.8,0.1,19.2h-0.1
				c0,6.9,0.6,13.9-0.1,20.8c-1.3,12.3-8.7,19.3-21,20c-0.6,0-1.1,0-1.7,0c-12.2,0-20.5-7-21.8-19.1c-1.5-14.2-1.5-28.9,0-43.1
				C326.8,79,334.9,71.7,347.1,71.7 M347.1,71.6L347.1,71.6c-12.3,0-20.5,7.2-21.8,19.4c-1.5,14.2-1.5,28.7,0,43.1
				c1.3,12,9.5,19.2,21.9,19.2c0.6,0,1.1,0,1.7,0c12.4-0.6,19.9-7.8,21.2-20.1c0.5-4.7,0.4-9.6,0.2-14.3c-0.1-2.1-0.1-4.2-0.1-6.3
				h0.1v-0.1c0-2,0-4,0.1-6c0.1-4.3,0.2-8.8-0.2-13.2c-1-13.4-8.4-20.9-21.4-21.6C348.3,71.6,347.7,71.6,347.1,71.6L347.1,71.6z"/>
		</g>
		<g>
			<path class="st0" d="M462.5,153.3c-12.5,0-20.6-6.9-21.8-18.4c-1.6-14.9-1.5-30,0-44.7c1.2-11.6,9.4-18.5,21.8-18.5
				c0.2,0,0.4,0,0.7,0c12.4,0.2,20.2,7.1,21.9,19.2c0.7,5.1,0.5,10.3,0.4,15.4c-0.1,2.3-0.2,4.6-0.2,7c0,2.2,0.1,4.4,0.1,6.5
				c0.2,4.7,0.3,9.6-0.3,14.3c-1.7,12.1-9.5,19-21.9,19.2C463,153.3,462.8,153.3,462.5,153.3z"/>
			<path class="st0" d="M462.5,71.7c0.2,0,0.4,0,0.7,0c12.4,0.2,20.1,7,21.8,19.1c1,7.3,0.2,14.9,0.2,22.4c0,6.9,0.8,14-0.2,20.8
				c-1.7,12.2-9.5,18.9-21.8,19.2c-0.2,0-0.5,0-0.7,0c-12,0-20.5-6.6-21.8-18.3c-1.5-14.8-1.6-29.9,0-44.7
				C442,78.5,450.4,71.7,462.5,71.7 M462.5,71.6L462.5,71.6L462.5,71.6L462.5,71.6c-6,0-11.2,1.7-15,4.9c-3.9,3.2-6.2,8-6.8,13.7
				c-1.6,14.7-1.6,29.8,0,44.7c1.2,11.6,9.4,18.5,21.9,18.5c0.2,0,0.5,0,0.7,0c12.4-0.3,20.2-7.1,21.9-19.3
				c0.7-4.7,0.5-9.6,0.3-14.3c-0.1-2.1-0.1-4.3-0.1-6.5c0-2.3,0.1-4.7,0.2-7c0.2-5.1,0.4-10.4-0.4-15.4c-1.7-12.2-9.5-19-22-19.3
				C463,71.6,462.7,71.6,462.5,71.6L462.5,71.6z"/>
		</g>
		<g>
			<path class="st0" d="M232.4,153.2c-12.9,0-20.9-7.6-22.6-21.5c-0.6-4.7-0.4-9.6-0.3-14.3c0.1-2.1,0.1-4.3,0.1-6.5v-0.1h0.1
				c0-2-0.1-4-0.2-5.9c-0.2-4.4-0.4-8.9,0.4-13.2c2.3-13.1,10-20.1,22.3-20.1c0.2,0,0.5,0,0.7,0c13.3,0.3,21.1,7.7,22,20.8
				c0.9,14,0.6,27.9,0.2,38.4c-0.5,14.2-8.4,22.1-22.1,22.4C232.8,153.2,232.6,153.2,232.4,153.2z"/>
			<path class="st0" d="M232.3,71.7c0.2,0,0.5,0,0.7,0c13.1,0.3,21.1,7.6,21.9,20.7c0.8,12.7,0.7,25.6,0.2,38.4
				c-0.5,13.8-8.1,22-22,22.3c-0.2,0-0.5,0-0.7,0c-13.6,0-20.9-8.2-22.5-21.5c-0.8-6.8-0.1-13.8-0.1-20.8h0.1
				c0-6.4-0.9-12.9,0.2-19.2C212.2,79.6,219.4,71.7,232.3,71.7 M232.3,71.6v0.2V71.6L232.3,71.6c-6.3,0-11.4,1.8-15.2,5.5
				c-3.6,3.4-6,8.4-7.1,14.7c-0.8,4.3-0.6,8.8-0.4,13.2c0.1,1.9,0.2,3.9,0.2,5.8h-0.1v0.1c0,2.2-0.1,4.4-0.1,6.5
				c-0.1,4.7-0.3,9.6,0.3,14.3c1.6,13.9,9.7,21.6,22.6,21.6c0.2,0,0.5,0,0.7,0c13.8-0.3,21.7-8.3,22.2-22.5
				c0.4-10.5,0.7-24.4-0.2-38.4c-0.9-13.1-8.7-20.5-22.1-20.8C232.8,71.6,232.5,71.6,232.3,71.6L232.3,71.6z"/>
		</g>
	</g>
</g>
</svg>
