<?xml version="1.0" encoding="utf-8"?>
<!-- Generator: Adobe Illustrator 23.1.0, SVG Export Plug-In . SVG Version: 6.00 Build 0)  -->
<svg version="1.1" id="Calque_1" xmlns="http://www.w3.org/2000/svg" xmlns:xlink="http://www.w3.org/1999/xlink" x="0px" y="0px"
	 viewBox="0 0 1125 1042" style="enable-background:new 0 0 1125 1042;" xml:space="preserve">
<style type="text/css">
	.st0{fill:#969696;}
</style>
<g>
	<g>
		<g>
			<path class="st0" d="M675.14,843.2c58.64,0,114.61-0.72,170.55,0.18c70.91,1.15,117.52,75.3,87.71,139.61
				c-16.77,36.17-46.04,57.23-86.34,57.76c-79.15,1.04-158.33,1.03-237.47,0c-39.58-0.51-68.43-21.09-85.35-56.5
				c-5.22-10.93-10.61-14.57-22.61-14.53c-129.24,0.47-258.48,0.33-387.73,0.28C46.67,969.97,6.02,929.59,6,862.84
				C5.95,731.99,6.34,601.15,5.74,470.31c-0.16-33.39,11.1-60.4,34.88-83.54c30.86-30.04,59.71-62.21,91.33-91.4
				c23.89-22.05,28.36-47.86,23.74-79.84c-5.7,0-11.42,0.29-17.11-0.05c-32.53-1.94-53.77-23.83-54.14-56.52
				c-0.38-33.92-0.37-67.85,0-101.77c0.36-33.42,22.15-56.42,55.59-56.53C273.58,0.2,407.13,0.2,540.68,0.67
				c33.63,0.12,54.66,22.59,55.09,56.66c0.41,32.84,0.26,65.69,0.06,98.54c-0.24,38.74-20.86,59.12-60.13,59.93
				c-3.22,0.07-6.43,0.31-10.71,0.52c-3.29,27.93-3.16,53.58,20.01,75.39c32.91,30.99,63.62,64.31,95.86,96.03
				c23.64,23.26,34.57,50.79,34.45,83.93c-0.43,116.84-0.17,233.69-0.17,350.53C675.14,828.54,675.14,834.88,675.14,843.2z
				 M53.19,493.74c6.01,0,11.81,0,17.61,0c57.63,0,115.26-0.05,172.9,0.01c56.65,0.06,91.25,34.72,91.41,91.76
				c0.15,53.86,0.09,107.71,0.02,161.57c-0.08,59.98-33.95,93.71-94.34,93.85c-57.09,0.13-114.19,0.03-171.28,0.03
				c-5.66,0-11.31,0-17.8,0c0,11.19-0.14,19.78,0.02,28.36c0.62,32.29,22.76,54.66,55.31,54.71c131.96,0.21,263.92,0,395.89,0.29
				c9.17,0.02,12.56-2.82,15.43-11.67c13.92-42.88,49.38-68.36,94.7-69.56c4.62-0.12,9.22-0.64,13.74-0.97
				c0.35-3.7,0.73-5.84,0.73-7.97c0.03-123.33-0.02-246.66,0.1-369.99c0.02-16.7-6.61-29.94-18.21-41.57
				c-33.09-33.17-65.48-67.05-98.95-99.84c-23.36-22.89-34.9-49.84-33.9-82.39c0.24-7.79,0.04-15.58,0.04-23.63
				c-92.4,0-182.09,0-272.71,0c-0.26,5.59-0.93,10.34-0.62,15.02c2.58,38.66-11.47,69.83-39.61,96.4
				c-30.14,28.45-57.53,59.85-88.04,87.86C51.95,437.74,48.81,463.24,53.19,493.74z M52.41,794.84c65.29,0,128.76,0.05,192.22-0.02
				c29.5-0.03,43.75-13.86,43.87-43.2c0.23-55.95,0.2-111.89,0.02-167.84c-0.1-30.32-14.23-44.16-44.64-44.2
				c-59.18-0.08-118.36-0.04-177.54,0.02c-4.62,0-9.24,0.59-13.92,0.92C52.41,625.59,52.41,709.32,52.41,794.84z M340.98,169.42
				c0-0.11,0-0.23,0-0.34c63.51,0,127.02-0.22,190.52,0.18c12.81,0.08,18.42-3.35,17.96-17.41c-0.96-29.57-0.69-59.19-0.1-88.78
				c0.24-11.76-3.69-16.3-15.72-16.28c-129.17,0.26-258.34,0.25-387.51,0.01c-11.27-0.02-15.11,4.2-14.93,15.25
				c0.48,30.67,0.57,61.35-0.04,92.02c-0.24,12.11,4.17,15.66,16.06,15.58C211.82,169.17,276.4,169.42,340.98,169.42z
				 M752.27,889.12c0,36.28,0,70.75,0,105.35c3.46,0.33,5.58,0.7,7.71,0.71c27.94,0.04,55.9,0.44,83.83-0.08
				c28.98-0.54,51.1-22.77,51.81-51.04c0.74-29.34-20.24-53.49-49.79-54.66C815.27,888.19,784.63,889.12,752.27,889.12z
				 M704.31,889.47c-33.57,0-65.75-1.52-97.72,0.47c-26.52,1.65-45.96,25.25-46.6,51.35c-0.59,24.48,16.89,49.99,41.56,52.07
				c33.87,2.87,68.17,0.72,102.75,0.72C704.31,959.2,704.31,925.46,704.31,889.47z"/>
			<path class="st0" d="M1020.51,840.73c-27.22,0.15-50.6-9.6-69.75-28.61c-54.6-54.24-109.29-108.41-163.18-163.35
				c-39.29-40.05-38.05-102.08,1.46-140.62c38.78-37.82,100.06-37.56,139.54,1.45c54.37,53.71,108.37,107.79,162.14,162.1
				c29.31,29.6,37.06,71.68,21.27,108.86C1096.33,817.46,1060.9,840.75,1020.51,840.73z M959.27,604.71
				c-21.22-20.99-42.54-42.96-64.84-63.9c-20.67-19.42-51.25-19.2-71.76-0.78c-20.48,18.39-24.85,50.55-6.24,71.11
				c21.82,24.12,46.63,45.54,69.45,67.47C909.39,654.95,933.5,630.67,959.27,604.71z M922.55,713.91
				c21.55,22.74,42.73,47.89,66.92,69.7c19.49,17.58,50.89,13.48,69.11-4.93c17.8-17.98,21.64-48.68,4.44-67.73
				c-22.12-24.49-47.41-46.12-69.87-67.58C969.74,666.77,945.49,691,922.55,713.91z"/>
			<path class="st0" d="M362.4,108.21c0,6.99,0.59,14.04-0.13,20.95c-1.28,12.45-8.8,19.49-21.2,20.13
				c-13.25,0.68-22.29-6.42-23.67-19.21c-1.54-14.34-1.56-29.11-0.02-43.45c1.37-12.68,10.22-20.06,23.55-19.36
				c13.24,0.7,20.51,8.44,21.47,21.6c0.47,6.42,0.08,12.9,0.08,19.35C362.47,108.21,362.44,108.21,362.4,108.21z"/>
			<path class="st0" d="M478.43,109.06c0,6.99,0.78,14.08-0.17,20.94c-1.71,12.32-9.54,19.07-21.96,19.33
				c-12.48,0.26-21.39-6.42-22.64-18.49c-1.55-14.89-1.57-30.18,0.01-45.06c1.27-11.96,10.01-18.81,22.57-18.56
				c12.47,0.25,20.26,7.07,22,19.29C479.29,93.88,478.43,101.53,478.43,109.06z"/>
			<path class="st0" d="M200.84,106.71c0-6.45-0.91-13.06,0.19-19.31c2.2-12.52,9.68-20.47,23.11-20.18
				c13.26,0.29,21.23,7.69,22.09,20.87c0.84,12.85,0.68,25.8,0.21,38.68c-0.51,13.92-8.15,22.22-22.22,22.5
				c-14.1,0.28-21.77-8.08-23.36-21.62c-0.81-6.89-0.14-13.96-0.14-20.95C200.75,106.71,200.8,106.71,200.84,106.71z"/>
		</g>
	</g>
</g>
</svg>
