<?xml version="1.0" encoding="utf-8"?>
<!-- Generator: Adobe Illustrator 23.1.0, SVG Export Plug-In . SVG Version: 6.00 Build 0)  -->
<svg version="1.1" id="Calque_1" xmlns="http://www.w3.org/2000/svg" xmlns:xlink="http://www.w3.org/1999/xlink" x="0px" y="0px"
	 viewBox="0 0 1125 1042" style="enable-background:new 0 0 1125 1042;" xml:space="preserve">
<style type="text/css">
	.st0{fill:#FFFFFF;stroke:#FFFDFD;stroke-width:0.95;stroke-miterlimit:10;}
</style>
<g>
	<g>
		<path class="st0" d="M845.3,2.9c96.2-0.3,182.1,56.2,219.9,144.5c37.8,88.3,19.7,191-48.3,259.6
			C884.8,540.2,751.7,672.5,619,805.1c-55.7,55.7-110.8,112-167.3,166.9c-124.1,120.5-332.8,71.7-389.3-91.8
			c-32.5-94.2-12-179.1,57.7-250.3C198,550.4,277.3,472.5,356,393.8C462.3,287.5,568.6,181,675.1,74.8
			C722.9,27.1,780.3,3.1,845.3,2.9z M298.4,1004.6c49.9-2.1,96.8-23.4,136.1-62.8c147.1-147.3,294.4-294.4,441.6-441.6
			c39.2-39.2,79.1-77.7,117.3-117.8c47.3-49.6,66.1-109.6,53.5-176.9c-15-80.3-62.5-135.3-140.7-159.4c-78-24-148.4-5.7-206.3,52
			c-186,185.1-371.4,370.8-556.8,556.5c-47,47.1-66.7,104.4-59.4,170.8C95,928.8,189.4,1009.9,298.4,1004.6z"/>
		<path class="st0" d="M566.4,709.6c-5.4-3.3-10.3-5.1-13.8-8.5c-55.6-55.3-111-110.7-166.3-166.2c-10.1-10.1-9.9-18.3,0.4-28.6
			c54.8-54.9,109.6-109.8,164.6-164.5c11.1-11.1,19.1-11,30.5,0.4c54.6,54.5,109.2,109.1,163.7,163.7c11,11,10.9,19.1-0.4,30.4
			C690.5,590.8,636,645.4,581.2,699.8C577.3,703.8,571.7,706.1,566.4,709.6z M566.2,664.1c47.5-47.5,95.8-95.7,143.3-143.2
			c-47.5-47.5-95.8-95.7-143.2-143.1c-47.4,47.4-95.7,95.7-143.2,143.2C470.4,568.4,518.7,616.6,566.2,664.1z"/>
		<path class="st0" d="M827.6,275.7c-8.9-0.3-16.5-8-16.5-16.9c0.1-9.4,8.3-16.9,17.9-16.4c9.4,0.5,16,7.8,15.6,17.3
			C844.3,268.9,836.7,276,827.6,275.7z"/>
		<path class="st0" d="M218,791.5c0.2,9.2-6.8,16.8-15.9,17.2c-9.4,0.4-17.7-7.5-17.6-16.9c0.1-9,7.5-16.4,16.7-16.5
			C210.7,775.3,217.8,782.2,218,791.5z"/>
		<path class="st0" d="M311.9,885.1c0.2,9-7,16.6-16.2,17c-9.5,0.4-16.8-6.2-17.3-15.6c-0.5-9.8,6.8-17.6,16.5-17.7
			C304,868.7,311.7,876.1,311.9,885.1z"/>
		<path class="st0" d="M725,251.7c9.3-0.2,16.7,6.9,17,16c0.3,9.7-7.3,17.4-17,17.2c-9.2-0.1-16.4-7.4-16.4-16.6
			C708.5,259.1,715.8,251.8,725,251.7z"/>
		<path class="st0" d="M938.7,351.8c0.3,8.8-7.1,16.8-16.1,17.4c-9.6,0.6-17.5-7-17.6-16.7c-0.1-9.4,6.8-16.4,16.3-16.6
			C930.5,335.8,938.4,343,938.7,351.8z"/>
		<path class="st0" d="M818.7,378.6c-8.9-0.1-16.6-7.8-16.8-16.6c-0.2-9.4,7.8-16.9,17.6-16.6c9.6,0.3,16.1,7.3,15.9,16.8
			C835.1,371.3,827.6,378.7,818.7,378.6z"/>
		<path class="st0" d="M716.4,388.1c-8.8,0.3-16.7-7.1-17.2-16.1c-0.5-9.4,6.1-16.7,15.6-17.2c10-0.6,17.7,6.5,17.8,16.2
			C732.7,380,725.3,387.8,716.4,388.1z"/>
		<path class="st0" d="M809.1,481.3c-9-0.2-16.5-7.8-16.5-16.7c0-8.9,7.6-16.5,16.6-16.6c9.7-0.1,17.2,7.6,16.9,17.4
			C825.7,474.6,818.4,481.4,809.1,481.3z"/>
		<path class="st0" d="M399.9,669.9c0.2-9.4,7.2-16,16.9-15.9c9.6,0.1,16.5,6.9,16.5,16.3c0,9.4-8.2,17.5-17.5,17
			C406.9,686.8,399.7,678.9,399.9,669.9z"/>
		<path class="st0" d="M314.1,663.4c9.3,0.2,16.7,7.5,16.5,16.5c-0.1,9.3-8.6,17.3-17.9,16.7c-9-0.6-15.9-8.2-15.7-17.5
			C297.4,669.7,304.4,663.2,314.1,663.4z"/>
		<path class="st0" d="M526.7,763.9c0,9.4-6.9,16.5-16.3,16.7c-9.5,0.2-17.6-7.8-17.2-17.2c0.3-8.9,8.1-16.3,17.1-16.2
			C519.5,747.3,526.7,754.6,526.7,763.9z"/>
		<path class="st0" d="M423.9,773.2c0,9.2-7.2,16.5-16.4,16.7c-9.7,0.2-17.4-7.6-17.1-17.2c0.3-9,7.9-16.3,17-16.1
			C416.7,756.7,423.9,764,423.9,773.2z"/>
		<path class="st0" d="M321.3,782.4c0.1,8.9-7.4,16.6-16.4,16.9c-9.7,0.3-17.3-7.2-17.1-17c0.2-9.4,7.3-16.3,16.6-16.3
			C313.6,766.1,321.2,773.4,321.3,782.4z"/>
		<path class="st0" d="M854.1,155.7c0.2,9.4-6.6,16.6-16,16.9c-9.6,0.3-17.6-7.4-17.5-16.9c0.2-8.9,7.8-16.4,16.8-16.5
			C846.6,139.2,853.9,146.5,854.1,155.7z"/>
		<path class="st0" d="M734.6,148.7c9.1,0,16.7,7.4,16.8,16.4c0.2,9.5-7.7,17.2-17.4,16.9c-9.2-0.2-16.2-7.6-16.1-16.9
			C718.2,155.9,725.4,148.7,734.6,148.7z"/>
		<path class="st0" d="M398.1,892.8c-9.2,0.1-16.7-6.9-17.1-16c-0.4-9.5,7.5-17.4,17.1-17.2c9.3,0.2,16.4,7.4,16.3,16.7
			C414.4,885.6,407.4,892.6,398.1,892.8z"/>
		<path class="st0" d="M623.9,261c9.1,0.9,16.1,9,15.4,17.8c-0.8,9.5-9.3,16.3-18.9,15.3c-9.1-1-15.4-8.9-14.5-18.2
			C606.8,266.7,614.8,260.1,623.9,261z"/>
		<path class="st0" d="M339.9,576.5c0.2,8.8-7.2,16.6-16.2,16.9c-9.3,0.4-16.8-6.4-17.3-15.6c-0.5-9.7,6.9-17.6,16.6-17.6
			C332,560.2,339.7,567.6,339.9,576.5z"/>
		<path class="st0" d="M210.7,672.8c9.5-0.1,16.6,6.7,16.7,16.1c0.1,9.1-7.1,16.9-16,17.2c-9.1,0.4-17.7-7.9-17.6-17.1
			C193.9,680.1,201.4,672.8,210.7,672.8z"/>
		<path class="st0" d="M931.5,266.5c-8.9,0.3-16.7-7-17.1-16.1c-0.4-9.3,6.3-16.7,15.7-17.2c9.8-0.5,17.9,6.9,17.9,16.3
			C948.1,258.2,940.3,266.2,931.5,266.5z"/>
	</g>
</g>
</svg>
