<?xml version="1.0" encoding="utf-8"?>
<!-- Generator: Adobe Illustrator 23.1.0, SVG Export Plug-In . SVG Version: 6.00 Build 0)  -->
<svg version="1.1" id="Calque_1" xmlns="http://www.w3.org/2000/svg" xmlns:xlink="http://www.w3.org/1999/xlink" x="0px" y="0px"
	 viewBox="0 0 1125 1042" style="enable-background:new 0 0 1125 1042;" xml:space="preserve">
<style type="text/css">
	.st0{fill:#969696;stroke:#969696;stroke-miterlimit:10;}
</style>
<g>
	<g>
		<path class="st0" d="M839.26,5.48c95.95-0.26,181.75,56.12,219.39,144.15c37.69,88.14,19.62,190.64-48.19,259.04
			C878.64,541.62,745.85,673.62,613.45,806c-55.59,55.58-110.56,111.79-166.97,166.52c-123.86,120.2-332.12,71.55-388.45-91.61
			c-32.45-93.99-11.93-178.71,57.6-249.75c77.64-79.31,156.82-157.12,235.31-235.6C457.09,289.45,563.16,183.25,669.41,77.22
			C717.15,29.59,774.39,5.65,839.26,5.48z M293.53,1005.09c49.81-2.09,96.59-23.39,135.76-62.63
			C576.06,795.46,723.06,648.68,869.95,501.8c39.1-39.09,78.9-77.52,117.03-117.54c47.18-49.53,65.98-109.35,53.44-176.55
			c-14.95-80.11-62.4-135.03-140.39-159.02C822.15,24.73,751.96,43,694.14,100.55C508.55,285.26,323.51,470.53,138.57,655.88
			C91.65,702.89,72.04,760.04,79.29,826.3C90.56,929.42,184.74,1010.34,293.53,1005.09z"/>
		<path class="st0" d="M560.9,710.65c-5.37-3.26-10.32-5.11-13.74-8.51C491.72,647,436.42,591.71,381.21,536.34
			c-10.04-10.07-9.91-18.24,0.38-28.56c54.66-54.81,109.4-109.53,164.21-164.19c11.12-11.09,19.02-10.99,30.42,0.37
			c54.53,54.38,109,108.82,163.38,163.34c10.99,11.02,10.84,19.1-0.4,30.36c-54.4,54.51-108.85,108.98-163.47,163.26
			C571.78,704.86,566.26,707.2,560.9,710.65z M560.77,665.33c47.43-47.4,95.61-95.55,142.98-142.88
			c-47.43-47.39-95.58-95.51-142.9-142.8c-47.32,47.32-95.46,95.45-142.91,142.89C465.16,569.75,513.34,617.91,560.77,665.33z"/>
		<path class="st0" d="M821.63,277.69c-8.92-0.27-16.47-8.02-16.42-16.85c0.05-9.36,8.28-16.86,17.91-16.33
			c9.35,0.52,15.92,7.81,15.52,17.22C838.24,270.88,830.69,277.97,821.63,277.69z"/>
		<path class="st0" d="M213.32,792.43c0.22,9.18-6.78,16.77-15.85,17.18c-9.35,0.43-17.66-7.51-17.6-16.82
			c0.06-9,7.48-16.32,16.66-16.42C205.96,776.27,213.09,783.09,213.32,792.43z"/>
		<path class="st0" d="M306.98,885.8c0.22,8.99-6.99,16.57-16.12,16.94c-9.44,0.39-16.74-6.18-17.25-15.53
			c-0.54-9.76,6.76-17.61,16.45-17.68C299.11,869.46,306.75,876.81,306.98,885.8z"/>
		<path class="st0" d="M719.19,253.71c9.26-0.16,16.7,6.85,16.99,16.01c0.31,9.66-7.28,17.34-17,17.19
			c-9.18-0.14-16.38-7.42-16.4-16.59C702.77,261.17,709.98,253.87,719.19,253.71z"/>
		<path class="st0" d="M932.44,353.69c0.33,8.73-7.12,16.78-16.04,17.34c-9.53,0.6-17.5-6.98-17.56-16.69
			c-0.06-9.42,6.81-16.37,16.31-16.53C924.3,337.67,932.11,344.85,932.44,353.69z"/>
		<path class="st0" d="M812.65,380.42c-8.83-0.09-16.58-7.77-16.74-16.6c-0.17-9.4,7.78-16.91,17.56-16.59
			c9.53,0.31,16.11,7.29,15.85,16.8C829.08,373.13,821.57,380.51,812.65,380.42z"/>
		<path class="st0" d="M710.6,389.85c-8.82,0.29-16.7-7.07-17.15-16.03c-0.47-9.37,6.12-16.65,15.56-17.18
			c10.02-0.56,17.71,6.44,17.78,16.18C726.86,381.79,719.48,389.56,710.6,389.85z"/>
		<path class="st0" d="M803.1,482.82c-9.02-0.18-16.51-7.75-16.48-16.64c0.03-8.87,7.62-16.46,16.61-16.6
			c9.65-0.15,17.2,7.62,16.85,17.32C819.73,476.18,812.44,483.02,803.1,482.82z"/>
		<path class="st0" d="M394.78,671.09c0.22-9.4,7.22-15.99,16.86-15.89c9.58,0.11,16.47,6.89,16.51,16.27
			c0.04,9.43-8.2,17.42-17.45,16.93C401.82,687.94,394.57,680.06,394.78,671.09z"/>
		<path class="st0" d="M309.18,664.6c9.3,0.19,16.62,7.48,16.5,16.43c-0.12,9.31-8.6,17.24-17.83,16.67
			c-9.02-0.55-15.9-8.23-15.63-17.42C292.51,670.85,299.49,664.4,309.18,664.6z"/>
		<path class="st0" d="M521.32,764.85c0.02,9.34-6.93,16.47-16.23,16.64c-9.48,0.17-17.52-7.82-17.21-17.12
			c0.3-8.88,8.1-16.27,17.08-16.16C514.16,748.32,521.3,755.59,521.32,764.85z"/>
		<path class="st0" d="M418.75,774.18c0.02,9.15-7.16,16.47-16.33,16.65c-9.64,0.19-17.36-7.55-17.07-17.12
			c0.27-9.03,7.85-16.22,16.97-16.09C411.54,757.74,418.73,764.99,418.75,774.18z"/>
		<path class="st0" d="M316.32,783.33c0.11,8.85-7.36,16.58-16.33,16.88c-9.68,0.32-17.24-7.21-17.07-17
			c0.17-9.37,7.24-16.28,16.61-16.23C308.66,767.03,316.21,774.39,316.32,783.33z"/>
		<path class="st0" d="M847.98,157.96c0.15,9.41-6.63,16.58-15.94,16.87c-9.6,0.3-17.6-7.42-17.44-16.83
			c0.15-8.89,7.8-16.38,16.8-16.43C840.51,141.52,847.83,148.76,847.98,157.96z"/>
		<path class="st0" d="M728.82,150.95c9.05-0.02,16.62,7.34,16.8,16.33c0.19,9.46-7.71,17.15-17.34,16.9
			c-9.21-0.25-16.15-7.54-16.02-16.83C712.38,158.15,719.63,150.97,728.82,150.95z"/>
		<path class="st0" d="M392.97,893.47c-9.22,0.13-16.68-6.89-17.03-16c-0.36-9.47,7.48-17.35,17.11-17.18
			c9.27,0.16,16.33,7.38,16.29,16.66C409.29,886.27,402.29,893.34,392.97,893.47z"/>
		<path class="st0" d="M618.31,263.01c9.04,0.89,16.05,9.01,15.33,17.76c-0.77,9.45-9.26,16.31-18.87,15.24
			c-9.12-1.01-15.36-8.87-14.44-18.18C601.23,268.74,609.27,262.12,618.31,263.01z"/>
		<path class="st0" d="M334.96,577.9c0.21,8.82-7.18,16.54-16.2,16.9c-9.25,0.37-16.74-6.4-17.24-15.59
			c-0.53-9.64,6.92-17.59,16.52-17.61C327.03,561.58,334.75,569.01,334.96,577.9z"/>
		<path class="st0" d="M205.95,673.93c9.53-0.07,16.55,6.69,16.68,16.04c0.12,9.06-7.11,16.84-15.97,17.19
			c-9.11,0.36-17.62-7.92-17.54-17.06C189.19,681.21,196.7,674,205.95,673.93z"/>
		<path class="st0" d="M925.29,268.49c-8.88,0.29-16.65-7.02-17.07-16.08c-0.43-9.26,6.32-16.65,15.64-17.13
			c9.79-0.5,17.87,6.84,17.9,16.28C941.79,260.29,934.09,268.21,925.29,268.49z"/>
	</g>
</g>
</svg>
