<?xml version="1.0" encoding="utf-8"?>
<!-- Generator: Adobe Illustrator 23.1.0, SVG Export Plug-In . SVG Version: 6.00 Build 0)  -->
<svg version="1.1" id="Calque_1" xmlns="http://www.w3.org/2000/svg" xmlns:xlink="http://www.w3.org/1999/xlink" x="0px" y="0px"
	 viewBox="0 0 1125 1042" style="enable-background:new 0 0 1125 1042;" xml:space="preserve">
<style type="text/css">
	.st0{fill:#FFFFFF;}
</style>
<g>
	<g>
		<path class="st0" d="M259.5,698.9c0-199.5,0-399,0-598.6c0-40,38.4-50.8,79.4-50.8c36.1,0,62.8,0.6,99.5,0.6
			C451,5.8,452.1,5,496.1,4.9c31,0,62.1,0,93.1,0c45.1,0,45.2,0.1,58.3,45.2c39.6,0,79.9,0.4,120.3-0.1
			c29.3-0.3,53.6,19.9,53.6,48.1c0,12.2,0.2,18.4,0.2,30.5c0.7,121.3,1.4,242.6,1.3,363.9c0,61.1,0.8,122.3-2.9,183.2
			c-3.8,62.6-16,71.5-78.8,71.5c-42,0-83.9,0-128.5,0c0,34.6-25.2,48.9-43.3,48.9c0,27.2-0.1,52.4,0,77.7c0.2,26.3,1.7,52.7,0.7,79
			c-1.9,49.5-36.5,84-83.6,85.1c-52,1.2-87.5-31.2-99-91.8c-4.4-23.1-11.1-44.8-39-42c-27.8,2.8-34.6,24.7-33.9,49.9
			c0.6,20.7,0.8,41.4-0.8,62c-1.1,13.7-10,22.1-24.9,21.1c-12.9-0.8-22-7.6-22.2-20.8c-0.4-31.9-4.6-64,2.9-95.5
			c9.8-41.1,42.9-67.4,83-66.8c40.2,0.6,73.5,30.7,81,73c2,11.1,2.4,23,7,32.9c9.6,20.5,26.7,31.9,50.1,28.3
			c19.1-2.9,30.2-15.9,30.5-35.1c0.7-52.4,0.2-104.8,0.2-155.4c-19.5,0-50.6-19.5-53.7-50.4c-40.5,0-81.9-1.2-123.2,0.4
			C305.2,749.2,274.7,738.3,259.5,698.9z M334.5,114c0,191.1,0,378.6,0,567.4c141.7,0,281.2,0,421.8,0c0-189.8,0-377.9,0-567.4
			C614.8,114,476.1,114,334.5,114z M570.5,47.5c0-11.4-9.7-21.8-24.7-21.3c-14.6,0.5-22.6,9-22.2,23.5c0.4,14.5,9.1,22.6,23.5,22.3
			C561.7,71.8,570.5,66.6,570.5,47.5z M523.4,723.5c1.3,11.7,8.5,19,20.1,18.5c12.8-0.5,20.9-8.6,19.2-22.2
			c-1.5-11.7-9.5-17.8-21.5-17.1C528.7,703.5,523.5,711.3,523.4,723.5z"/>
		<path class="st0" d="M421.7,517.2c-15.5-0.8-33-0.6-32.9-21.7c0.2-21.8,18.4-20,33.2-19.9c14.6,0.1,33.1-2.6,33.8,19.3
			C456.6,519,436.8,515.6,421.7,517.2z"/>
		<path class="st0" d="M422.1,335.2c-15.8-0.7-33.9,1-33.3-20.9c0.5-20.8,18-20.9,33.2-20.7c14.9,0.2,33-0.9,33.8,20
			C456.6,337.9,436.5,333.9,422.1,335.2z"/>
		<path class="st0" d="M423.4,213.9c-15.4-0.9-34.2,2.8-35-19c-0.8-21.7,16.9-21.1,32.2-20.5c15.1,0.6,35.2-4.7,35.3,20.1
			C455.9,217.5,436.6,212.4,423.4,213.9z"/>
		<path class="st0" d="M423.1,394.7c-15.2-1-34,3.4-34.6-19c-0.6-22,17.1-20.9,32.3-20.4c15.3,0.5,35.2-3.9,35.1,20.5
			C455.7,398.9,436.2,392.9,423.1,394.7z"/>
		<path class="st0" d="M424.4,455.6c-16.5-0.3-34.8,2.9-35.9-18.8c-1.2-22.4,17-21.2,32-20.5c14.6,0.7,35.6-5.8,35.4,19.5
			C455.7,457.9,437.4,455.1,424.4,455.6z"/>
		<path class="st0" d="M423.6,536.3c14.8,0.4,33.1-2.5,32.3,20.2c-0.9,25.2-21.9,17.6-36.3,18.5c-14,0.9-31.2,2.1-31.1-18.3
			C388.4,532.4,408.2,536.9,423.6,536.3z"/>
		<path class="st0" d="M422.9,596.8c12.8,1.8,33.6-4.5,32.9,20.6c-0.6,22.3-19.3,18.5-33.8,18.8c-15,0.3-33.2,2.4-33.7-19.1
			C387.8,595.4,405.9,597,422.9,596.8z"/>
		<path class="st0" d="M424.2,235.3c13.2,1.5,32.7-3.6,31.6,19.8c-1.1,24.3-21.2,18.5-36.2,19.2c-14.3,0.6-30.9,1.3-31.2-18.5
			C388.2,231.2,408.2,236.2,424.2,235.3z"/>
	</g>
</g>
</svg>
