<?xml version="1.0" encoding="utf-8"?>
<!-- Generator: Adobe Illustrator 23.1.0, SVG Export Plug-In . SVG Version: 6.00 Build 0)  -->
<svg version="1.1" id="Calque_1" xmlns="http://www.w3.org/2000/svg" xmlns:xlink="http://www.w3.org/1999/xlink" x="0px" y="0px"
	 viewBox="0 0 1125 1042" style="enable-background:new 0 0 1125 1042;" xml:space="preserve">
<style type="text/css">
	.st0{fill:#969696;}
</style>
<g>
	<g>
		<path class="st0" d="M548.54,175.32c0-13.49,0-25.9,0-38.96c52.69,0,104.65,0,157.64,0c0,12.76,0,25.37,0,38.96
			c3.96,0,6.92,0,9.87,0c35.52,0,71.05-0.04,106.57,0.02c26.34,0.04,41.44,15.02,41.45,41.15c0.02,169.84,0.02,339.68,0,509.53
			c-0.01,25.59-15.28,40.78-40.97,40.81c-44.13,0.04-88.26,0.01-132.39,0.01c-3.02,0-6.04,0-10.4,0c0,13.26,0,26.08,0,39.54
			c-13.72,0-26.11,0-39.59,0c0,16.68,3.38,129.48,3.29,145.47c-0.09,17.58-5.66,33.26-17.18,46.58
			c-27.19,31.44-75.85,30.64-106.1-1.63c-13.89-14.82-20.52-32.6-21.59-52.72c-1.02-18.93-11.06-33.5-26.43-38.76
			c-24.39-8.33-50.79,10.42-51.8,37.5c-0.75,19.96-0.21,39.96-0.32,59.94c-0.02,3.03-0.08,6.17-0.89,9.04
			c-1.79,6.39-6.53,9.86-12.99,9.52c-6.81-0.36-12.15-4.45-12.23-11.38c-0.29-24.68-1.95-49.62,0.86-73.99
			c4.23-36.74,34.64-61.01,69.49-59.04c33.38,1.88,58.52,29.74,60.95,67.55c1.63,25.38,17.54,44.2,41.75,49.4
			c24.26,5.2,46.69-10.79,49.68-35.51c0.34-2.74,0.27-5.54,0.27-8.32c0.02-15.21-3.3-127.23-3.3-143.46c-13.18,0-25.76,0-39.36,0
			c0-13.61,0-26.22,0-39.75c-3.99,0-6.96,0-9.94,0c-44.41,0-88.82,0.03-133.22-0.01c-25.63-0.03-40.83-15.24-40.83-40.94
			c-0.03-169.84-0.03-339.68-0.01-509.52c0.01-25.76,15.08-40.97,40.73-41.02c35.53-0.08,71.05-0.02,106.58-0.02
			C541.21,175.32,544.25,175.32,548.54,175.32z M456.52,241.38c0,3.61,0,6.34,0,9.06c0,147.11,0.06,294.23-0.19,441.35
			c-0.01,7.93,2.5,9.54,9.87,9.52c107.43-0.21,214.86-0.23,322.29,0.03c8.03,0.02,10.13-2.14,10.11-10.14
			c-0.24-146.84-0.17-293.68-0.19-440.52c0-2.96-0.25-5.92-0.4-9.31C684.13,241.38,571,241.38,456.52,241.38z M574.78,201.78
			c-4.29,0-7.54,0-10.8,0c-43.57,0-87.13-0.02-130.7,0.01c-13.29,0.01-15.95,2.72-15.95,16.2c-0.01,168.7-0.01,337.41-0.01,506.11
			c0.01,13.56,2.62,16.23,15.89,16.23c44.12,0.02,88.24,0.01,132.36-0.01c2.91-0.01,5.83-0.25,8.66-0.37c0-4.55,0-8.07,0-12.68
			c-48.02,0-95.57,0-143.31,0c0-171.28,0-341.46,0-512.69c63.61,0,126.62,0,189.32,0c-3.64-10.37-10.31-13.88-20.69-13.44
			c-7.12,0.3-11.25-5.6-11.51-12.89c-0.25-6.84,5.3-12.3,12.71-12.82c4.12-0.29,8.3-0.05,11.91-0.05c2.83-4.65,5.31-8.74,7.77-12.79
			c-14.88,0-29.76,0-45.67,0C574.78,175.6,574.78,188.23,574.78,201.78z M824.13,215.17c0,171.23,0,341.22,0,512.3
			c-48.02,0-95.56,0-143.28,0c0,4.82,0,8.52,0,12.87c3.06,0,5.51,0,7.96,0c44.4,0,88.8,0.01,133.2-0.01
			c12.87-0.01,15.62-2.74,15.62-15.67c0.01-168.98,0.01-337.96,0-506.95c0-13.27-2.71-15.92-16.23-15.93
			c-43.56-0.02-87.13-0.01-130.7-0.01c-3.24,0-6.48,0-10.71,0c0-13.74,0-26.39,0-39.25c-15.86,0-30.72,0-46.37,0
			c2.01,2.39,3.76,4.07,5.01,6.06c1.28,2.03,2.06,4.38,3.14,6.76c3.85,0,7.45-0.12,11.04,0.02c8.47,0.34,14.24,5.77,14.16,13.18
			c-0.08,7.04-5.76,13.87-13.48,12.82c-11.34-1.55-14.68,5.57-19.51,13.81C697.81,215.17,760.71,215.17,824.13,215.17z
			 M653.41,727.94c-17.45,0-34.45,0-51.71,0c0,17.55,0,34.53,0,51.47c17.59,0,34.6,0,51.71,0
			C653.41,762.01,653.41,745.23,653.41,727.94z"/>
		<path class="st0" d="M522.53,280.47c4.44,0.01,8.9-0.25,13.32,0.07c7.35,0.52,12.65,6.08,12.75,12.9
			c0.1,6.76-5.07,12.83-12.4,13.24c-9.13,0.5-18.33,0.48-27.46,0.04c-7.44-0.36-12.64-6.12-12.73-12.92
			c-0.1-7.2,5.32-12.81,13.2-13.28C513.63,280.24,518.08,280.46,522.53,280.47z"/>
		<path class="st0" d="M522.16,385.56c4.44-0.01,8.9-0.27,13.32,0.05c7.79,0.58,13.3,6.42,13.12,13.46
			c-0.17,6.81-5.45,12.47-12.87,12.8c-8.87,0.39-17.77,0.38-26.64,0.01c-7.89-0.33-13.26-6.2-13.09-13.38
			c0.16-6.81,5.37-12.25,12.84-12.85C513.26,385.28,517.72,385.58,522.16,385.56z"/>
		<path class="st0" d="M521.73,516.99c-4.44,0-8.91,0.29-13.31-0.07c-7.42-0.6-11.84-5.05-12.28-12.29
			c-0.44-7.33,3.75-12.77,10.94-13.38c10.17-0.86,20.52-0.77,30.7,0.04c6.9,0.54,11.56,7.19,10.7,13.62
			c-0.96,7.18-5.15,11.59-12.6,12.05c-4.7,0.29-9.43,0.05-14.15,0.05V516.99z"/>
		<path class="st0" d="M521.97,569.72c-4.44,0-8.91,0.36-13.3-0.08c-7.77-0.77-13.09-6.85-12.66-13.85
			c0.43-6.89,5.66-12.03,13.28-12.28c8.87-0.29,17.76-0.33,26.63,0.04c7.39,0.31,12.89,6.02,12.62,12.87
			c-0.29,7.31-4.36,12.06-11.61,13.04c-4.9,0.67-9.97,0.13-14.96,0.13V569.72z"/>
		<path class="st0" d="M521.96,674.89c-4.45,0-8.91,0.32-13.32-0.08c-7.42-0.65-12.59-6.22-12.64-13.04
			c-0.05-7.19,5.39-12.89,13.3-13.17c8.59-0.32,17.22-0.3,25.81-0.01c7.88,0.26,13.45,5.9,13.49,13.02
			c0.05,7.07-5.47,12.73-13.32,13.26c-4.43,0.3-8.88,0.05-13.32,0.05V674.89z"/>
		<path class="st0" d="M522.24,464.24c-4.99-0.01-10.05,0.54-14.94-0.13c-7.33-1.01-11.44-5.94-11.16-13.22
			c0.29-7.23,4.58-12.04,12.07-12.37c9.41-0.41,18.86-0.4,28.28,0.01c6.97,0.31,12.22,5.89,12.04,12.47
			c-0.19,7.23-3.92,12.23-11.36,13.13C532.27,464.74,527.23,464.25,522.24,464.24z"/>
		<path class="st0" d="M521.62,621.99c-4.71,0-9.47,0.41-14.13-0.1c-7.03-0.78-11.03-5.38-11.36-12.21
			c-0.33-6.89,3.34-12.43,10.25-13.02c10.44-0.89,21.05-0.84,31.51-0.1c7.05,0.49,10.43,5.99,10.65,12.81
			c0.21,6.55-5.04,11.8-11.95,12.66l-1.66,0.11c-4.44,0.01-8.87,0.01-13.31,0.01V621.99z"/>
		<path class="st0" d="M522.46,359.13c-4.71,0-9.45,0.32-14.13-0.08c-7.4-0.62-12.75-6.3-12.27-13.11
			c0.52-7.24,4.47-12.15,11.95-12.53c9.4-0.48,18.86-0.48,28.26-0.04c7.49,0.36,12.8,6.2,12.27,13.07
			c-0.56,7.18-4.41,11.97-11.95,12.58c-4.68,0.38-9.41,0.07-14.13,0.07V359.13z"/>
		<polyline class="st0" points="640.99,162.52 640.99,32.19 612.88,32.19 612.88,162.52 		"/>
		<path class="st0" d="M283.7,1003.5V220.27c-0.03-40.4,14.18-76.31,35.76-101.32c10.77-12.52,23.29-22.29,36.71-28.87
			c13.45-6.59,27.72-10.08,42.9-10.1H712.7V2.69l-313.63,0c-27.35-0.02-53.58,6.5-76.99,18.02c-35.17,17.31-64.03,45.55-84.12,80.09
			c-20.09,34.57-31.54,75.66-31.54,119.47v783.23H283.7L283.7,1003.5z"/>
		<ellipse cx="712.7" cy="41.39" rx="19.17" ry="19.17"/>
		<path d="M712.7,80.11c-21.35,0-38.72-17.37-38.72-38.72S691.35,2.67,712.7,2.67c21.35,0,38.72,17.37,38.72,38.72
			S734.05,80.11,712.7,80.11z M712.31,41.39h0.77h18.79h-18.79H712.31z"/>
		<path class="st0" d="M712.7,80.11c-21.35,0-38.72-17.37-38.72-38.72S691.35,2.67,712.7,2.67c21.35,0,38.72,17.37,38.72,38.72
			S734.05,80.11,712.7,80.11z"/>
		<path d="M264.19,1003.35c0,10.57-8.57,19.14-19.14,19.14s-19.13-8.57-19.13-19.14c0-10.57,8.56-19.14,19.13-19.14
			S264.19,992.78,264.19,1003.35z"/>
		<path d="M245.05,1042c-21.31,0-38.65-17.34-38.65-38.65s17.34-38.65,38.65-38.65s38.66,17.34,38.66,38.65S266.37,1042,245.05,1042
			z M244.68,1003.35h0.76h18.75h-18.75H244.68z"/>
		<path class="st0" d="M245.05,1042c-21.31,0-38.65-17.34-38.65-38.65s17.34-38.65,38.65-38.65s38.66,17.34,38.66,38.65
			S266.37,1042,245.05,1042z"/>
	</g>
</g>
</svg>
