<?xml version="1.0" encoding="utf-8"?>
<!-- Generator: Adobe Illustrator 23.1.0, SVG Export Plug-In . SVG Version: 6.00 Build 0)  -->
<svg version="1.1" id="Calque_1" xmlns="http://www.w3.org/2000/svg" xmlns:xlink="http://www.w3.org/1999/xlink" x="0px" y="0px"
	 viewBox="0 0 1125 1042" style="enable-background:new 0 0 1125 1042;" xml:space="preserve">
<style type="text/css">
	.st0{fill:#969696;stroke:#969696;stroke-miterlimit:10;}
	.st1{fill:#969696;stroke:#969696;stroke-width:0.5;stroke-miterlimit:10;}
	.st2{fill:#969696;}
</style>
<g>
	<g>
		<path class="st0" d="M300.89,196.59c-8.6,0-15.6,0.67-22.44-0.12c-24.01-2.8-42.3-23.03-42.7-48.1
			c-0.52-32.56-0.53-65.13-0.01-97.69c0.45-27.82,21.04-48.75,48.94-48.84c108.3-0.36,216.6-0.37,324.9,0.01
			c27.51,0.1,47.76,20.14,48.54,47.99c0.92,32.9,0.92,65.87,0.01,98.78c-0.8,28.82-21.71,47.95-50.49,48.27
			c-4.33,0.05-8.66,0.01-14.36,0.01c0,5.34,0,9.96,0,14.58c0,246.98,0,493.96,0,740.94c0,56.04-33.39,89.51-89.31,89.54
			c-38.78,0.02-77.57,0.07-116.35-0.01c-52.4-0.12-86.68-34.22-86.69-86.5c-0.06-247.71-0.03-495.43-0.03-743.14
			C300.89,207.63,300.89,202.95,300.89,196.59z M333.99,294.78c-0.2,4.42-0.46,7.67-0.46,10.92
			c-0.02,216.94-0.05,433.89,0.03,650.83c0.01,32.88,19.91,52.59,52.61,52.65c39.88,0.08,79.75,0.05,119.63,0.01
			c35.6-0.03,54.71-19.21,54.71-55c0.02-215.85,0.01-431.69-0.01-647.54c0-3.85-0.36-7.7-0.56-11.88
			C484.29,294.78,409.79,294.78,333.99,294.78z M447.76,34.42c-52.3,0-104.59-0.02-156.89,0.01c-17.25,0.01-22.49,5.11-22.52,21.92
			c-0.05,28.89-0.06,57.79,0.01,86.68c0.04,15.73,5.32,21.07,21.01,21.08c104.96,0.04,209.92,0.04,314.88,0
			c16.3-0.01,21.52-5.28,21.56-21.76c0.08-28.53,0.07-57.05,0-85.58c-0.04-17.01-5.33-22.32-22.25-22.34
			C551.62,34.39,499.69,34.42,447.76,34.42z M334.05,261.09c75.59,0,150.64,0,225.56,0c0-21.8,0-42.76,0-63.49
			c-75.69,0-150.47,0-225.56,0C334.05,219.03,334.05,239.75,334.05,261.09z"/>
		<path class="st1" d="M658.37,687.02c0.09-22.62,13.41-55.69,30.57-87.43c26.97-49.87,61.89-93.89,100.9-134.79
			c9.45-9.91,18.34-11.1,26.54-2.51c50.51,52.92,95.79,109.59,122.34,178.84c20.64,53.84,15.79,104.87-20.48,150.94
			c-38.47,48.88-103.43,66.87-163,46.1C697.79,818.14,658.36,762.45,658.37,687.02z M804.68,496.53
			c-39.54,44.21-74.83,88.85-98.47,141.54c-12.18,27.15-19.48,55.29-13.03,85.26c13.63,63.37,74.96,102.34,137.7,87.77
			c61.06-14.18,99.43-76.5,83.4-138.34C896.26,603.26,850.79,550.4,804.68,496.53z"/>
		<path class="st2" d="M463.27,99.39c0,5.84,0.53,11.74-0.12,17.51c-1.07,9.41-8.35,15.4-17.26,14.61c-9.45-0.84-14.6-6.56-15-15.76
			c-0.48-10.93-0.51-21.92,0.01-32.85c0.44-9.16,5.62-14.9,15.07-15.71c8.93-0.77,16.12,5.21,17.19,14.7
			C463.8,87.65,463.27,93.55,463.27,99.39z"/>
		<path class="st2" d="M593.19,100.07c-0.01,5.48,0.45,11-0.12,16.42c-0.96,9.2-6.28,14.74-15.72,15.02
			c-9.57,0.28-15.61-5.31-16.35-14.28c-0.99-11.96-1.03-24.14,0.07-36.09c0.83-8.95,7.05-14.42,16.62-13.94
			c9.47,0.47,14.58,6.19,15.41,15.36C593.63,88.35,593.2,94.23,593.19,100.07z"/>
		<path class="st2" d="M301,98.94c-0.01-5.47-0.33-10.97,0.06-16.42c0.67-9.34,5.92-14.84,15.31-15.31
			c8.9-0.45,15.45,4.23,16.18,12.93c1.07,12.65,1.16,25.53,0.06,38.18c-0.8,9.22-7.7,13.9-17.09,13.11
			c-8.88-0.75-13.84-6.14-14.44-14.98C300.69,110.64,301.01,104.78,301,98.94z"/>
		<path class="st2" d="M398.09,99.34c0,5.47,0.24,10.96-0.05,16.42c-0.5,9.35-5.5,15.05-14.91,15.7
			c-9.43,0.65-16.03-4.3-16.79-13.52c-1.01-12.3-1.01-24.81,0-37.12c0.75-9.21,7.32-14.23,16.75-13.58
			c9.38,0.64,14.43,6.35,14.96,15.68C398.34,88.37,398.08,93.86,398.09,99.34z"/>
		<path class="st2" d="M527.87,99.91c0.01,5.83,0.52,11.72-0.11,17.48c-1.03,9.44-6.97,14.32-16.32,14.09
			c-8.86-0.22-14.68-5.21-15.16-14.11c-0.64-11.99-0.66-24.08,0.02-36.06c0.5-8.83,6.29-13.89,15.16-14.11
			c9.38-0.23,15.26,4.76,16.28,14.13C528.41,87.46,527.87,93.71,527.87,99.91z"/>
		<path class="st2" d="M853.09,668.31c7.21,0,12.33-0.37,17.36,0.08c9.34,0.84,14.76,6.22,14.89,15.65
			c0.12,9.41-5.12,14.78-14.43,16.14c-1.08,0.16-2.22,0.41-3.26,0.22c-12.33-2.24-15.59,3.23-14.86,14.99
			c0.68,10.91-5.94,17.14-15.37,17.4c-9.85,0.28-17.05-6.24-16.31-17.54c0.78-12-2.85-15.96-15.02-15.13
			c-11.4,0.78-17.84-6.29-17.65-16.2c0.19-9.82,6.61-16.33,18.35-15.5c11.94,0.85,14.85-3.56,14.28-14.7
			c-0.6-11.52,6.12-17.99,15.93-17.96c9.86,0.03,15.57,6.37,16.07,18.08C853.25,658.11,853.09,662.39,853.09,668.31z"/>
	</g>
</g>
</svg>
