<?xml version="1.0" encoding="utf-8"?>
<!-- Generator: Adobe Illustrator 23.1.0, SVG Export Plug-In . SVG Version: 6.00 Build 0)  -->
<svg version="1.1" id="Calque_1" xmlns="http://www.w3.org/2000/svg" xmlns:xlink="http://www.w3.org/1999/xlink" x="0px" y="0px"
	 viewBox="0 0 1125 1042" style="enable-background:new 0 0 1125 1042;" xml:space="preserve">
<style type="text/css">
	.st0{fill:#FFFFFF;stroke:#FFFFFF;stroke-miterlimit:10;}
	.st1{fill:#FFFFFF;stroke:#FFFFFF;stroke-width:0.25;stroke-miterlimit:10;}
	.st2{fill:#FFFFFF;}
</style>
<g>
	<g>
		<path class="st0" d="M267,195.8c-8.6,0-15.6,0.7-22.4-0.1c-24-2.8-42.2-23-42.6-48c-0.5-32.5-0.5-65,0-97.6
			c0.4-27.8,21-48.7,48.9-48.8c108.2-0.4,216.3-0.4,324.5,0c27.5,0.1,47.7,20.1,48.5,47.9c0.9,32.9,0.9,65.8,0,98.6
			c-0.8,28.8-21.7,47.9-50.4,48.2c-4.3,0-8.7,0-14.3,0c0,5.3,0,10,0,14.6c0,246.6,0,493.3,0,739.9c0,56-33.3,89.4-89.2,89.4
			c-38.7,0-77.5,0.1-116.2,0c-52.3-0.1-86.6-34.2-86.6-86.4c-0.1-247.4,0-494.7,0-742.1C267,206.8,267,202.1,267,195.8z
			 M300.1,293.8c-0.2,4.4-0.5,7.7-0.5,10.9c0,216.6-0.1,433.3,0,649.9c0,32.8,19.9,52.5,52.5,52.6c39.8,0.1,79.6,0,119.5,0
			c35.5,0,54.6-19.2,54.6-54.9c0-215.5,0-431.1,0-646.6c0-3.8-0.4-7.7-0.6-11.9C450.1,293.8,375.7,293.8,300.1,293.8z M413.7,33.8
			c-52.2,0-104.5,0-156.7,0c-17.2,0-22.5,5.1-22.5,21.9c0,28.9-0.1,57.7,0,86.6c0,15.7,5.3,21,21,21.1c104.8,0,209.6,0,314.4,0
			c16.3,0,21.5-5.3,21.5-21.7c0.1-28.5,0.1-57,0-85.5c0-17-5.3-22.3-22.2-22.3C517.4,33.8,465.5,33.8,413.7,33.8z M300.1,260.2
			c75.5,0,150.4,0,225.3,0c0-21.8,0-42.7,0-63.4c-75.6,0-150.3,0-225.3,0C300.1,218.2,300.1,238.9,300.1,260.2z"/>
		<path class="st0" d="M624,685.5c0.1-22.6,13.4-55.6,30.5-87.3c26.9-49.8,61.8-93.8,100.8-134.6c9.4-9.9,18.3-11.1,26.5-2.5
			C832.2,514,877.5,570.5,904,639.7c20.6,53.8,15.8,104.7-20.4,150.7c-38.4,48.8-103.3,66.8-162.8,46
			C663.3,816.5,624,760.8,624,685.5z M770.1,495.3c-39.5,44.2-74.7,88.7-98.3,141.3c-12.2,27.1-19.5,55.2-13,85.1
			c13.6,63.3,74.9,102.2,137.5,87.7c61-14.2,99.3-76.4,83.3-138.1C861.5,601.9,816.1,549.1,770.1,495.3z"/>
		<path class="st1" d="M429.2,98.7c0,5.8,0.5,11.7-0.1,17.5c-1.1,9.4-8.3,15.4-17.2,14.6c-9.4-0.8-14.6-6.6-15-15.7
			c-0.5-10.9-0.5-21.9,0-32.8c0.4-9.1,5.6-14.9,15-15.7c8.9-0.8,16.1,5.2,17.2,14.7C429.7,87,429.2,92.9,429.2,98.7z"/>
		<path class="st1" d="M558.9,99.4c0,5.5,0.4,11-0.1,16.4c-1,9.2-6.3,14.7-15.7,15c-9.6,0.3-15.6-5.3-16.3-14.3
			c-1-11.9-1-24.1,0.1-36c0.8-8.9,7-14.4,16.6-13.9c9.5,0.5,14.6,6.2,15.4,15.3C559.3,87.7,558.9,93.5,558.9,99.4z"/>
		<path class="st1" d="M267.1,98.2c0-5.5-0.3-11,0.1-16.4c0.7-9.3,5.9-14.8,15.3-15.3c8.9-0.4,15.4,4.2,16.2,12.9
			c1.1,12.6,1.2,25.5,0.1,38.1c-0.8,9.2-7.7,13.9-17.1,13.1c-8.9-0.7-13.8-6.1-14.4-15C266.8,109.9,267.1,104.1,267.1,98.2z"/>
		<path class="st1" d="M364.1,98.6c0,5.5,0.2,10.9-0.1,16.4c-0.5,9.3-5.5,15-14.9,15.7c-9.4,0.6-16-4.3-16.8-13.5
			c-1-12.3-1-24.8,0-37.1c0.7-9.2,7.3-14.2,16.7-13.6c9.4,0.6,14.4,6.3,14.9,15.7C364.3,87.7,364.1,93.2,364.1,98.6z"/>
		<path class="st1" d="M493.7,99.2c0,5.8,0.5,11.7-0.1,17.5c-1,9.4-7,14.3-16.3,14.1c-8.8-0.2-14.7-5.2-15.1-14.1
			c-0.6-12-0.7-24,0-36c0.5-8.8,6.3-13.9,15.1-14.1c9.4-0.2,15.2,4.8,16.3,14.1C494.2,86.8,493.7,93,493.7,99.2z"/>
		<path class="st2" d="M818.4,666.8c7.2,0,12.3-0.4,17.3,0.1c9.3,0.8,14.7,6.2,14.9,15.6c0.1,9.4-5.1,14.8-14.4,16.1
			c-1.1,0.2-2.2,0.4-3.3,0.2c-12.3-2.2-15.6,3.2-14.8,15c0.7,10.9-5.9,17.1-15.4,17.4c-9.8,0.3-17-6.2-16.3-17.5
			c0.8-12-2.8-15.9-15-15.1c-11.4,0.8-17.8-6.3-17.6-16.2c0.2-9.8,6.6-16.3,18.3-15.5c11.9,0.8,14.8-3.6,14.3-14.7
			c-0.6-11.5,6.1-18,15.9-17.9c9.9,0,15.5,6.4,16.1,18.1C818.6,656.6,818.4,660.9,818.4,666.8z"/>
	</g>
</g>
</svg>
