<?xml version="1.0" encoding="utf-8"?>
<!-- Generator: Adobe Illustrator 23.1.0, SVG Export Plug-In . SVG Version: 6.00 Build 0)  -->
<svg version="1.1" id="Calque_1" xmlns="http://www.w3.org/2000/svg" xmlns:xlink="http://www.w3.org/1999/xlink" x="0px" y="0px"
	 viewBox="0 0 1125 1129" style="enable-background:new 0 0 1125 1129;" xml:space="preserve">
<style type="text/css">
	.st0{fill:#FFFFFF;}
	.st1{fill:#F28476;}
	.st2{fill:none;stroke:#F18476;stroke-width:20;stroke-linecap:round;stroke-miterlimit:10;}
</style>
<g>
	<g>
		<path class="st0" d="M562.5,1118.9c-74.6,0-146.9-14.6-215.1-43.4c-65.8-27.8-124.9-67.7-175.6-118.4
			c-50.7-50.7-90.6-109.8-118.4-175.6C24.6,713.3,10,641,10,566.4s14.6-146.9,43.4-215c27.8-65.8,67.7-124.9,118.4-175.6
			C222.6,125,281.7,85.1,347.4,57.3c68.1-28.8,140.5-43.4,215.1-43.4c74.6,0,146.9,14.6,215.1,43.4
			c65.8,27.8,124.9,67.7,175.6,118.4c50.7,50.7,90.6,109.8,118.4,175.6c28.8,68.1,43.4,140.5,43.4,215s-14.6,146.9-43.4,215
			c-27.8,65.8-67.7,124.9-118.4,175.6c-50.7,50.7-109.8,90.6-175.6,118.4C709.4,1104.3,637.1,1118.9,562.5,1118.9z"/>
		<path class="st1" d="M562.5,23.9c73.2,0,144.3,14.3,211.2,42.6c32.1,13.6,63.1,30.4,92.1,50c28.7,19.4,55.7,41.7,80.3,66.3
			c24.6,24.6,46.8,51.6,66.3,80.3c19.6,29,36.4,60,50,92.1c28.3,66.9,42.6,137.9,42.6,211.2s-14.3,144.3-42.6,211.2
			c-13.6,32.1-30.4,63.1-50,92.1c-19.4,28.7-41.7,55.7-66.3,80.3c-24.6,24.6-51.6,46.8-80.3,66.3c-29,19.6-60,36.4-92.1,50
			c-66.9,28.3-137.9,42.6-211.2,42.6s-144.3-14.3-211.2-42.6c-32.1-13.6-63.1-30.4-92.1-50c-28.7-19.4-55.7-41.7-80.3-66.3
			c-24.6-24.6-46.8-51.6-66.3-80.3c-19.6-29-36.4-60-50-92.1C34.3,710.7,20,639.6,20,566.4s14.3-144.3,42.6-211.2
			c13.6-32.1,30.4-63.1,50-92.1c19.4-28.7,41.7-55.7,66.3-80.3c24.6-24.6,51.6-46.8,80.3-66.3c29-19.6,60-36.4,92.1-50
			C418.2,38.2,489.3,23.9,562.5,23.9 M562.5,3.9C251.8,3.9,0,255.7,0,566.4s251.8,562.5,562.5,562.5S1125,877,1125,566.4
			S873.2,3.9,562.5,3.9L562.5,3.9z"/>
	</g>
	<line class="st2" x1="201.8" y1="566.4" x2="923.2" y2="566.4"/>
	<line class="st2" x1="562.5" y1="205.7" x2="562.5" y2="927.1"/>
</g>
</svg>
