<?xml version="1.0" encoding="utf-8"?>
<!-- Generator: Adobe Illustrator 23.1.0, SVG Export Plug-In . SVG Version: 6.00 Build 0)  -->
<svg version="1.1" id="Calque_1" xmlns="http://www.w3.org/2000/svg" xmlns:xlink="http://www.w3.org/1999/xlink" x="0px" y="0px"
	 viewBox="0 0 17.5 17.44" style="enable-background:new 0 0 17.5 17.44;" xml:space="preserve">
<style type="text/css">
	.st0{fill:#FFFFFF;}
	.st1{fill:#F28476;}
</style>
<g id="WnZdMJ_4_">
	<g>
		<g>
			<g>
				<path class="st0" d="M6.18,7.83c-1.09,0-2.13,0-3.17,0c-1.39,0-2.25,0.86-2.25,2.25c0,2,0,4,0,6c0,0.92,0.45,1.37,1.37,1.37
					c4.41,0,8.82,0,13.22,0c0.95,0,1.39-0.44,1.4-1.38c0-2,0-4,0-6c0-1.36-0.86-2.23-2.22-2.23c-1.11-0.01-2.22,0-3.33,0
					c-0.14,0-0.28-0.01-0.47-0.02c0-1.15,0-2.27,0-3.42c-0.42,0-0.8,0-1.22,0c0.12-0.24,0.23-0.42,0.31-0.62
					c0.57-1.31,0.12-2.89-1.04-3.67c-0.19-0.13-0.31-0.13-0.5,0C7.46,0.67,7.06,1.47,7.01,2.46C6.97,3.16,7.21,3.78,7.6,4.42
					c-0.51,0-0.95,0-1.42,0C6.18,5.56,6.18,6.66,6.18,7.83z"/>
			</g>
			<g>
				<path class="st1" d="M6.18,7.83c0-1.16,0-2.27,0-3.41c0.46,0,0.9,0,1.42,0C7.21,3.78,6.97,3.16,7.01,2.46
					C7.06,1.47,7.46,0.67,8.28,0.1c0.19-0.13,0.31-0.13,0.5,0c1.16,0.78,1.61,2.36,1.04,3.67C9.73,3.96,9.63,4.14,9.51,4.38
					c0.42,0,0.8,0,1.22,0c0,1.16,0,2.27,0,3.42c0.18,0.01,0.32,0.02,0.47,0.02c1.11,0,2.22,0,3.33,0c1.36,0.01,2.22,0.87,2.22,2.23
					c0,2,0,4,0,6c0,0.94-0.44,1.38-1.4,1.38c-4.41,0-8.82,0-13.22,0c-0.92,0-1.36-0.45-1.37-1.37c0-2,0-4,0-6
					c0-1.39,0.86-2.24,2.25-2.25C4.05,7.82,5.09,7.83,6.18,7.83z M1.91,16.28c4.58,0,9.13,0,13.67,0c0-1.34,0-2.66,0-4.02
					c-0.89,0.47-1.74,0.42-2.55-0.05c-0.42-0.25-0.76-0.12-1.13,0.07c-0.79,0.4-1.58,0.43-2.36,0c-0.46-0.25-0.86-0.24-1.31,0.01
					c-0.75,0.41-1.54,0.42-2.29,0.01c-0.49-0.27-0.91-0.25-1.39,0.01c-0.72,0.39-1.48,0.37-2.22,0.01
					c-0.13-0.06-0.26-0.11-0.43-0.17C1.91,13.55,1.91,14.9,1.91,16.28z M15.66,10.36c-0.06-1.05-0.34-1.42-1.17-1.42
					c-3.83,0-7.65,0-11.48,0c-0.6,0-0.99,0.28-1.09,0.77c-0.18,0.81-0.02,1.16,0.59,1.45c0.53,0.25,1.07,0.46,1.61,0.1
					c0.79-0.53,1.54-0.46,2.32,0.02c0.39,0.24,0.84,0.26,1.24,0.01c0.84-0.53,1.63-0.53,2.47,0.01c0.36,0.23,0.77,0.19,1.16,0
					c0.33-0.16,0.66-0.31,1-0.43c0.13-0.05,0.32-0.05,0.45,0c0.39,0.15,0.77,0.33,1.15,0.49c0.59,0.25,1.09-0.05,1.56-0.32
					C15.61,10.96,15.6,10.6,15.66,10.36z M7.35,5.54c0,0.77,0,1.51,0,2.25c0.76,0,1.49,0,2.23,0c0-0.77,0-1.5,0-2.25
					C8.83,5.54,8.11,5.54,7.35,5.54z M8.51,3.68c0.53-0.36,0.6-1.76,0.01-2.24C8,2.11,8,2.98,8.51,3.68z"/>
			</g>
			<g>
				<path class="st0" d="M1.91,16.28c0-1.38,0-2.73,0-4.13c0.16,0.07,0.3,0.11,0.43,0.17c0.74,0.36,1.5,0.38,2.22-0.01
					c0.48-0.26,0.9-0.28,1.39-0.01c0.75,0.42,1.54,0.41,2.29-0.01c0.46-0.25,0.86-0.27,1.31-0.01c0.78,0.43,1.58,0.4,2.36,0
					c0.36-0.19,0.7-0.32,1.13-0.07c0.81,0.48,1.66,0.52,2.55,0.05c0,1.36,0,2.67,0,4.02C11.04,16.28,6.49,16.28,1.91,16.28z"/>
			</g>
			<g>
				<path class="st0" d="M15.66,10.36c-0.06,0.23-0.04,0.6-0.19,0.68c-0.47,0.27-0.97,0.57-1.56,0.32
					c-0.39-0.16-0.76-0.35-1.15-0.49c-0.13-0.05-0.32-0.05-0.45,0c-0.34,0.12-0.67,0.28-1,0.43c-0.39,0.19-0.8,0.23-1.16,0
					c-0.83-0.54-1.63-0.54-2.47-0.01c-0.39,0.25-0.84,0.23-1.24-0.01c-0.78-0.48-1.52-0.55-2.32-0.02c-0.54,0.36-1.08,0.16-1.61-0.1
					c-0.62-0.29-0.77-0.64-0.59-1.45c0.11-0.49,0.5-0.77,1.09-0.77c3.83,0,7.65,0,11.48,0C15.31,8.94,15.6,9.32,15.66,10.36z"/>
			</g>
			<g>
				<path class="st0" d="M7.35,5.54c0.76,0,1.48,0,2.23,0c0,0.75,0,1.49,0,2.25c-0.74,0-1.47,0-2.23,0
					C7.35,7.05,7.35,6.32,7.35,5.54z"/>
			</g>
			<g>
				<path class="st0" d="M8.51,3.68C8,2.98,8,2.11,8.52,1.44C9.11,1.92,9.04,3.31,8.51,3.68z"/>
			</g>
		</g>
	</g>
</g>
</svg>
