<?xml version="1.0" encoding="utf-8"?>
<!-- Generator: Adobe Illustrator 23.1.0, SVG Export Plug-In . SVG Version: 6.00 Build 0)  -->
<svg version="1.1" id="Calque_1" xmlns="http://www.w3.org/2000/svg" xmlns:xlink="http://www.w3.org/1999/xlink" x="0px" y="0px"
	 viewBox="0 0 1125 1098" style="enable-background:new 0 0 1125 1098;" xml:space="preserve">
<style type="text/css">
	.st0{fill:#FFFFFF;}
	.st1{fill:#F28476;}
	.st2{opacity:0.6;fill:#F28476;enable-background:new    ;}
</style>
<g>
	<g>
		<g>
			<path class="st0" d="M210.8,131c-39.3,0-75.5-0.3-111.8,0.1c-60.4,0.6-99,39.5-99,99.8C0,486.5,0,742.2,0.2,997.8
				c0,10.9,1.2,22.2,4.3,32.6c13.1,44,47.1,68,95.4,68c306.7,0,613.3,0,920,0c67.5,0,105.1-37.6,105.1-105c0-75,0-149.9,0-224.8
				c0-179.3,0.1-358.7,0-538c0-49.5-28.7-88.6-73.3-96.7c-20.1-3.7-41.2-2.4-61.8-2.7c-24.2-0.4-48.5-0.1-74.1-0.1
				c0-14.4,0.5-27.2-0.1-39.9c-2.1-50-41-89.2-89.7-90.9c-47.2-1.7-88.3,36-92.7,85.7c-1.2,14.4-0.2,29.1-0.2,44.2
				c-114.7,0-226.6,0-341.3,0c0-16.4,1-32-0.2-47.4c-3.6-45.4-44.5-82.3-90.1-82.5c-45-0.2-85.9,35.8-90.3,80.6
				C209.5,96.6,210.8,112.7,210.8,131z"/>
			<path class="st1" d="M210.8,131c0-18.3-1.3-34.5,0.2-50.3c4.4-44.9,45.3-80.8,90.3-80.6c45.6,0.2,86.5,37.1,90.1,82.5
				c1.2,15.4,0.2,31,0.2,47.4c114.7,0,226.5,0,341.3,0c0-15.1-1.1-29.8,0.2-44.2c4.3-49.7,45.5-87.3,92.7-85.7
				c48.8,1.7,87.7,41,89.7,90.9c0.5,12.8,0.1,25.5,0.1,39.9c25.7,0,49.9-0.3,74.1,0.1c20.7,0.3,41.7-0.9,61.8,2.7
				c44.7,8.1,73.3,47.2,73.3,96.7c0.1,179.3,0,358.7,0,538c0,75,0,149.9,0,224.8c0,67.4-37.6,105-105.1,105c-306.7,0-613.3,0-920,0
				c-48.3,0-82.4-24-95.4-68c-3.1-10.4-4.3-21.7-4.3-32.6C0,742.2,0,486.5,0.1,230.8c0-60.3,38.6-99.1,99-99.8
				C135.3,130.7,171.6,131,210.8,131z M79.9,445.1c-0.2,5.1-0.6,9.6-0.6,14c0,179.3,0,358.6,0,537.9c0,21.2,1.3,22.6,22.8,22.6
				c307.1,0,614.1,0,921.2,0c21.2,0,22.5-1.3,22.5-22.9c0-178.8,0-357.7,0-536.5c0-4.9,0-9.8,0-15.1
				C722.9,445.1,401.9,445.1,79.9,445.1z M810.9,169.9c0,24.3,0.1,48.6,0,72.9c0,9.4,1,18.3,13,18.4c11.4,0.2,12.9-8.6,12.9-17.2
				c0.1-49.5,0.1-99,0-148.5c0-8.9-2.4-16.8-13.8-16.2c-10.5,0.5-12.1,7.9-12.1,16.4C810.9,120.4,810.9,145.2,810.9,169.9z
				 M314.1,170.7c0-25.2-0.1-50.4,0-75.6c0-8.9-2.5-15.5-12.8-15.8c-10.6-0.3-13.1,7.1-13.1,15.5c-0.1,50.4-0.1,100.8,0,151.3
				c0,8.6,3.2,15.8,13.5,15.2c10-0.5,12.4-7.5,12.4-16.4C314,220.2,314.1,195.4,314.1,170.7z"/>
			<path class="st0" d="M79.9,445.1c321.9,0,643,0,965.8,0c0,5.3,0,10.2,0,15.1c0,178.8,0,357.7,0,536.5c0,21.5-1.3,22.9-22.5,22.9
				c-307.1,0-614.1,0-921.2,0c-21.4,0-22.8-1.3-22.8-22.6c0-179.3,0-358.6,0-537.9C79.3,454.6,79.7,450.1,79.9,445.1z"/>
			<path class="st2" d="M810.9,169.9c0-24.8,0-49.5,0-74.2c0-8.5,1.5-15.9,12.1-16.4c11.5-0.6,13.8,7.3,13.8,16.2
				c0.2,49.5,0.2,99,0,148.5c0,8.6-1.5,17.4-12.9,17.2c-12-0.2-13.1-9-13-18.4C811,218.5,810.9,194.2,810.9,169.9z"/>
			<path class="st2" d="M314.1,170.7c0,24.8-0.1,49.5,0.1,74.3c0.1,8.9-2.4,15.8-12.4,16.4c-10.3,0.6-13.5-6.6-13.5-15.2
				c-0.2-50.4-0.2-100.9,0-151.3c0-8.5,2.5-15.8,13.1-15.5c10.2,0.2,12.8,6.8,12.8,15.8C314,120.2,314.1,145.4,314.1,170.7z"/>
		</g>
	</g>
	<circle class="st2" cx="277.3" cy="628.8" r="74.6"/>
	<circle class="st2" cx="852.1" cy="628.8" r="74.6"/>
	<circle class="st2" cx="564.7" cy="628.8" r="74.6"/>
	<circle class="st2" cx="277.3" cy="849.9" r="74.6"/>
	<circle class="st2" cx="852.1" cy="849.9" r="74.6"/>
	<circle class="st2" cx="564.7" cy="849.9" r="74.6"/>
</g>
</svg>
