<?xml version="1.0" encoding="utf-8"?>
<!-- Generator: Adobe Illustrator 23.1.0, SVG Export Plug-In . SVG Version: 6.00 Build 0)  -->
<svg version="1.1" id="Calque_1" xmlns="http://www.w3.org/2000/svg" xmlns:xlink="http://www.w3.org/1999/xlink" x="0px" y="0px"
	 viewBox="0 0 1125 1098" style="enable-background:new 0 0 1125 1098;" xml:space="preserve">
<style type="text/css">
	.st0{fill:#FFFFFF;}
	.st1{fill:#F28476;}
	.st2{opacity:0.6;fill:#F28476;}
</style>
<g>
	<g>
		<g>
			<path class="st0" d="M210.84,131.01c-39.26,0-75.51-0.3-111.75,0.07c-60.41,0.62-99.01,39.48-99.04,99.75
				C-0.03,486.49-0.03,742.15,0.2,997.81c0.01,10.88,1.19,22.19,4.27,32.57c13.05,44,47.11,67.97,95.42,67.97
				c306.67,0.04,613.33,0.02,920,0.02c67.48,0,105.09-37.56,105.1-104.98c0.01-74.95,0-149.9,0-224.85
				c0-179.33,0.05-358.66-0.04-537.99c-0.02-49.53-28.66-88.59-73.35-96.71c-20.12-3.66-41.19-2.41-61.83-2.74
				c-24.22-0.39-48.45-0.09-74.12-0.09c0-14.38,0.45-27.18-0.08-39.93c-2.09-49.95-40.99-89.21-89.74-90.93
				c-47.18-1.67-88.35,36.02-92.65,85.69c-1.25,14.43-0.19,29.06-0.19,44.18c-114.73,0-226.6,0-341.26,0
				c0-16.45,1.03-32.03-0.19-47.43c-3.62-45.38-44.46-82.33-90.1-82.49c-45.02-0.16-85.9,35.75-90.34,80.61
				C209.52,96.56,210.84,112.7,210.84,131.01z"/>
			<path class="st1" d="M210.84,131.01c0-18.32-1.32-34.46,0.25-50.31c4.43-44.86,45.32-80.78,90.34-80.61
				c45.64,0.17,86.48,37.12,90.1,82.49c1.23,15.4,0.19,30.98,0.19,47.43c114.66,0,226.53,0,341.26,0c0-15.12-1.06-29.75,0.19-44.18
				c4.3-49.67,45.47-87.35,92.65-85.69c48.75,1.72,87.65,40.98,89.74,90.93c0.53,12.75,0.08,25.54,0.08,39.93
				c25.67,0,49.9-0.3,74.12,0.09c20.65,0.34,41.71-0.91,61.83,2.74c44.68,8.12,73.32,47.18,73.35,96.71
				c0.09,179.33,0.04,358.66,0.04,537.99c0,74.95,0.01,149.9,0,224.85c-0.01,67.42-37.62,104.98-105.1,104.98
				c-306.67,0-613.33,0.02-920-0.02c-48.31-0.01-82.37-23.98-95.42-67.97C1.39,1020,0.2,1008.69,0.2,997.81
				c-0.23-255.66-0.23-511.32-0.14-766.97c0.02-60.27,38.63-99.14,99.04-99.75C135.33,130.71,171.58,131.01,210.84,131.01z
				 M79.91,445.06c-0.23,5.09-0.62,9.56-0.62,14.02c-0.03,179.29-0.03,358.58-0.02,537.87c0,21.22,1.33,22.57,22.77,22.57
				c307.06,0.02,614.12,0.02,921.19,0c21.21,0,22.49-1.35,22.49-22.87c0.01-178.83,0.01-357.66,0.01-536.5c0-4.88,0-9.77,0-15.11
				C722.93,445.06,401.85,445.06,79.91,445.06z M733.13,210.16c-114.69,0-226.6,0-339.32,0c-0.75,16.64-0.92,32.62-2.28,48.5
				c-3.56,41.58-39.52,77-81.31,80.68c-54.95,4.84-98.9-35.71-100.44-92.82c-0.33-12.18-0.05-24.37-0.05-37.07
				c-40.03,0-77.7-0.03-115.37,0.02c-12.21,0.01-15.24,7.4-15.18,18.19c0.23,39.08,0.09,78.15,0.09,117.23c0,6.75,0,13.49,0,20.91
				c322.74,0,643.8,0,966.47,0c0-5.65,0-10.57,0-15.48c0-34.02,0.05-68.04-0.01-102.06c-0.07-40.25,4.73-39.12-38.56-38.88
				c-30.19,0.17-60.37,0.03-92.74,0.03c0,17.13,1.23,32.75-0.23,48.12c-4.5,47.38-44.27,82.79-91.18,82.34
				c-47.07-0.45-85.73-36.23-89.69-83.97C732.09,240.97,733.13,225.88,733.13,210.16z M810.88,169.95c0,24.29,0.08,48.59-0.04,72.88
				c-0.05,9.42,0.96,18.26,13.01,18.44c11.43,0.17,12.92-8.6,12.94-17.25c0.14-49.5,0.14-99-0.01-148.51
				c-0.03-8.95-2.39-16.81-13.85-16.23c-10.55,0.53-12.09,7.88-12.07,16.41C810.93,120.45,810.89,145.2,810.88,169.95z
				 M314.11,170.66c0-25.21-0.08-50.43,0.04-75.64c0.04-8.94-2.55-15.52-12.78-15.78c-10.6-0.26-13.11,7.06-13.13,15.54
				c-0.14,50.42-0.14,100.85,0.03,151.27c0.03,8.63,3.24,15.79,13.54,15.22c9.99-0.55,12.43-7.46,12.37-16.36
				C313.99,220.17,314.11,195.42,314.11,170.66z"/>
			<path class="st0" d="M79.91,445.06c321.93,0,643.02,0,965.82,0c0,5.34,0,10.22,0,15.11c0,178.83,0,357.66-0.01,536.5
				c0,21.51-1.28,22.87-22.49,22.87c-307.06,0.02-614.12,0.02-921.19,0c-21.45,0-22.77-1.35-22.77-22.57
				c-0.01-179.29-0.01-358.58,0.02-537.87C79.29,454.62,79.68,450.15,79.91,445.06z"/>
			<path class="st1" d="M733.13,210.16c0,15.72-1.04,30.81,0.19,45.72c3.96,47.74,42.61,83.52,89.69,83.97
				c46.91,0.45,86.68-34.96,91.18-82.34c1.46-15.37,0.23-30.99,0.23-48.12c32.37,0,62.56,0.14,92.74-0.03
				c43.29-0.25,38.48-1.38,38.56,38.88c0.06,34.02,0.01,68.04,0.01,102.06c0,4.92,0,9.83,0,15.48c-322.67,0-643.73,0-966.47,0
				c0-7.42,0-14.16,0-20.91c0-39.08,0.14-78.15-0.09-117.23c-0.06-10.78,2.97-18.17,15.18-18.19c37.67-0.04,75.34-0.02,115.37-0.02
				c0,12.7-0.28,24.9,0.05,37.07c1.54,57.12,45.49,97.67,100.44,92.82c41.79-3.68,77.75-39.1,81.31-80.68
				c1.36-15.88,1.53-31.86,2.28-48.5C506.54,210.16,618.45,210.16,733.13,210.16z"/>
			<path class="st2" d="M810.89,169.95c0-24.75,0.04-49.5-0.02-74.25c-0.02-8.53,1.52-15.88,12.07-16.41
				c11.46-0.58,13.82,7.28,13.85,16.23c0.15,49.5,0.15,99,0.01,148.51c-0.03,8.65-1.52,17.42-12.94,17.25
				c-12.05-0.18-13.06-9.02-13.01-18.44C810.97,218.53,810.88,194.24,810.89,169.95z"/>
			<path class="st2" d="M314.11,170.66c0,24.75-0.12,49.51,0.06,74.26c0.06,8.9-2.38,15.8-12.37,16.36
				c-10.29,0.57-13.51-6.59-13.54-15.22c-0.17-50.42-0.17-100.85-0.03-151.27c0.02-8.47,2.54-15.8,13.13-15.54
				c10.23,0.25,12.82,6.83,12.78,15.78C314.03,120.24,314.11,145.45,314.11,170.66z"/>
		</g>
	</g>
	<circle class="st2" cx="277.34" cy="628.84" r="74.61"/>
	<circle class="st2" cx="852.14" cy="628.84" r="74.61"/>
	<circle class="st2" cx="564.74" cy="628.84" r="74.61"/>
	<circle class="st2" cx="277.34" cy="849.92" r="74.61"/>
	<circle class="st2" cx="852.14" cy="849.92" r="74.61"/>
	<circle class="st2" cx="564.74" cy="849.92" r="74.61"/>
</g>
</svg>
