<?xml version="1.0" encoding="utf-8"?>
<!-- Generator: Adobe Illustrator 23.1.0, SVG Export Plug-In . SVG Version: 6.00 Build 0)  -->
<svg version="1.1" id="Calque_1" xmlns="http://www.w3.org/2000/svg" xmlns:xlink="http://www.w3.org/1999/xlink" x="0px" y="0px"
	 viewBox="0 0 18.21 17.44" style="enable-background:new 0 0 18.21 17.44;" xml:space="preserve">
<style type="text/css">
	.st0{fill:#FFFFFF;}
	.st1{fill:#F28476;}
</style>
<g id="UiQAZz_4_">
	<g>
		<g>
			<g>
				<path class="st0" d="M14.17,2.48c-0.05,0.1-0.07,0.16-0.1,0.21c-0.66,1.23-1.31,2.45-1.96,3.68c-0.08,0.15-0.16,0.18-0.32,0.14
					c-0.99-0.24-1.95-0.14-2.87,0.3c-2.03,0.96-2.94,3.33-2.11,5.47c0.79,2.02,3.11,3.15,5.19,2.49c1.56-0.49,2.57-1.55,2.94-3.15
					c0.37-1.6-0.1-2.98-1.28-4.11c-0.12-0.12-0.13-0.19-0.05-0.33c0.66-1.22,1.31-2.45,1.97-3.68c0.03-0.05,0.07-0.11,0.13-0.21
					c0.3,1,0.59,1.95,0.88,2.91c0.56-0.17,1.09-0.33,1.62-0.49C17.63,3.8,17.06,1.9,16.48,0c-1.91,0.58-3.81,1.15-5.7,1.73
					c0.17,0.55,0.33,1.07,0.49,1.63C12.24,3.06,13.18,2.78,14.17,2.48z M5.37,12.22c2.41-0.48,3.81-2.91,3.36-5.11
					C8.3,5.06,6.51,3.63,4.4,3.66C2.34,3.69,0.6,5.21,0.25,7.3c-0.37,2.23,1.12,4.45,3.38,4.91c0,0.59,0,1.18,0,1.8
					c-0.57,0-1.13,0-1.69,0c0,0.59,0,1.15,0,1.74c0.57,0,1.13,0,1.71,0c0,0.58,0,1.14,0,1.7c0.58,0,1.14,0,1.73,0
					c0-0.57,0-1.13,0-1.71c0.58,0,1.14,0,1.7,0c0-0.58,0-1.14,0-1.73c-0.57,0-1.13,0-1.7,0C5.37,13.38,5.37,12.8,5.37,12.22z"/>
			</g>
			<g>
				<path class="st1" d="M14.17,2.48c-0.99,0.3-1.94,0.59-2.9,0.88c-0.17-0.55-0.33-1.08-0.49-1.63c1.9-0.57,3.79-1.15,5.7-1.73
					c0.58,1.9,1.15,3.8,1.73,5.72c-0.53,0.16-1.06,0.32-1.62,0.49c-0.29-0.96-0.58-1.91-0.88-2.91c-0.06,0.1-0.1,0.15-0.13,0.21
					c-0.66,1.23-1.31,2.45-1.97,3.68c-0.07,0.14-0.07,0.21,0.05,0.33c1.19,1.13,1.65,2.51,1.28,4.11c-0.37,1.6-1.38,2.66-2.94,3.15
					c-2.09,0.66-4.41-0.47-5.19-2.49C5.98,10.14,6.9,7.77,8.92,6.81c0.92-0.44,1.88-0.54,2.87-0.3c0.16,0.04,0.24,0.02,0.32-0.14
					c0.65-1.23,1.31-2.46,1.96-3.68C14.1,2.63,14.13,2.58,14.17,2.48z M10.07,8.2c-1.37,0.4-2.14,1.82-1.75,3.19
					c0.4,1.36,1.82,2.14,3.19,1.75c1.35-0.39,2.14-1.84,1.74-3.2C12.85,8.58,11.42,7.8,10.07,8.2z"/>
			</g>
			<g>
				<path class="st1" d="M5.37,12.22c0,0.58,0,1.17,0,1.78c0.57,0,1.12,0,1.7,0c0,0.59,0,1.15,0,1.73c-0.56,0-1.11,0-1.7,0
					c0,0.58,0,1.14,0,1.71c-0.59,0-1.15,0-1.73,0c0-0.56,0-1.11,0-1.7c-0.58,0-1.14,0-1.71,0c0-0.59,0-1.15,0-1.74
					c0.56,0,1.12,0,1.69,0c0-0.62,0-1.21,0-1.8C1.37,11.75-0.12,9.54,0.25,7.3C0.6,5.21,2.34,3.69,4.4,3.66
					c2.12-0.03,3.91,1.4,4.33,3.45C9.19,9.31,7.79,11.74,5.37,12.22z M7.09,7.96c0-1.43-1.16-2.58-2.59-2.58
					c-1.42,0-2.58,1.17-2.57,2.6c0.01,1.42,1.16,2.57,2.57,2.58C5.93,10.56,7.09,9.4,7.09,7.96z"/>
			</g>
		</g>
	</g>
</g>
</svg>
