<?xml version="1.0" encoding="utf-8"?>
<!-- Generator: Adobe Illustrator 23.1.0, SVG Export Plug-In . SVG Version: 6.00 Build 0)  -->
<svg version="1.1" id="Calque_1" xmlns="http://www.w3.org/2000/svg" xmlns:xlink="http://www.w3.org/1999/xlink" x="0px" y="0px"
	 viewBox="0 0 31.89 32" style="enable-background:new 0 0 31.89 32;" xml:space="preserve">
<style type="text/css">
	.st0{fill:#F18376;}
	.st1{fill:#FEFEFE;}
</style>
<g>
	<g>
		<path class="st0" d="M12.59,31.89c-2.88,0-5.42-0.07-8.29-0.07c0,0-0.54-0.04-0.67-0.05c-2.79-0.2-3.58-1.02-3.63-3.78
			c0-4.4,0-8.79,0-13.19c0-0.4-0.02-0.8,0-1.2c0.07-1.4,0.52-2.51,1.69-3.5c2.92-2.47,5.82-4.97,8.63-7.57
			c1.62-1.5,3.29-2.52,5.69-2.51c2.3,0.01,3.75,1.18,5.24,2.55c0.95,0.88,1.93,1.75,2.94,2.56c0.89,0.72,1.7,1.53,2.59,2.25
			c1.18,0.97,2.22,2.11,3.49,2.99c1.46,1.01,1.63,2.55,1.63,4.15c0,4.49,0,8.99,0,13.48c-0.05,2.76-0.98,3.69-3.73,3.75
			c-1.99,0-3.98,0-5.98,0c-3.07,0.01-3.81,0.28-2.82-1.9c0.94-2.07,1.08-4.51,0.56-6.74c-0.19-0.99-0.87-1.38-1.79-1.44
			c-0.99-0.07-1.99-0.06-2.99-0.01c-1.4,0.08-1.94,0.62-1.98,2.01c-0.05,2.19,0,4.38-0.03,6.58C13.14,30.86,13.15,31.47,12.59,31.89
			z"/>
		<path class="st1" d="M12.59,31.89c-0.01-2.88-0.02-5.75-0.01-8.63c0-1.34,0.7-2.07,2.05-2.11c1.28-0.04,2.56-0.05,3.83,0.01
			c1.03,0.05,1.84,0.49,2.07,1.62c0.14,3.04,0.12,6.07,0.12,9.12C18.01,31.89,15.23,31.89,12.59,31.89z"/>
	</g>
</g>
</svg>
