<?xml version="1.0" encoding="utf-8"?>
<!-- Generator: Adobe Illustrator 23.1.0, SVG Export Plug-In . SVG Version: 6.00 Build 0)  -->
<svg version="1.1" id="Calque_1" xmlns="http://www.w3.org/2000/svg" xmlns:xlink="http://www.w3.org/1999/xlink" x="0px" y="0px"
	 viewBox="0 0 1125 1123" style="enable-background:new 0 0 1125 1123;" xml:space="preserve">
<style type="text/css">
	.st0{fill:#F28476;}
	.st1{fill:#FFFFFF;}
</style>
<g>
	<path class="st0" d="M1118.69,1122.88H7.31c-2.38,0-4.31-1.93-4.31-4.31V494.31c0-2.38,1.93-4.31,4.31-4.31h1111.38
		c2.38,0,4.31,1.93,4.31,4.31v624.26C1123,1120.95,1121.07,1122.88,1118.69,1122.88z"/>
	<path class="st0" d="M451.98,938.88L48.67,586.72c-61.32-53.54-61.32-140.35,0-193.89L451.98,40.66
		c61.32-53.54,160.74-53.54,222.05,0l403.31,352.16c61.32,53.54,61.32,140.35,0,193.89L674.03,938.88
		C612.71,992.43,513.3,992.43,451.98,938.88z"/>
</g>
<path class="st1" d="M671.67,751.09H489.95c-28.1,0-50.88,22.78-50.88,50.88v321.91h283.49V801.97
	C722.55,773.87,699.77,751.09,671.67,751.09z"/>
</svg>
