<?xml version="1.0" encoding="utf-8"?>
<!-- Generator: Adobe Illustrator 23.1.0, SVG Export Plug-In . SVG Version: 6.00 Build 0)  -->
<svg version="1.1" id="Calque_1" xmlns="http://www.w3.org/2000/svg" xmlns:xlink="http://www.w3.org/1999/xlink" x="0px" y="0px"
	 viewBox="0 0 1125 1129" style="enable-background:new 0 0 1125 1129;" xml:space="preserve">
<style type="text/css">
	.st0{fill:#969696;stroke:#969696;stroke-width:78;stroke-linecap:round;stroke-miterlimit:10;}
	.st1{fill:none;stroke:#969696;stroke-width:88;stroke-linecap:round;stroke-miterlimit:10;}
</style>
<g>
	<g>
		<path class="st0" d="M563.1,112.4c60.7,0,119.6,11.9,175.1,35.3c26.6,11.3,52.3,25.2,76.3,41.4c23.8,16.1,46.2,34.6,66.6,55
			s38.8,42.8,55,66.6c16.2,24,30.2,49.7,41.4,76.3c23.5,55.5,35.3,114.3,35.3,175.1s-11.9,119.6-35.3,175.1
			c-11.3,26.6-25.2,52.3-41.4,76.3c-16.1,23.8-34.6,46.2-55,66.6c-20.4,20.4-42.8,38.8-66.6,55c-24,16.2-49.7,30.2-76.3,41.4
			c-55.5,23.5-114.3,35.3-175.1,35.3s-119.6-11.9-175.1-35.3c-26.6-11.3-52.3-25.2-76.3-41.4c-23.8-16.1-46.2-34.6-66.6-55
			s-38.8-42.8-55-66.6c-16.2-24-30.2-49.7-41.4-76.3c-23.5-55.5-35.3-114.4-35.3-175.1s11.9-119.6,35.3-175.1
			c11.3-26.6,25.2-52.3,41.4-76.3c16.1-23.8,34.6-46.2,55-66.6s42.8-38.8,66.6-55c24-16.2,49.7-30.2,76.3-41.4
			C443.5,124.3,502.4,112.4,563.1,112.4 M563.1,95.9c-257.5,0-466.3,208.7-466.3,466.3s208.7,466.3,466.3,466.3
			s466.3-208.8,466.3-466.3S820.7,95.9,563.1,95.9L563.1,95.9z"/>
	</g>
	<line class="st1" x1="563.4" y1="470.8" x2="563.4" y2="791.1"/>
	<line class="st1" x1="563.9" y1="324.2" x2="563.9" y2="325.4"/>
</g>
</svg>
