<?xml version="1.0" encoding="utf-8"?>
<!-- Generator: Adobe Illustrator 23.1.0, SVG Export Plug-In . SVG Version: 6.00 Build 0)  -->
<svg version="1.1" id="Calque_1" xmlns="http://www.w3.org/2000/svg" xmlns:xlink="http://www.w3.org/1999/xlink" x="0px" y="0px"
	 viewBox="0 0 17.5 17.44" style="enable-background:new 0 0 17.5 17.44;" xml:space="preserve">
<style type="text/css">
	.st0{fill:#FFFFFF;}
	.st1{fill:#F28476;stroke:#F28476;stroke-width:0.5;stroke-miterlimit:10;}
</style>
<g id="_x30_WJhPX_4_">
	<g>
		<g>
			<g>
				<path class="st0" d="M8.74,15.03c2.3,0,4.61,0,6.91,0c0.93,0,1.52-0.59,1.53-1.51c0-3.04,0-6.08,0-9.11
					c0-0.93-0.59-1.51-1.52-1.51c-4.61,0-9.21,0-13.82,0C0.89,2.89,0.3,3.48,0.3,4.4c0,3.04,0,6.08,0,9.11
					c0,0.93,0.59,1.51,1.52,1.51C4.13,15.03,6.43,15.03,8.74,15.03z"/>
			</g>
			<g>
				<path class="st1" d="M8.74,15.03c-2.3,0-4.61,0-6.91,0c-0.93,0-1.52-0.59-1.52-1.51c0-3.04,0-6.08,0-9.11
					c0-0.93,0.59-1.51,1.53-1.51c4.61,0,9.21,0,13.82,0c0.93,0,1.52,0.59,1.52,1.51c0,3.04,0,6.08,0,9.11
					c0,0.93-0.59,1.51-1.53,1.51C13.34,15.03,11.04,15.03,8.74,15.03z M16.37,5.53c-0.12,0.1-0.19,0.17-0.26,0.23
					c-1.83,1.61-3.66,3.23-5.49,4.84c-1,0.88-2.75,0.88-3.75,0C6.21,10.03,5.55,9.45,4.9,8.88C3.69,7.81,2.49,6.75,1.28,5.69
					C1.23,5.64,1.18,5.6,1.1,5.54c0,0.11,0,0.18,0,0.25c0,2.55,0,5.1,0,7.65c0,0.56,0.22,0.78,0.78,0.78c4.57,0,9.14,0,13.71,0
					c0.57,0,0.78-0.21,0.78-0.78c0-2.55,0-5.1,0-7.65C16.37,5.73,16.37,5.66,16.37,5.53z M8.73,3.69c-2.29,0-4.58,0-6.87,0
					c-0.15,0-0.32,0.02-0.46,0.09c-0.35,0.18-0.39,0.59-0.1,0.85c1,0.88,1.99,1.76,2.99,2.64c1.02,0.9,2.04,1.81,3.07,2.71
					c0.71,0.62,1.95,0.64,2.68,0.05c0.34-0.28,0.66-0.59,0.99-0.88c1.73-1.53,3.46-3.06,5.2-4.58c0.12-0.1,0.15-0.21,0.12-0.35
					c-0.06-0.34-0.31-0.53-0.72-0.53C13.34,3.69,11.04,3.69,8.73,3.69z"/>
			</g>
			<g>
				<path class="st0" d="M16.37,5.53c0,0.13,0,0.2,0,0.27c0,2.55,0,5.1,0,7.65c0,0.56-0.22,0.78-0.78,0.78c-4.57,0-9.14,0-13.71,0
					c-0.56,0-0.78-0.22-0.78-0.78c0-2.55,0-5.1,0-7.65c0-0.07,0-0.14,0-0.25c0.08,0.07,0.13,0.1,0.18,0.15
					C2.49,6.75,3.69,7.81,4.9,8.88c0.65,0.58,1.31,1.16,1.96,1.73c1.01,0.88,2.75,0.88,3.75,0c1.83-1.61,3.66-3.23,5.49-4.84
					C16.18,5.69,16.26,5.63,16.37,5.53z"/>
			</g>
			<g>
				<path class="st0" d="M8.73,3.69c2.3,0,4.61,0,6.91,0c0.41,0,0.66,0.19,0.72,0.53c0.02,0.14-0.01,0.25-0.12,0.35
					c-1.74,1.52-3.47,3.05-5.2,4.58c-0.33,0.29-0.65,0.6-0.99,0.88c-0.73,0.59-1.97,0.57-2.68-0.05C6.34,9.08,5.32,8.17,4.3,7.27
					c-1-0.88-1.99-1.76-2.99-2.64c-0.29-0.25-0.25-0.66,0.1-0.85C1.54,3.72,1.71,3.7,1.86,3.7C4.15,3.69,6.44,3.69,8.73,3.69z"/>
			</g>
		</g>
	</g>
</g>
</svg>
