<?xml version="1.0" encoding="utf-8"?>
<!-- Generator: Adobe Illustrator 23.1.0, SVG Export Plug-In . SVG Version: 6.00 Build 0)  -->
<svg version="1.1" id="Calque_1" xmlns="http://www.w3.org/2000/svg" xmlns:xlink="http://www.w3.org/1999/xlink" x="0px" y="0px"
	 viewBox="0 0 1125 1129" style="enable-background:new 0 0 1125 1129;" xml:space="preserve">
<style type="text/css">
	.st0{fill:#FFFFFF;}
</style>
<g>
	<g>
		<path class="st0" d="M862.43,1128.86c-48.84,0.13-83.12-15.72-111.84-44.48C542.2,875.73,333.77,667.13,125.62,458.24
			c-7.52-7.55-14.02-17.17-17.98-27.03c-33.61-83.7-67.47-167.32-99.32-251.7c-24.58-65.13,7.15-137.56,70.86-165.67
			c29.5-13.02,60.81-15.98,91.17-4.32c86.26,33.1,172.16,67.16,257.87,101.67c10.76,4.33,20.69,12.45,29.03,20.78
			C664.34,338.8,871.25,545.84,1078,753.03c51.17,51.29,60.91,115.62,27.48,176.72c-3.89,7.12-8.67,14.1-14.37,19.82
			c-48.62,48.83-97.14,97.77-146.54,145.8C919.9,1119.35,888.63,1128.54,862.43,1128.86z M400.21,549.33
			c106.1,107.06,211.8,213.71,315.57,318.42c49.44-49.08,99.39-98.67,149.29-148.21c-106-104.99-212.71-210.69-318.85-315.83
			C497.68,452.12,447.75,501.92,400.21,549.33z M308.35,461.04c49.15-49.07,99.71-99.56,146.81-146.58
			c-16.26-18.68-32.9-37.8-48.53-55.76c-51.41,51.45-101.51,101.59-152.81,152.92C271.42,427.58,289.92,444.34,308.35,461.04z
			 M804.77,963.64c11.51,11.19,23.85,23.47,36.5,35.41c8.17,7.71,16.89,7.14,24.66-0.56c42.66-42.28,85.49-84.4,127.26-127.54
			c4.26-4.4,5.45-18.14,1.89-22.55c-11.42-14.14-25.74-25.94-37.62-37.35C906.97,861.5,856.47,911.97,804.77,963.64z M184.51,293.07
			c35.19-35.19,69.72-69.72,104.04-104.03c-48.48-19.14-99.28-39.28-150.22-59.08c-3.54-1.38-9.37-1.68-11.81,0.34
			c-2.21,1.82-2.73,8.07-1.44,11.38C144.98,193.09,165.29,244.33,184.51,293.07z"/>
	</g>
</g>
</svg>
