<?xml version="1.0" encoding="utf-8"?>
<!-- Generator: Adobe Illustrator 23.1.0, SVG Export Plug-In . SVG Version: 6.00 Build 0)  -->
<svg version="1.1" id="Calque_1" xmlns="http://www.w3.org/2000/svg" xmlns:xlink="http://www.w3.org/1999/xlink" x="0px" y="0px"
	 viewBox="0 0 1125 1123" style="enable-background:new 0 0 1125 1123;" xml:space="preserve">
<style type="text/css">
	.st0{fill:#FFFFFF;}
	.st1{fill:#F28476;}
</style>
<g>
	<g>
		<path class="st0" d="M1020.37,750.38c0,5.53,0,10.04,0,14.54c0,34.53-0.04,69.06,0.02,103.58c0.03,16.33,3.71,31.53,16,43.18
			c15.96,15.13,34.87,19.66,55.28,11.33c21.24-8.67,32.85-25.85,33-48.58c0.55-81.53,0.27-163.07,0.14-244.6
			c-0.01-4.04-0.89-8.3-2.35-12.07c-6.7-17.35-16.21-23.03-38.29-23.03c-181.37-0.03-362.75-0.08-544.12,0.03
			c-36.08,0.02-70.07-7.46-101.5-25.64c-108.66-62.85-217.34-125.68-326.15-188.27c-6.35-3.65-8.4-7.8-8.27-14.85
			c0.34-18.29,0.87-36.67-0.47-54.88c-1.62-21.93-14.05-37.29-34.6-44.58c-20.24-7.18-38.73-2.35-53.77,13.06
			C2.9,292.33-0.01,308.37,0,325.63c0.16,179.71,0.09,359.42,0.11,539.13c0,3.74,0.02,7.5,0.35,11.22
			c2.7,30.65,25.27,51.85,53.99,50.79c27.88-1.03,49.34-23.71,49.72-53.67c0.45-36.19,0.12-72.38,0.13-108.57c0-4.47,0-8.94,0-14.13
			C409.93,750.38,714.24,750.38,1020.37,750.38z M791.55,547.42c8.32,0,16.63,0,24.95,0c76.52,0,153.03,0.12,229.55-0.08
			c25.58-0.07,43-16.12,44.13-39.62c1.1-22.67-13.93-39.16-38.45-42.3c-9.07-1.16-18.12-2.43-27.17-3.69
			c-104.51-14.6-209.03-29.13-313.52-43.85c-41.49-5.84-83.34-9.62-122.86-25.5c-47.81-19.21-95.95-37.59-144.02-56.14
			c-22.7-8.76-45.59-10.11-67.47,2.13c-52.52,29.39-53.81,99.57-2.26,132.15c28.8,18.2,58.64,34.76,87.5,52.87
			c26.94,16.91,55.99,24.25,87.6,24.13C630.2,547.22,710.88,547.42,791.55,547.42z M243.83,388.8
			c52.12,0.08,95.36-42.67,95.95-94.87c0.59-52.38-43.02-96.29-95.69-96.35c-52.34-0.07-95.46,42.65-95.74,94.86
			C148.06,345.38,191,388.71,243.83,388.8z"/>
		<path class="st1" d="M1020.37,750.38c-306.13,0-610.44,0-916.07,0c0,5.2,0,9.66,0,14.13c-0.01,36.19,0.32,72.39-0.13,108.57
			c-0.37,29.97-21.84,52.65-49.72,53.67c-28.72,1.06-51.29-20.14-53.99-50.79c-0.33-3.72-0.35-7.48-0.35-11.22
			C0.09,685.05,0.16,505.34,0,325.63c-0.01-17.26,2.9-33.3,15.3-46.02c15.04-15.42,33.52-20.25,53.77-13.06
			c20.55,7.29,32.99,22.65,34.6,44.58c1.34,18.21,0.81,36.59,0.47,54.88c-0.13,7.05,1.92,11.2,8.27,14.85
			c108.81,62.6,217.48,125.43,326.15,188.27c31.44,18.18,65.42,25.66,101.5,25.64c181.37-0.11,362.75-0.06,544.12-0.03
			c22.08,0,31.59,5.68,38.29,23.03c1.46,3.78,2.34,8.03,2.35,12.07c0.12,81.53,0.4,163.07-0.14,244.6
			c-0.15,22.73-11.76,39.91-33,48.58c-20.41,8.33-39.32,3.79-55.28-11.33c-12.3-11.65-15.97-26.85-16-43.18
			c-0.06-34.53-0.02-69.06-0.02-103.58C1020.37,760.42,1020.37,755.91,1020.37,750.38z"/>
		<path class="st1" d="M791.55,547.42c-80.67,0-161.35-0.21-242.02,0.1c-31.61,0.12-60.66-7.22-87.6-24.13
			c-28.86-18.11-58.7-34.67-87.5-52.87c-51.55-32.58-50.26-102.76,2.26-132.15c21.87-12.24,44.77-10.89,67.47-2.13
			c48.07,18.55,96.22,36.93,144.02,56.14c39.52,15.88,81.38,19.66,122.86,25.5c104.49,14.72,209.01,29.25,313.52,43.85
			c9.05,1.26,18.1,2.53,27.17,3.69c24.52,3.13,39.55,19.63,38.45,42.3c-1.14,23.5-18.55,39.56-44.13,39.62
			c-76.51,0.2-153.03,0.08-229.55,0.08C808.19,547.42,799.87,547.42,791.55,547.42z"/>
		<path class="st1" d="M243.83,388.8c-52.83-0.08-95.77-43.42-95.48-96.37c0.28-52.21,43.4-94.92,95.74-94.86
			c52.67,0.07,96.27,43.98,95.69,96.35C339.19,346.12,295.94,388.88,243.83,388.8z"/>
	</g>
</g>
</svg>
