<?xml version="1.0" encoding="utf-8"?>
<!-- Generator: Adobe Illustrator 23.1.0, SVG Export Plug-In . SVG Version: 6.00 Build 0)  -->
<svg version="1.1" id="Calque_1" xmlns="http://www.w3.org/2000/svg" xmlns:xlink="http://www.w3.org/1999/xlink" x="0px" y="0px"
	 viewBox="0 0 1125 727" style="enable-background:new 0 0 1125 727;" xml:space="preserve">
<style type="text/css">
	.st0{fill:#FFFFFF;}
	.st1{opacity:0.6;fill:#F28476;}
	.st2{fill:#F28476;}
</style>
<g>
	<g>
		<path class="st0" d="M1017.62,550.59c0,5.51,0,10,0,14.49c0,34.4-0.04,68.8,0.02,103.2c0.03,16.27,3.69,31.41,15.94,43.02
			c15.9,15.07,34.74,19.59,55.07,11.29c21.17-8.64,32.73-25.76,32.88-48.4c0.55-81.23,0.27-162.47,0.14-243.7
			c-0.01-4.02-0.89-8.27-2.34-12.03c-6.68-17.28-16.15-22.94-38.15-22.94c-180.71-0.03-361.41-0.08-542.12,0.03
			c-35.95,0.02-69.81-7.43-101.13-25.54C329.68,307.38,221.4,244.78,112.99,182.42c-6.32-3.64-8.37-7.77-8.23-14.79
			c0.34-18.22,0.87-36.53-0.47-54.68c-1.61-21.85-14-37.15-34.48-44.42c-20.17-7.16-38.59-2.34-53.57,13.02
			C3.89,94.21,0.99,110.2,1,127.39c0.15,179.05,0.09,358.1,0.11,537.14c0,3.73,0.02,7.47,0.35,11.18
			c2.69,30.53,25.18,51.66,53.79,50.6c27.78-1.02,49.16-23.62,49.54-53.48c0.45-36.05,0.12-72.12,0.13-108.17c0-4.45,0-8.9,0-14.08
			C409.43,550.59,712.61,550.59,1017.62,550.59z M789.64,348.37c8.29,0,16.57,0,24.86,0c76.23,0,152.47,0.12,228.7-0.08
			c25.49-0.07,42.84-16.06,43.97-39.48c1.09-22.58-13.88-39.02-38.31-42.14c-9.03-1.15-18.05-2.42-27.07-3.68
			c-104.12-14.54-208.26-29.02-312.36-43.68c-41.33-5.82-83.03-9.58-122.41-25.41c-47.63-19.14-95.6-37.45-143.49-55.93
			c-22.62-8.73-45.43-10.08-67.22,2.12c-52.33,29.29-53.61,99.2-2.25,131.66c28.7,18.14,58.43,34.63,87.18,52.68
			c26.84,16.84,55.79,24.16,87.28,24.04C628.89,348.17,709.26,348.37,789.64,348.37z M243.93,190.33
			c51.93,0.08,95.01-42.52,95.59-94.52c0.59-52.18-42.86-95.93-95.33-96c-52.15-0.07-95.11,42.49-95.39,94.51
			C148.51,147.07,191.29,190.25,243.93,190.33z"/>
		<path class="st1" d="M1017.62,550.59c-305,0-608.19,0-912.7,0c0,5.18,0,9.63,0,14.08c-0.01,36.06,0.32,72.12-0.13,108.17
			c-0.37,29.86-21.76,52.45-49.54,53.48c-28.61,1.05-51.1-20.07-53.79-50.6c-0.33-3.71-0.35-7.45-0.35-11.18
			C1.09,485.49,1.15,306.44,1,127.39c-0.01-17.2,2.89-33.18,15.24-45.85c14.98-15.36,33.4-20.17,53.57-13.02
			c20.47,7.26,32.86,22.57,34.48,44.42c1.34,18.14,0.81,36.45,0.47,54.68c-0.13,7.02,1.91,11.16,8.23,14.79
			C221.4,244.78,329.68,307.38,437.94,370c31.32,18.11,65.18,25.57,101.13,25.54c180.71-0.11,361.41-0.06,542.12-0.03
			c22,0,31.47,5.66,38.15,22.94c1.45,3.76,2.34,8.01,2.34,12.03c0.12,81.23,0.4,162.47-0.14,243.7
			c-0.15,22.64-11.71,39.76-32.88,48.4c-20.33,8.3-39.17,3.78-55.07-11.29c-12.25-11.61-15.91-26.76-15.94-43.02
			c-0.06-34.4-0.02-68.8-0.02-103.2C1017.62,560.58,1017.62,556.09,1017.62,550.59z"/>
		<path class="st2" d="M789.64,348.37c-80.38,0-160.75-0.21-241.13,0.1c-31.49,0.12-60.44-7.2-87.28-24.04
			c-28.76-18.05-58.49-34.54-87.18-52.68c-51.36-32.46-50.08-102.38,2.25-131.66c21.79-12.2,44.6-10.85,67.22-2.12
			c47.9,18.48,95.86,36.79,143.49,55.93c39.38,15.82,81.08,19.59,122.41,25.41c104.11,14.66,208.24,29.14,312.36,43.68
			c9.02,1.26,18.04,2.52,27.07,3.68c24.43,3.12,39.4,19.56,38.31,42.14c-1.13,23.41-18.48,39.41-43.97,39.48
			c-76.23,0.2-152.47,0.08-228.7,0.08C806.21,348.37,797.93,348.37,789.64,348.37z"/>
		<path class="st2" d="M243.93,190.33c-52.64-0.08-95.42-43.26-95.13-96.02c0.28-52.02,43.24-94.57,95.39-94.51
			c52.48,0.07,95.92,43.82,95.33,96C338.94,147.81,295.85,190.41,243.93,190.33z"/>
	</g>
</g>
</svg>
