<?xml version="1.0" encoding="utf-8"?>
<!-- Generator: Adobe Illustrator 23.1.0, SVG Export Plug-In . SVG Version: 6.00 Build 0)  -->
<svg version="1.1" id="Calque_1" xmlns="http://www.w3.org/2000/svg" xmlns:xlink="http://www.w3.org/1999/xlink" x="0px" y="0px"
	 viewBox="0 0 745.2 727" style="enable-background:new 0 0 745.2 727;" xml:space="preserve">
<style type="text/css">
	.st0{opacity:0.6;fill:#F28476;enable-background:new    ;}
	.st1{fill:#F28476;}
</style>
<g>
	<g>
		<path class="st0" d="M675.7,603.9c-202.4,0-403.6,0-605.7,0c0,5.2,0,9.6,0,14.1c0,36.1-1.1,38.3-1.4,74.3
			c-0.2,29.9-15,34.1-34.4,34.1c-19.7,0-31.4-4.2-33.2-34.7c-0.2-3.7,0.1-23.5,0.1-27.2c0-179.1,0.2-313.3,0.1-492.4
			c0-17.2,0-14.7-0.1-30.8c0-11.7,8.6-29.4,32-29.4c39.8,0,36.9,33.4,36.9,52.2c0,19,0.3,30,0,48.2c0,45.8,1.6,65.1,12.2,79.7
			c60.3,72.3,44.7,64.5,116.5,127.2c24.9,24.9,98.6,21.1,159.6,21.1c119.9-0.1,239.9-0.1,359.8,0c14.6,0,20.9,5.7,25.3,22.9
			c1,3.8,1.6,8,1.6,12c0.1,134.6,0.2,158.1,0.1,186c-0.1,22.6-0.1,22.6-0.2,30.1c-0.1,12.2-10.5,35-33.6,35.2
			c-26.7-0.9-35.3-18.5-35.4-34.8c0-34.4-0.2-39-0.2-73.4C675.7,613.9,675.7,609.4,675.7,603.9z"/>
		<path class="st1" d="M443.2,405.8c-56.2,0-112.4-0.2-168.7,0.1c-22,0.1-42.3-7.5-61.1-25.2c-20.1-18.9-40.9-36.2-61-55.2
			c-35.3-38.8-41.4-113.6-4.8-144.3c22.8-14,67.3-9.2,83.1-0.1c33.5,19.4,33.1,45.8,66.4,65.8c27.5,16.6,81,27.9,109.9,34
			c82.5,13.7,200.9,19.2,273.7,34.5c6.3,1.3,12.6,2.6,18.9,3.9c17.1,3.3,27.6,20.5,26.8,44.2c0,32.3-19.4,42.4-106,42.2
			c-53.3,0.2-106.7,0.1-160,0.1C454.8,405.8,449,405.8,443.2,405.8z"/>
		<path class="st1" d="M162.6,159.9c-44.2-0.1-80.1-36.3-79.8-80.6C83,35.7,119.1-0.1,162.8,0c44,0.1,80.5,36.8,80,80.5
			C242.3,124.2,206.2,159.9,162.6,159.9z"/>
	</g>
</g>
</svg>
