<?xml version="1.0" encoding="utf-8"?>
<!-- Generator: Adobe Illustrator 23.1.0, SVG Export Plug-In . SVG Version: 6.00 Build 0)  -->
<svg version="1.1" id="Calque_1" xmlns="http://www.w3.org/2000/svg" xmlns:xlink="http://www.w3.org/1999/xlink" x="0px" y="0px"
	 viewBox="0 0 13.17 17.44" style="enable-background:new 0 0 13.17 17.44;" xml:space="preserve">
<style type="text/css">
	.st0{fill:#F28476;}
</style>
<g id="AtvS5V_3_">
	<g>
		<g>
			<g>
				<path class="st0" d="M9.34,17.44c-1.33,0-2.55-0.49-3.72-1.49c-1.18-1.01-2.04-2.25-2.67-3.21c-1.24-1.92-2.06-3.61-2.58-5.32
					c-0.4-1.34-0.48-2.45-0.23-3.51C0.5,2.43,1.36,1.25,2.79,0.3c0.13-0.09,0.26-0.14,0.37-0.18C3.9-0.16,4.5,0.05,4.86,0.71
					C5.5,1.9,5.97,3.02,6.28,4.15c0.2,0.71-0.05,1.21-0.74,1.49C5.32,5.73,5.09,5.8,4.86,5.87L4.44,5.99
					C4.37,6.01,4.3,6.03,4.23,6.07C4.09,6.13,4.09,6.15,4.1,6.24c0.06,0.36,0.15,0.7,0.26,0.99c0.76,2.04,1.79,3.72,3.13,5.15
					c0.35,0.36,0.38,0.36,0.7,0.05l0.12-0.12c0.22-0.21,0.43-0.42,0.67-0.6c0.65-0.51,1.22-0.47,1.75,0.14
					c0.52,0.6,1.02,1.23,1.51,1.86l0.17,0.22c0.17,0.22,0.34,0.47,0.53,0.79c0.4,0.69,0.27,1.33-0.36,1.79
					c-0.25,0.18-0.56,0.35-0.93,0.5c-0.69,0.28-1.52,0.44-2.28,0.44C9.36,17.44,9.35,17.44,9.34,17.44z M3.75,0.95
					c-0.06,0-0.14,0.02-0.24,0.06C3.43,1.04,3.36,1.07,3.31,1.1C2.1,1.91,1.36,2.9,1.07,4.13C0.86,5.02,0.93,5.98,1.28,7.14
					c0.49,1.62,1.28,3.24,2.47,5.08c0.59,0.91,1.41,2.08,2.49,3.01c0.99,0.85,2,1.26,3.1,1.26c0.01,0,0.01,0,0.02,0h0
					c0,0,0.01,0,0.01,0c0.64,0,1.35-0.13,1.93-0.37c0.3-0.12,0.54-0.25,0.72-0.38c0.23-0.17,0.27-0.26,0.1-0.55
					c-0.14-0.24-0.28-0.47-0.45-0.68l-0.17-0.22c-0.48-0.62-0.97-1.23-1.48-1.82c-0.13-0.15-0.19-0.16-0.19-0.16
					c0,0-0.07,0-0.25,0.15c-0.21,0.17-0.41,0.35-0.6,0.54l-0.12,0.12c-0.7,0.68-1.32,0.66-2.01-0.03c-1.48-1.57-2.57-3.36-3.38-5.51
					C3.34,7.21,3.24,6.82,3.16,6.4C3.11,6.09,3.13,5.52,3.84,5.2c0.11-0.05,0.22-0.08,0.34-0.12l0.41-0.13
					c0.2-0.06,0.4-0.12,0.6-0.2C5.42,4.66,5.43,4.65,5.36,4.4C5.07,3.35,4.63,2.29,4.02,1.17C3.94,1.03,3.88,0.95,3.75,0.95z"/>
			</g>
			<g>
				<path class="st0" d="M9.34,17.44c-1.33,0-2.55-0.49-3.72-1.49c-1.18-1.01-2.04-2.25-2.67-3.21c-1.24-1.92-2.06-3.61-2.58-5.32
					c-0.4-1.34-0.48-2.45-0.23-3.51C0.5,2.43,1.36,1.25,2.79,0.3c0.13-0.09,0.26-0.14,0.37-0.18C3.9-0.16,4.5,0.05,4.86,0.71
					C5.5,1.9,5.97,3.02,6.28,4.15c0.2,0.71-0.05,1.21-0.74,1.49C5.32,5.73,5.09,5.8,4.86,5.87L4.44,5.99
					C4.37,6.01,4.3,6.03,4.23,6.07C4.09,6.13,4.09,6.15,4.1,6.24c0.06,0.36,0.15,0.7,0.26,0.99c0.76,2.04,1.79,3.72,3.13,5.15
					c0.35,0.36,0.38,0.36,0.7,0.05l0.12-0.12c0.22-0.21,0.43-0.42,0.67-0.6c0.65-0.51,1.22-0.47,1.75,0.14
					c0.52,0.6,1.02,1.23,1.51,1.86l0.17,0.22c0.17,0.22,0.34,0.47,0.53,0.79c0.4,0.69,0.27,1.33-0.36,1.79
					c-0.25,0.18-0.56,0.35-0.93,0.5c-0.69,0.28-1.52,0.44-2.28,0.44C9.36,17.44,9.35,17.44,9.34,17.44z M3.75,0.95
					c-0.06,0-0.14,0.02-0.24,0.06C3.43,1.04,3.36,1.07,3.31,1.1C2.1,1.91,1.36,2.9,1.07,4.13C0.86,5.02,0.93,5.98,1.28,7.14
					c0.49,1.62,1.28,3.24,2.47,5.08c0.59,0.91,1.41,2.08,2.49,3.01c0.99,0.85,2,1.26,3.1,1.26c0.01,0,0.01,0,0.02,0h0
					c0,0,0.01,0,0.01,0c0.64,0,1.35-0.13,1.93-0.37c0.3-0.12,0.54-0.25,0.72-0.38c0.23-0.17,0.27-0.26,0.1-0.55
					c-0.14-0.24-0.28-0.47-0.45-0.68l-0.17-0.22c-0.48-0.62-0.97-1.23-1.48-1.82c-0.13-0.15-0.19-0.16-0.19-0.16
					c0,0-0.07,0-0.25,0.15c-0.21,0.17-0.41,0.35-0.6,0.54l-0.12,0.12c-0.7,0.68-1.32,0.66-2.01-0.03c-1.48-1.57-2.57-3.36-3.38-5.51
					C3.34,7.21,3.24,6.82,3.16,6.4C3.11,6.09,3.13,5.52,3.84,5.2c0.11-0.05,0.22-0.08,0.34-0.12l0.41-0.13
					c0.2-0.06,0.4-0.12,0.6-0.2C5.42,4.66,5.43,4.65,5.36,4.4C5.07,3.35,4.63,2.29,4.02,1.17C3.94,1.03,3.88,0.95,3.75,0.95z"/>
			</g>
		</g>
	</g>
</g>
</svg>
