<?xml version="1.0" encoding="utf-8"?>
<!-- Generator: Adobe Illustrator 23.1.0, SVG Export Plug-In . SVG Version: 6.00 Build 0)  -->
<svg version="1.1" id="Calque_1" xmlns="http://www.w3.org/2000/svg" xmlns:xlink="http://www.w3.org/1999/xlink" x="0px" y="0px"
	 viewBox="0 0 11.83 17.44" style="enable-background:new 0 0 11.83 17.44;" xml:space="preserve">
<style type="text/css">
	.st0{fill:#F28476;}
</style>
<g id="RjQnTK_3_">
	<g>
		<g>
			<g>
				<path class="st0" d="M5.94,17.44l-0.69-0.92c-1.28-1.89-2.33-3.6-3.22-5.21c-0.49-0.89-1.1-2.07-1.57-3.34
					C0.31,7.56,0.12,7,0.04,6.4c-0.09-0.65-0.03-1.32,0.17-2.05c0.62-2.25,2.42-3.89,4.7-4.27c1.95-0.32,3.66,0.2,5.09,1.55
					c1.22,1.15,1.84,2.61,1.83,4.33c0,0.51-0.13,0.99-0.26,1.44c-0.23,0.75-0.54,1.52-1.02,2.49c-0.8,1.62-1.77,3.29-3.14,5.4
					c-0.23,0.35-0.46,0.7-0.7,1.05L5.94,17.44z M5.99,0.92c-0.3,0-0.61,0.03-0.93,0.08C3.14,1.32,1.63,2.7,1.11,4.6
					C0.94,5.2,0.9,5.75,0.97,6.28C1.04,6.79,1.2,7.28,1.34,7.65C1.78,8.86,2.38,10,2.85,10.86c0.85,1.54,1.85,3.17,3.06,4.98
					l0.02-0.04c0.23-0.34,0.46-0.69,0.69-1.04c1.35-2.08,2.3-3.72,3.08-5.31c0.45-0.92,0.75-1.64,0.96-2.34
					c0.13-0.43,0.22-0.8,0.22-1.17c0-1.45-0.52-2.68-1.54-3.65C8.38,1.38,7.25,0.92,5.99,0.92z M5.92,8.85
					C5.92,8.85,5.92,8.85,5.92,8.85c-1.63,0-2.95-1.34-2.95-2.98c0-1.61,1.32-2.92,2.95-2.92l0,0c0.79,0,1.53,0.31,2.09,0.87
					c0.56,0.56,0.86,1.3,0.86,2.08C8.86,7.53,7.53,8.85,5.92,8.85z M5.92,3.89c-1.11,0-2.01,0.89-2.01,1.98
					c0,1.14,0.88,2.04,2.01,2.04c0,0,0,0,0,0c1.1,0,2.01-0.9,2.01-2.02c0-0.53-0.2-1.03-0.58-1.41C6.96,4.1,6.46,3.89,5.92,3.89
					L5.92,3.89z"/>
			</g>
			<g>
				<path class="st0" d="M5.92,8.85C5.92,8.85,5.92,8.85,5.92,8.85c-1.63,0-2.95-1.34-2.95-2.98c0-1.61,1.32-2.92,2.95-2.92l0,0
					c0.79,0,1.53,0.31,2.09,0.87c0.56,0.56,0.86,1.3,0.86,2.08C8.86,7.53,7.53,8.85,5.92,8.85z M5.92,3.89
					c-1.11,0-2.01,0.89-2.01,1.98c0,1.14,0.88,2.04,2.01,2.04c0,0,0,0,0,0c1.1,0,2.01-0.9,2.01-2.02c0-0.53-0.2-1.03-0.58-1.41
					C6.96,4.1,6.46,3.89,5.92,3.89L5.92,3.89z"/>
			</g>
		</g>
	</g>
</g>
</svg>
