<?xml version="1.0" encoding="utf-8"?>
<!-- Generator: Adobe Illustrator 23.1.0, SVG Export Plug-In . SVG Version: 6.00 Build 0)  -->
<svg version="1.1" id="Calque_1" xmlns="http://www.w3.org/2000/svg" xmlns:xlink="http://www.w3.org/1999/xlink" x="0px" y="0px"
	 viewBox="0 0 1125 1722" style="enable-background:new 0 0 1125 1722;" xml:space="preserve">
<style type="text/css">
	.st0{fill:#F28476;}
</style>
<g>
	<g>
		<path class="st0" d="M803.15,123.74c0.2,78.85,0.39,153.73,0.58,228.61c0.17,66.14,0.79,132.29,0.14,198.42
			c-0.14,14.43,4.57,20.46,17.93,25.84c158.11,63.65,258.73,178,299.44,343.91c13.76,56.09-21.91,101.13-80.48,101.53
			c-129.56,0.9-259.13,0.84-388.7,1.18c-7.95,0.02-15.89,0.04-25.83,0.07c0.03,10.26,0.05,18.21,0.07,26.16
			c0.5,199.1,1.01,398.2,1.49,597.3c0.02,7.42,0.43,14.93-0.52,22.24c-4.14,31.85-29.54,53.95-60.89,53.5
			c-31.08-0.45-55.8-23.69-58.89-55.7c-0.65-6.69-0.33-13.49-0.34-20.23c-0.51-198.43-1.01-396.85-1.52-595.28
			c-0.02-8.04-0.04-16.09-0.07-26.56c-8.83-0.39-16.57-1.03-24.31-1.02c-126.87,0.26-253.74,0.64-380.6,0.9
			c-72.37,0.15-106.9-43.49-88.07-113.56c42.79-159.22,140.94-270.37,293.64-332.42c15.32-6.22,19.44-13.28,19.32-29.01
			c-0.99-133.63-1.05-267.26-1.39-400.9c-0.02-6.71-0.03-13.41-0.06-22.42c-8.06-0.46-15.16-1.22-22.26-1.22
			c-43.86-0.01-87.73,0.41-131.59,0.18c-40.22-0.21-66.5-24.62-66.07-60.59c0.42-35.05,26.58-58.95,65.49-59.06
			C432.19,4.84,694.69,4.17,957.2,3.6c38.68-0.08,65.12,24.05,65.53,59.02c0.42,35.25-25.3,60.05-64.06,60.58
			c-43.86,0.61-87.73,0.35-131.59,0.47C819.83,123.69,812.57,123.71,803.15,123.74z"/>
	</g>
</g>
</svg>
