<?xml version="1.0" encoding="utf-8"?>
<!-- Generator: Adobe Illustrator 23.1.0, SVG Export Plug-In . SVG Version: 6.00 Build 0)  -->
<svg version="1.1" id="Calque_1" xmlns="http://www.w3.org/2000/svg" xmlns:xlink="http://www.w3.org/1999/xlink" x="0px" y="0px"
	 viewBox="0 0 1125 2048" style="enable-background:new 0 0 1125 2048;" xml:space="preserve">
<style type="text/css">
	.st0{fill:#969696;}
</style>
<g>
	<g>
		<path class="st0" d="M219.77,1007.27c28.78-26.57,43.53-39.52,57.55-53.23c261.43-255.5,522.81-511.05,784.07-766.73
			c14.02-13.72,28.95-27.24,39.76-43.35c23.13-34.45,24.17-71.52-0.2-105.51c-24.4-34.03-60.25-47.05-99.48-32.68
			c-23.56,8.63-46.2,24.66-64.39,42.37C645.74,331.69,355.16,615.99,64.51,900.22c-79.58,77.83-79.91,113.2-3.18,192.01
			c291.6,299.51,583.09,599.13,874.79,898.54c13.66,14.02,28.03,27.73,43.77,39.25c32.65,23.9,66.87,23.5,100.68,1.64
			c57.73-37.31,58.13-102.64-0.46-162.7c-242.68-248.76-485.38-497.51-729.09-745.25C312.1,1084.15,267.95,1049.74,219.77,1007.27z"
			/>
		<path class="st0" d="M219.77,1007.27c48.18,42.47,92.33,76.88,131.25,116.44c243.72,247.74,486.41,496.49,729.09,745.25
			c58.59,60.06,58.19,125.39,0.46,162.7c-33.81,21.85-68.03,22.26-100.68-1.64c-15.74-11.52-30.11-25.23-43.77-39.25
			c-291.7-299.41-583.19-599.03-874.79-898.54c-76.72-78.8-76.4-114.18,3.18-192.01C355.16,615.99,645.74,331.69,937.07,48.15
			c18.19-17.71,40.83-33.74,64.39-42.37c39.23-14.37,75.08-1.35,99.48,32.68c24.37,33.99,23.33,71.06,0.2,105.51
			c-10.81,16.1-25.74,29.63-39.76,43.35C800.14,442.99,538.76,698.55,277.33,954.04C263.3,967.75,248.55,980.7,219.77,1007.27z"/>
	</g>
</g>
</svg>
