<?xml version="1.0" encoding="utf-8"?>
<!-- Generator: Adobe Illustrator 23.1.0, SVG Export Plug-In . SVG Version: 6.00 Build 0)  -->
<svg version="1.1" id="Calque_1" xmlns="http://www.w3.org/2000/svg" xmlns:xlink="http://www.w3.org/1999/xlink" x="0px" y="0px"
	 viewBox="0 0 53 39" style="enable-background:new 0 0 53 39;" xml:space="preserve">
<style type="text/css">
	.st0{fill:#FFFFFF;}
</style>
<g>
	<g>
		<path class="st0" d="M19.44,26.68c1.25-1.25,2.51-2.5,3.76-3.76c7-7,14.02-13.97,20.99-21c2.15-2.17,5.31-2.07,7.18-0.43
			c1.84,1.61,2.19,4.68,0.71,6.63c-0.27,0.36-0.56,0.71-0.87,1.02C40.69,19.66,32.27,28.07,23.18,37.17
			c-1.57,1.57-3.41,2.1-5.5,1.38c-0.78-0.27-1.54-0.78-2.13-1.37c-4.66-4.59-9.28-9.22-13.89-13.86c-2.38-2.39-2.18-5.78,0.4-7.85
			c1.6-1.28,4.39-1.26,6.05,0.06c0.33,0.26,0.65,0.56,0.95,0.86C12.52,19.81,15.96,23.23,19.44,26.68z"/>
	</g>
</g>
</svg>
