<?xml version="1.0" encoding="utf-8"?>
<!-- Generator: Adobe Illustrator 23.1.0, SVG Export Plug-In . SVG Version: 6.00 Build 0)  -->
<svg version="1.1" id="Calque_1" xmlns="http://www.w3.org/2000/svg" xmlns:xlink="http://www.w3.org/1999/xlink" x="0px" y="0px"
	 viewBox="0 0 1125 2048" style="enable-background:new 0 0 1125 2048;" xml:space="preserve">
<style type="text/css">
	.st0{fill:#FFFFFF;}
</style>
<g>
	<g>
		<path class="st0" d="M219.8,1007.3c28.8-26.6,43.5-39.5,57.6-53.2c261.4-255.5,522.8-511,784.1-766.7c14-13.7,28.9-27.2,39.8-43.4
			c23.1-34.4,24.2-71.5-0.2-105.5c-24.4-34-60.2-47-99.5-32.7c-23.6,8.6-46.2,24.7-64.4,42.4C645.7,331.7,355.2,616,64.5,900.2
			c-79.6,77.8-79.9,113.2-3.2,192c291.6,299.5,583.1,599.1,874.8,898.5c13.7,14,28,27.7,43.8,39.2c32.7,23.9,66.9,23.5,100.7,1.6
			c57.7-37.3,58.1-102.6-0.5-162.7c-242.7-248.8-485.4-497.5-729.1-745.2C312.1,1084.2,268,1049.7,219.8,1007.3z"/>
		<path class="st0" d="M219.8,1007.3c48.2,42.5,92.3,76.9,131.3,116.4c243.7,247.7,486.4,496.5,729.1,745.2
			c58.6,60.1,58.2,125.4,0.5,162.7c-33.8,21.9-68,22.3-100.7-1.6c-15.7-11.5-30.1-25.2-43.8-39.2
			c-291.7-299.4-583.2-599-874.8-898.5c-76.7-78.8-76.4-114.2,3.2-192C355.2,616,645.7,331.7,937.1,48.2
			c18.2-17.7,40.8-33.7,64.4-42.4c39.2-14.4,75.1-1.3,99.5,32.7c24.4,34,23.3,71.1,0.2,105.5c-10.8,16.1-25.7,29.6-39.8,43.4
			C800.1,443,538.8,698.5,277.3,954C263.3,967.8,248.6,980.7,219.8,1007.3z"/>
	</g>
</g>
</svg>
